<svg class="img-fluid" id="outputsvg" xmlns="http://www.w3.org/2000/svg" style="transform: none; transform-origin: 50% 50%; cursor: move;" width="274" height="58" viewBox="0 0 2740 580"><g id="l2E2DY1uCeNJqG5KCgfnrd1" fill="rgb(255,255,255)" style="transform: none;"><g><path id="ptFPTkubG" d="M77 553 c-15 -16 -15 -18 0 -35 15 -17 17 -17 35 -2 17 16 19 16 36 0 18 -15 20 -15 35 2 16 18 16 20 -3 37 -16 15 -22 16 -35 5 -12 -10 -19 -10 -27 -2 -16 16 -21 15 -41 -5z"></path><path id="pANsEb2zW" d="M2423 458 c0 -18 4 -39 10 -45 11 -15 57 -17 57 -3 0 6 -9 10 -19 10 -11 0 -22 4 -26 9 -7 12 25 30 43 24 6 -3 12 2 12 10 0 8 -13 17 -31 21 -46 9 -46 9 -46 -26z"></path><path id="pNsG2LPiy" d="M75 450 c-11 -4 -31 -20 -44 -34 -31 -32 -33 -104 -7 -155 16 -29 20 -32 32 -19 12 11 12 21 4 42 -16 42 -12 65 15 91 27 27 71 32 123 14 41 -14 46 -33 17 -67 -23 -28 -24 -30 -7 -45 15 -14 19 -14 41 4 13 10 38 19 57 19 31 0 38 -6 71 -60 42 -66 78 -89 113 -70 29 15 60 69 60 104 0 28 0 28 53 24 28 -3 75 -15 102 -28 l50 -22 -35 -15 c-21 -9 -49 -13 -72 -9 -49 8 -59 -10 -24 -41 34 -29 43 -29 138 4 110 39 108 55 -18 118 -100 50 -167 65 -202 46 -14 -7 -23 -8 -27 -1 -10 16 -83 12 -110 -6 -22 -14 -26 -14 -47 0 -12 9 -34 16 -48 16 -17 0 -30 9 -42 30 -30 53 -133 85 -193 60z m425 -161 c9 -16 8 -26 -5 -45 -19 -30 -49 -31 -69 -2 -22 31 -20 47 7 58 36 14 56 11 67 -11z"></path><path id="p108Zw7NLO" d="M687 442 c-16 -18 -16 -20 1 -35 18 -16 20 -16 35 1 16 18 16 20 -1 35 -18 16 -20 16 -35 -1z"></path><path id="p1BKPkJc3d" d="M872 435 c-11 -23 -9 -26 26 -44 20 -10 48 -31 61 -45 23 -25 24 -30 14 -69 -8 -27 -8 -45 -2 -52 5 -5 50 -10 100 -11 l89 -1 -6 32 c-7 39 12 58 58 53 l33 -3 3 -126 c2 -118 4 -127 23 -132 29 -8 32 8 27 148 -4 139 -13 159 -74 171 -64 12 -114 -15 -114 -62 0 -22 -4 -24 -42 -24 l-43 0 -1 40 c-2 49 -33 92 -88 125 -24 14 -45 25 -48 25 -3 0 -10 -11 -16 -25z"></path><path id="p14uqHNIe4" d="M2246 436 c-15 -24 -15 -25 39 -55 76 -43 82 -59 50 -128 -20 -44 -23 -58 -13 -65 25 -16 39 -7 58 35 42 92 11 171 -87 221 -30 15 -32 15 -47 -8z"></path><path id="p1C59YYE8n" d="M1360 201 c0 -150 1 -159 20 -164 11 -3 22 -2 24 1 2 4 1 78 -1 165 -5 144 -7 157 -24 157 -18 0 -19 -11 -19 -159z"></path><path id="piIXIKGyy" d="M1546 338 c-9 -37 -8 -39 27 -37 17 2 47 2 65 1 43 -3 42 -26 -3 -84 -32 -43 -33 -46 -16 -62 16 -15 19 -14 44 12 30 31 57 91 57 126 0 40 -43 66 -110 66 -51 0 -58 -2 -64 -22z"></path><path id="ppIGvtUUJ" d="M1797 340 l-27 -21 0 -140 c0 -78 4 -139 9 -139 5 0 17 -3 27 -7 16 -6 17 2 11 112 -6 135 -1 155 44 155 25 0 33 -6 45 -35 8 -19 18 -35 22 -35 19 1 32 19 30 41 -3 21 1 24 31 24 36 0 46 -10 56 -58 9 -44 39 -32 45 18 4 34 9 40 30 43 44 4 56 -11 44 -55 -6 -21 -14 -45 -18 -54 -5 -11 1 -19 18 -27 22 -10 25 -8 35 20 6 17 11 53 11 80 0 39 -5 54 -26 74 -22 22 -31 25 -67 20 -23 -3 -50 -6 -59 -5 -22 0 -101 0 -125 0 -10 -1 -38 2 -63 5 -37 5 -50 2 -73 -16z"></path><path id="p1H0BuNigB" d="M2444 335 c-5 -20 2 -34 35 -70 22 -24 41 -49 41 -54 0 -5 -23 -29 -51 -54 -47 -41 -50 -46 -37 -66 7 -11 16 -21 20 -21 3 0 26 23 51 51 l44 51 12 -33 c6 -17 11 -47 11 -64 0 -27 4 -34 25 -37 23 -5 25 -2 25 28 0 19 -9 57 -19 84 l-19 51 24 42 c29 51 30 71 4 97 -16 16 -33 20 -90 20 -66 0 -70 -1 -76 -25z m132 -40 c3 -8 -1 -23 -9 -35 -14 -20 -15 -20 -41 15 l-27 35 36 0 c22 0 38 -6 41 -15z"></path><path id="pQKsZip1s" d="M2680 200 c0 -90 4 -160 9 -160 5 0 16 -3 25 -6 14 -5 16 13 16 160 l0 166 -25 0 -25 0 0 -160z"></path><path id="pDDO2KpS6" d="M1081 153 c-7 -13 -5 -23 6 -36 15 -16 18 -16 34 -1 16 14 21 15 34 4 13 -11 19 -10 33 3 15 16 15 18 0 34 -14 14 -20 14 -33 3 -12 -10 -19 -10 -27 -2 -17 17 -35 15 -47 -5z"></path><path id="p15n93RWAV" d="M2002 138 c-16 -16 -15 -33 3 -48 13 -10 19 -10 34 4 16 15 19 15 31 1 12 -14 15 -14 32 1 17 16 17 18 1 36 -15 16 -18 17 -33 3 -15 -14 -18 -14 -30 0 -15 18 -22 19 -38 3z"></path><path id="pptTJjaLo" d="M2035 60 c-17 -19 -17 -22 -2 -37 13 -13 19 -14 31 -3 20 15 20 34 3 49 -11 8 -18 6 -32 -9z"></path></g></g></svg>