<svg class="img-fluid" id="outputsvg" xmlns="http://www.w3.org/2000/svg" style="transform: matrix(1.3, 0, 0, 1.3, 0, 0); transform-origin: 50% 50%; cursor: move; max-height: none; transition: transform 200ms ease-in-out;" width="2025" height="2025" viewBox="0 0 20250 20250"><g id="l7mpxzv1ZrVEBu418xlESy5" fill="rgb(255,255,255)" style="transform: none;"><g style="transform: none;"><path id="p10vEQKgJv" d="M14345 12864 c-82 -69 -145 -136 -145 -153 0 -34 152 -191 185 -191 20 0 69 45 137 123 l59 69 -58 57 c-32 31 -76 73 -98 93 l-40 36 -40 -34z"></path><path id="pbFmhMQNg" d="M15380 12803 c-11 -14 -20 -30 -20 -35 0 -5 -13 -26 -30 -46 -35 -44 -83 -150 -76 -167 2 -7 29 -21 58 -30 29 -10 64 -25 78 -34 42 -28 152 -89 210 -116 30 -15 68 -40 85 -56 67 -64 162 -162 195 -201 34 -40 35 -43 35 -127 0 -75 -3 -92 -26 -131 -15 -25 -35 -73 -44 -107 -10 -34 -28 -77 -41 -95 -13 -17 -24 -38 -24 -45 0 -19 105 -83 186 -113 61 -23 79 -26 128 -19 30 4 145 10 253 14 208 7 368 -4 444 -30 l40 -14 20 32 c19 29 20 43 14 157 -8 173 0 205 64 271 l53 54 127 -1 c119 0 131 -2 172 -26 24 -15 59 -42 78 -62 l34 -35 -5 -630 -6 -629 33 -32 c26 -25 52 -37 111 -51 72 -17 80 -17 103 -3 l24 16 -5 703 -6 702 -36 68 c-20 37 -36 76 -36 85 0 18 -106 130 -123 130 -5 0 -46 17 -91 38 l-81 37 -185 0 -185 0 -68 -38 c-38 -20 -75 -37 -82 -37 -8 0 -22 -12 -32 -26 -10 -14 -32 -42 -50 -61 -38 -43 -53 -98 -53 -197 0 -68 -2 -77 -22 -87 -14 -8 -96 -15 -213 -19 -239 -9 -231 -13 -227 123 4 123 -12 228 -43 281 -13 23 -31 62 -40 86 -9 25 -29 58 -44 75 -16 16 -35 43 -42 59 -12 26 -90 99 -219 205 -19 15 -46 32 -60 36 -13 4 -47 23 -73 41 -27 19 -55 34 -62 34 -7 0 -39 14 -71 31 -97 51 -100 52 -124 22z"></path><path id="pz63Y3SHI" d="M3057 12285 c-109 -12 -152 -21 -205 -44 -37 -16 -85 -34 -107 -40 -63 -17 -185 -117 -218 -179 -22 -41 -34 -52 -53 -52 l-24 0 0 -220 c0 -215 0 -220 21 -220 23 0 43 -39 60 -120 7 -35 25 -68 56 -106 49 -60 43 -58 128 -38 55 12 58 20 51 117 -4 48 -16 116 -26 150 -20 63 -27 172 -11 181 4 3 14 26 21 51 13 46 84 125 113 125 8 0 40 14 71 30 80 43 171 53 506 52 293 0 435 -13 497 -45 15 -8 48 -20 73 -26 104 -27 118 -56 100 -204 -13 -108 -17 -123 -41 -158 -10 -14 -27 -61 -38 -104 -12 -43 -30 -88 -41 -100 -28 -30 -25 -42 20 -87 48 -48 119 -77 177 -70 45 4 55 18 83 107 7 22 24 62 38 90 24 49 28 72 49 329 3 44 0 128 -7 193 -12 113 -14 117 -51 157 -76 81 -140 132 -187 146 -20 7 -67 25 -104 41 -88 39 -187 48 -533 54 -201 3 -319 0 -418 -10z"></path><path id="pJnTNBrB6" d="M12956 12289 c-38 -5 -87 -18 -110 -30 -103 -51 -128 -67 -160 -102 -29 -32 -39 -37 -79 -37 -41 0 -48 4 -77 40 -17 22 -36 40 -42 40 -5 0 -37 17 -71 38 l-61 37 -165 0 -166 0 -60 -32 c-33 -17 -77 -39 -97 -48 -21 -9 -40 -25 -43 -36 -4 -10 -18 -28 -33 -39 -15 -12 -38 -43 -52 -68 -28 -51 -28 -51 -110 -26 -39 12 -94 17 -186 18 -130 1 -130 0 -178 -31 -26 -18 -62 -35 -79 -39 -20 -4 -52 -27 -85 -60 -43 -44 -58 -69 -82 -138 -17 -46 -30 -104 -30 -129 0 -64 53 -233 87 -276 16 -20 36 -48 46 -63 9 -15 31 -35 48 -43 17 -9 50 -31 74 -48 95 -69 144 -96 211 -115 95 -28 195 -70 222 -95 19 -18 22 -28 16 -63 -5 -38 -3 -43 24 -63 41 -29 108 -56 172 -70 91 -20 85 -57 85 532 0 421 2 516 14 533 8 11 35 35 60 52 54 36 160 51 228 33 58 -16 160 -87 180 -125 9 -17 26 -44 39 -59 13 -15 28 -44 33 -63 5 -20 21 -51 36 -69 14 -19 34 -55 46 -81 11 -26 29 -54 40 -62 10 -7 30 -34 43 -60 38 -73 138 -164 231 -208 69 -33 89 -38 144 -37 49 1 71 7 100 27 20 13 56 31 81 39 47 16 150 106 150 131 0 7 14 33 32 57 22 30 36 66 45 113 7 38 20 83 29 100 9 17 18 69 21 116 6 89 28 152 61 168 9 5 62 12 118 16 111 7 260 -11 313 -38 17 -9 61 -23 98 -32 37 -8 84 -25 103 -38 19 -13 60 -28 90 -35 84 -19 86 -20 114 -45 15 -12 53 -31 84 -41 31 -9 66 -22 78 -29 21 -11 21 -11 2 -54 -21 -48 -56 -68 -158 -92 -30 -7 -75 -22 -100 -33 -36 -16 -67 -21 -151 -21 -105 -1 -106 -1 -143 32 -30 26 -45 32 -84 32 -44 0 -51 -4 -101 -55 l-54 -55 79 -87 c44 -47 86 -90 94 -94 8 -5 47 -23 85 -41 66 -31 76 -33 185 -33 103 0 119 3 155 23 21 13 69 29 105 36 37 7 82 24 104 39 21 15 48 27 60 27 32 1 93 25 134 54 27 18 64 30 137 41 171 28 167 26 181 65 18 51 18 204 -1 240 -19 37 -69 63 -161 83 -39 9 -88 27 -109 41 -21 14 -53 30 -72 35 -19 6 -50 21 -68 35 -18 14 -58 35 -88 46 -30 11 -61 28 -69 37 -7 9 -37 27 -67 40 -29 13 -61 32 -70 42 -9 11 -39 27 -68 36 -28 9 -64 26 -79 38 -15 11 -57 29 -93 39 -36 9 -100 29 -141 44 -66 24 -93 28 -235 32 -183 5 -246 -5 -309 -49 -37 -26 -46 -29 -90 -23 -33 5 -59 16 -81 35 -17 16 -52 33 -78 38 -70 16 -204 21 -281 10z m209 -308 c28 -10 57 -30 66 -42 8 -13 26 -40 39 -59 35 -51 33 -116 -9 -211 -29 -67 -39 -80 -89 -114 -81 -54 -139 -54 -241 1 -59 30 -77 46 -85 69 -5 17 -24 52 -43 79 -28 41 -33 57 -33 107 0 58 1 60 35 80 20 12 40 30 45 40 12 22 87 45 185 58 39 4 72 9 75 10 3 0 28 -8 55 -18z m-1489 -264 c38 -20 41 -43 34 -226 l-5 -125 -33 -19 c-29 -17 -40 -18 -120 -8 -58 8 -95 18 -112 32 -14 10 -45 29 -70 40 -57 26 -77 44 -103 94 -37 74 -39 101 -6 149 15 24 34 48 42 54 40 34 314 41 373 9z"></path><path id="p8A1l4DJE" d="M4981 12269 c-24 -5 -51 -15 -60 -23 -9 -8 -41 -25 -71 -39 -65 -29 -86 -50 -134 -136 -25 -43 -40 -85 -46 -130 -5 -36 -10 -357 -10 -717 0 -749 -8 -688 98 -718 106 -29 156 -17 167 43 4 19 4 310 0 646 l-7 610 39 64 c27 46 48 68 72 78 49 21 333 28 559 14 157 -9 191 -14 245 -36 82 -34 109 -65 105 -118 -2 -29 -10 -45 -28 -58 -24 -18 -27 -18 -99 1 -41 11 -95 20 -120 20 -52 0 -219 -33 -247 -48 -60 -32 -150 -174 -160 -250 -11 -89 1 -305 19 -339 8 -15 29 -54 46 -87 43 -81 113 -147 209 -195 75 -38 88 -41 162 -41 107 0 158 26 261 132 l77 80 46 141 c45 138 47 148 59 337 13 195 8 366 -12 461 -21 97 -141 221 -239 246 -31 8 -69 21 -85 29 -64 34 -183 44 -497 43 -168 -1 -325 -5 -349 -10z m906 -784 c27 -18 38 -89 25 -170 -7 -43 -22 -77 -51 -121 -58 -87 -61 -89 -157 -89 -77 0 -85 2 -121 31 -45 36 -91 136 -92 200 -1 46 28 121 57 147 39 35 284 37 339 2z"></path><path id="pSpr18gDW" d="M6791 12269 c-24 -5 -51 -15 -60 -23 -9 -7 -39 -25 -67 -39 -52 -26 -124 -98 -124 -124 0 -7 -11 -35 -25 -61 l-25 -48 -10 -693 c-11 -776 -14 -741 58 -760 20 -6 57 -15 82 -22 31 -8 58 -9 85 -3 33 8 40 15 48 44 6 22 5 55 -2 89 -7 35 -11 244 -11 595 0 578 2 599 50 664 42 57 87 73 222 79 111 5 125 4 146 -14 23 -18 23 -21 13 -78 -6 -32 -19 -70 -28 -84 -13 -20 -18 -53 -21 -137 -4 -97 -1 -116 17 -152 11 -22 25 -62 31 -89 20 -89 114 -181 253 -247 48 -22 99 -39 135 -42 60 -7 60 -6 227 66 11 4 50 35 86 68 60 56 69 69 109 168 24 59 47 126 51 148 11 59 -8 186 -36 248 -40 87 -42 113 -11 133 23 15 45 17 169 12 188 -7 237 -21 298 -84 54 -57 64 -85 78 -226 11 -108 24 -138 72 -163 41 -21 110 -11 160 21 l36 23 -18 74 c-20 79 -25 192 -10 232 6 15 37 41 80 66 88 53 177 67 311 52 79 -10 95 -15 149 -52 33 -23 63 -50 67 -62 3 -11 5 -303 3 -649 l-4 -627 23 -25 c25 -27 140 -61 183 -55 46 6 49 29 48 408 -2 657 -13 1062 -29 1091 -8 14 -24 40 -35 59 -35 59 -122 138 -192 174 -97 50 -151 59 -332 54 -147 -4 -159 -6 -211 -33 -30 -15 -74 -45 -98 -66 -24 -20 -57 -42 -73 -48 -28 -10 -34 -7 -66 24 -21 21 -60 42 -98 55 -35 12 -69 27 -75 35 -23 28 -119 37 -335 33 -206 -4 -212 -5 -304 -37 -161 -56 -243 -54 -478 14 -78 23 -101 25 -277 24 -105 -1 -211 -5 -235 -10z m852 -393 c18 -7 59 -38 92 -68 l60 -55 3 -86 4 -85 -42 -46 c-86 -93 -182 -126 -265 -92 -46 19 -125 94 -141 133 -18 42 -18 127 0 161 21 40 84 95 160 139 28 17 89 16 129 -1z"></path><path id="pfA8j6iLI" d="M10003 12263 c-22 -18 -23 -19 -28 -423 -2 -223 -7 -595 -10 -828 l-6 -423 36 -35 c45 -43 64 -51 153 -59 65 -7 71 -6 81 14 8 15 10 250 5 872 -7 789 -9 852 -25 872 -15 19 -29 22 -101 25 -68 2 -87 -1 -105 -15z"></path><path id="pW3iY7HBt" d="M16550 11290 c-19 -17 -42 -37 -50 -45 -57 -57 -90 -94 -90 -99 0 -14 77 -105 127 -150 l55 -49 31 18 c18 10 52 37 77 61 42 40 48 43 80 35 46 -10 69 -24 101 -58 15 -16 43 -34 63 -40 35 -11 37 -10 93 43 36 35 63 71 74 100 l17 45 -73 74 c-65 66 -78 75 -110 75 -31 0 -47 -9 -91 -49 -30 -27 -68 -52 -85 -56 -28 -6 -36 -2 -69 31 -38 38 -104 94 -111 94 -2 0 -20 -14 -39 -30z"></path><path id="pTEuQsqN5" d="M8452 11233 c-9 -13 -30 -37 -46 -51 -15 -15 -39 -48 -51 -73 l-24 -46 72 -76 c66 -70 76 -77 111 -77 32 0 47 8 92 49 30 27 68 52 85 56 28 6 36 3 64 -26 18 -19 49 -47 69 -64 20 -16 39 -32 41 -34 6 -5 82 59 140 119 39 39 51 59 45 70 -15 29 -170 180 -184 180 -20 0 -105 -73 -128 -109 l-20 -31 -51 26 c-29 14 -65 41 -82 59 -20 23 -44 37 -73 44 -39 8 -44 7 -60 -16z"></path><path id="pDH2rgsuO" d="M3141 10978 c-27 -24 -53 -51 -56 -61 -4 -10 -21 -34 -37 -53 l-31 -35 34 -34 c19 -19 43 -44 54 -55 11 -12 37 -35 57 -51 l38 -31 31 26 c17 14 35 26 40 26 5 0 27 19 48 41 34 37 41 41 70 34 19 -4 52 -26 76 -50 32 -31 54 -44 85 -49 38 -6 46 -3 87 30 25 20 58 54 73 76 28 38 28 38 11 82 -22 59 -115 150 -145 142 -11 -3 -27 -6 -34 -6 -7 0 -34 -20 -60 -44 -31 -28 -60 -46 -85 -50 -36 -7 -42 -4 -88 39 -44 41 -84 65 -109 65 -5 0 -32 -19 -59 -42z"></path><path id="p15HvcyYQn" d="M7292 10835 l-81 -86 22 -35 c20 -33 133 -154 143 -154 22 0 77 36 114 74 36 38 51 46 80 46 29 0 44 -8 79 -44 24 -24 60 -52 81 -61 l38 -17 54 53 c29 30 64 73 76 97 l22 44 -26 31 c-15 18 -49 56 -75 85 l-49 54 -51 -31 c-27 -17 -64 -47 -81 -67 -27 -31 -36 -35 -72 -32 -35 3 -44 9 -69 46 -25 37 -88 82 -115 82 -5 0 -46 -38 -90 -85z"></path><path id="pS3gmBaBH" d="M8675 10849 c-46 -23 -83 -56 -136 -122 l-39 -49 17 -30 c27 -44 136 -146 167 -154 32 -8 54 0 63 23 4 9 25 35 47 58 45 46 86 94 86 102 0 7 -45 61 -110 131 l-55 60 -40 -19z"></path><path id="plzxSdz3e" d="M11622 10586 l-70 -64 -50 24 c-27 13 -62 40 -77 60 -26 35 -30 36 -72 30 -37 -5 -54 -15 -97 -59 -43 -44 -54 -62 -59 -98 -6 -42 -4 -46 36 -85 23 -23 50 -51 60 -62 10 -11 37 -23 59 -26 39 -6 44 -4 87 37 50 49 80 67 108 67 10 -1 49 -30 87 -65 l70 -64 27 20 c15 10 31 19 37 19 5 0 33 27 62 61 45 51 51 64 46 90 -12 62 -126 179 -174 179 -6 0 -42 -29 -80 -64z"></path><path id="p80sPJagm" d="M5664 10572 c-28 -26 -70 -68 -93 -93 l-41 -47 40 -53 c37 -49 133 -139 148 -139 8 0 105 97 156 156 l36 41 -91 92 c-50 50 -94 91 -97 91 -4 -1 -30 -22 -58 -48z"></path><path id="pnE6k8Qy0" d="M12766 10188 c-21 -18 -53 -48 -72 -65 -19 -18 -42 -33 -52 -33 -25 0 -72 31 -112 73 -29 31 -41 37 -76 37 -39 0 -46 -5 -112 -74 l-71 -75 17 -44 c11 -27 38 -65 71 -96 45 -43 59 -51 91 -51 54 0 68 7 86 47 15 31 75 73 104 73 6 0 33 -22 61 -50 27 -27 64 -57 80 -66 30 -15 31 -15 82 33 45 41 75 76 122 139 7 10 1 23 -22 46 -58 61 -144 138 -152 138 -4 0 -24 -15 -45 -32z"></path><path id="plYYCools" d="M9699 9645 c-60 -62 -112 -105 -128 -105 -21 0 -97 49 -130 84 -18 19 -35 26 -61 26 -33 0 -45 -8 -108 -74 l-71 -75 17 -43 c10 -25 40 -68 70 -97 49 -49 56 -53 89 -48 24 4 51 20 77 46 41 38 94 71 117 71 7 0 36 -26 65 -59 72 -79 92 -82 157 -23 45 39 70 69 122 138 9 13 -19 50 -79 102 -11 9 -36 32 -56 50 -21 17 -42 32 -47 32 -5 0 -21 -11 -34 -25z"></path><path id="pwzUPWsQW" d="M12465 9596 c-44 -7 -94 -20 -112 -29 -17 -9 -56 -26 -87 -38 -31 -11 -56 -24 -56 -29 0 -5 -25 -25 -54 -45 -31 -21 -68 -56 -85 -83 -17 -26 -41 -58 -55 -72 -16 -16 -30 -49 -40 -90 -8 -36 -22 -85 -30 -109 -20 -56 -21 -212 -2 -272 8 -24 22 -82 32 -128 10 -48 28 -98 42 -119 13 -20 31 -54 38 -76 15 -42 103 -136 128 -136 8 0 20 9 26 20 6 11 29 32 51 46 41 25 41 26 34 72 -3 26 -19 65 -34 88 -40 57 -52 126 -52 286 1 104 4 145 16 168 28 53 134 158 173 171 20 6 56 22 78 36 92 52 287 52 449 -2 39 -13 87 -27 108 -30 21 -4 63 -25 95 -46 31 -21 62 -39 69 -39 21 0 43 -44 43 -87 0 -34 -5 -46 -26 -60 -14 -10 -39 -29 -55 -42 -16 -12 -49 -31 -73 -40 -68 -25 -150 -107 -171 -170 -20 -62 -14 -177 14 -252 23 -60 88 -147 146 -195 26 -22 60 -51 77 -66 16 -15 43 -30 60 -33 16 -4 51 -20 77 -36 87 -54 269 -64 361 -21 64 31 134 85 139 108 1 10 13 33 26 49 34 45 52 86 60 132 3 22 17 55 30 73 13 18 32 55 42 82 24 67 117 157 165 160 92 4 120 -3 170 -46 53 -45 63 -67 78 -171 14 -99 55 -234 78 -258 19 -19 23 -19 97 -4 42 9 83 21 91 28 19 16 18 97 -2 167 -23 79 -14 143 32 209 43 63 77 77 189 78 77 0 83 -2 139 -39 74 -49 91 -85 83 -176 -12 -137 -26 -201 -50 -243 -14 -23 -32 -68 -42 -99 -9 -31 -25 -68 -36 -82 l-20 -26 42 -49 c44 -50 86 -73 163 -86 50 -8 70 10 92 83 9 31 25 74 36 96 12 23 33 112 50 210 33 193 32 226 -9 401 l-26 110 -66 65 c-106 105 -225 151 -386 149 -84 0 -202 -23 -223 -42 -10 -9 -44 -26 -75 -36 -65 -23 -87 -18 -206 42 -63 31 -69 32 -190 32 -121 0 -128 -1 -180 -30 -58 -32 -151 -117 -151 -139 0 -7 -14 -33 -30 -58 -17 -25 -39 -70 -49 -99 -10 -30 -30 -77 -43 -104 -14 -28 -28 -62 -32 -77 -8 -35 -51 -85 -89 -105 -24 -12 -49 -14 -113 -10 -92 7 -123 17 -206 71 -57 36 -58 37 -58 84 0 26 4 52 8 58 13 18 147 104 164 104 9 0 41 21 73 47 41 34 64 63 81 100 35 80 38 112 16 163 -10 25 -25 68 -32 95 -19 70 -111 178 -194 229 -17 10 -36 26 -43 36 -7 9 -27 23 -45 30 -18 8 -51 26 -73 41 -22 16 -76 37 -122 48 -45 11 -93 27 -105 35 -51 33 -280 44 -433 22z"></path><path id="pW6qYbtpd" d="M2830 9583 c-37 -19 -51 -50 -82 -190 l-14 -62 25 -10 c14 -6 69 -16 121 -22 72 -8 112 -19 165 -44 39 -19 82 -37 96 -40 15 -4 57 -31 93 -62 63 -52 67 -57 60 -87 -9 -44 -7 -43 -76 -49 -35 -4 -108 -14 -163 -24 -85 -15 -107 -23 -145 -53 -67 -53 -128 -120 -140 -154 -7 -17 -22 -49 -33 -71 -19 -34 -22 -60 -25 -181 -4 -129 -2 -145 18 -184 12 -24 28 -64 36 -90 18 -59 119 -189 165 -212 143 -71 150 -73 243 -71 69 1 95 6 115 20 14 11 52 32 84 47 45 22 66 39 87 75 16 25 40 61 54 79 14 19 35 64 47 100 12 37 25 72 29 77 17 22 31 96 40 214 13 164 10 161 154 161 124 0 266 -20 311 -44 17 -9 35 -16 41 -16 5 0 23 -13 38 -29 26 -27 27 -31 15 -70 -7 -23 -23 -52 -36 -65 -13 -13 -37 -51 -52 -83 -16 -32 -36 -65 -45 -72 -9 -8 -23 -38 -32 -67 -8 -30 -20 -57 -26 -60 -6 -4 -25 -39 -44 -78 -19 -39 -44 -83 -56 -98 -26 -33 -34 -110 -23 -225 7 -74 9 -78 55 -127 34 -36 64 -57 102 -70 29 -11 60 -25 69 -33 9 -7 44 -24 79 -38 35 -14 71 -32 80 -40 9 -8 45 -27 81 -41 35 -14 73 -34 84 -45 12 -10 48 -28 80 -39 32 -11 68 -29 80 -39 11 -10 33 -21 48 -25 75 -18 137 -48 137 -67 0 -14 7 -19 30 -19 21 0 30 5 30 16 0 9 7 22 16 28 20 15 44 114 44 182 0 60 -16 78 -74 87 -21 4 -55 17 -75 31 -20 13 -61 29 -91 36 -30 7 -82 27 -115 45 -33 18 -84 38 -113 45 -29 7 -65 22 -80 35 -15 12 -51 30 -81 40 -52 17 -86 43 -119 93 -13 20 -13 24 1 40 9 10 26 40 38 67 12 28 32 64 44 80 13 17 28 46 34 66 6 19 27 59 46 89 19 30 35 62 35 71 0 10 11 30 24 46 13 15 36 53 51 83 15 30 35 64 44 75 10 11 30 41 45 67 29 51 91 104 162 138 38 19 63 22 193 23 149 2 150 2 178 -24 15 -15 39 -34 53 -42 29 -19 102 -157 127 -242 l18 -60 66 -3 c127 -6 156 30 142 175 -10 98 -2 121 63 165 30 20 56 28 114 33 106 10 154 -5 209 -63 64 -69 73 -93 87 -237 7 -71 18 -139 25 -151 13 -25 47 -34 124 -34 42 0 57 5 80 25 l27 26 -8 102 c-5 56 -8 129 -6 161 2 58 4 62 58 115 l55 55 92 1 c118 0 145 -14 205 -112 l44 -72 12 -165 c7 -96 17 -170 24 -179 26 -31 192 -28 214 4 5 8 7 62 3 124 -3 61 -6 154 -6 208 -1 90 0 100 22 124 54 58 91 67 249 66 101 -1 157 -6 185 -16 103 -39 161 -68 174 -87 29 -44 14 -244 -25 -326 -13 -28 -33 -77 -44 -108 -10 -31 -31 -72 -46 -91 l-27 -35 49 -49 c53 -53 95 -74 165 -85 57 -8 74 7 90 84 6 30 25 80 41 111 19 38 31 81 38 135 5 43 16 124 24 178 13 87 13 109 1 180 -24 134 -42 181 -94 243 -26 32 -54 63 -62 70 -23 19 -158 73 -219 89 -140 35 -441 26 -500 -15 -14 -10 -50 -29 -80 -43 l-55 -25 -53 18 c-29 10 -69 27 -90 38 -60 31 -99 41 -201 47 -132 8 -209 -6 -294 -56 -61 -35 -75 -39 -111 -33 -22 3 -71 21 -107 40 -78 41 -177 58 -292 50 -69 -5 -90 -11 -175 -55 l-98 -49 -49 19 c-28 10 -72 30 -100 43 -86 42 -269 56 -456 35 -66 -8 -107 -19 -175 -51 -48 -22 -101 -52 -117 -65 -36 -31 -58 -30 -96 2 -29 24 -143 68 -261 100 -36 10 -127 17 -265 21 -232 6 -235 7 -256 72 -27 83 -212 294 -288 328 -19 8 -49 25 -65 38 -17 12 -42 26 -56 30 -14 4 -54 20 -90 35 -88 38 -173 47 -220 23z m551 -854 c20 -20 21 -28 15 -122 -7 -91 -10 -106 -42 -157 -19 -30 -34 -61 -34 -67 0 -15 -78 -79 -113 -92 -68 -26 -126 -11 -193 51 -86 79 -108 180 -59 264 39 66 138 121 241 132 135 16 162 14 185 -9z"></path><path id="pIqvmeXaE" d="M8138 9589 c-10 -5 -18 -18 -18 -28 0 -10 -14 -39 -32 -66 -35 -52 -50 -143 -29 -169 7 -9 43 -17 94 -21 45 -4 105 -15 132 -25 135 -48 206 -80 232 -104 15 -14 41 -36 57 -49 26 -21 28 -28 22 -60 -5 -27 -13 -38 -29 -41 -12 -2 -67 -12 -122 -21 -151 -25 -191 -35 -211 -54 -11 -9 -39 -30 -64 -47 -25 -16 -46 -38 -49 -49 -2 -10 -18 -40 -36 -67 -56 -81 -73 -253 -41 -418 18 -94 77 -209 139 -272 62 -63 189 -118 291 -125 66 -5 75 -3 136 30 36 19 77 37 92 41 17 4 37 21 52 44 13 20 33 45 44 56 12 10 24 30 27 46 3 15 22 51 40 81 19 29 35 58 35 64 0 13 48 321 56 357 4 21 16 31 50 44 67 25 228 8 304 -33 49 -27 59 -38 93 -104 33 -64 40 -89 52 -193 9 -80 19 -124 29 -135 13 -12 34 -15 94 -13 66 3 80 6 98 26 20 23 21 32 16 169 -2 80 -2 156 2 170 4 16 28 40 68 67 57 38 71 43 157 52 69 7 114 7 170 -2 104 -16 131 -30 166 -80 l30 -43 -4 -628 -4 -627 37 -32 c20 -18 36 -41 36 -51 0 -17 8 -19 99 -19 l99 0 6 93 c4 50 3 369 -2 707 l-8 615 -42 95 c-28 61 -60 114 -90 147 -46 50 -61 58 -217 121 -31 12 -77 16 -200 16 -159 1 -160 0 -232 -32 -39 -17 -77 -32 -83 -32 -6 0 -30 -18 -52 -41 -35 -36 -45 -40 -72 -35 -17 3 -42 15 -56 26 -14 11 -36 25 -50 32 -14 6 -47 21 -75 34 -86 38 -125 46 -289 51 l-158 6 -35 30 c-19 17 -47 58 -63 91 -50 104 -167 228 -265 280 -27 15 -66 36 -85 47 -44 24 -154 68 -200 80 -47 12 -121 11 -142 -2z m559 -860 c11 -4 23 -12 26 -16 8 -12 -17 -146 -43 -232 -29 -99 -96 -173 -171 -191 -71 -17 -114 -6 -175 47 -54 47 -69 80 -76 173 -4 49 21 128 46 146 102 72 116 78 215 84 96 7 137 5 178 -11z"></path><path id="piQCWdAyH" d="M15534 9538 c-15 -29 -39 -67 -54 -84 -32 -37 -50 -121 -28 -135 7 -5 36 -16 65 -24 29 -8 55 -20 59 -26 4 -6 39 -26 79 -44 40 -19 76 -38 80 -44 3 -6 25 -21 48 -32 23 -12 59 -37 80 -55 20 -19 41 -34 46 -34 11 0 127 -116 148 -147 8 -12 21 -45 28 -75 13 -46 12 -59 -2 -107 -8 -30 -28 -81 -44 -115 -16 -33 -36 -93 -45 -133 -9 -40 -20 -76 -25 -79 -13 -8 29 -60 72 -89 20 -15 65 -35 98 -45 l62 -19 20 32 c10 18 19 39 19 47 0 8 14 44 31 78 16 34 34 87 39 117 5 30 13 62 19 72 18 34 106 112 141 126 87 36 319 28 505 -18 55 -13 118 -27 140 -31 65 -11 111 -39 124 -75 16 -47 15 -54 -28 -127 -58 -99 -97 -144 -264 -309 -16 -15 -41 -35 -56 -43 -53 -29 -150 -115 -158 -140 -12 -38 -6 -130 11 -178 25 -68 73 -122 136 -150 30 -14 66 -35 80 -47 14 -12 48 -30 76 -39 29 -9 59 -25 69 -36 10 -11 46 -29 81 -40 35 -12 64 -26 64 -31 0 -13 48 -35 107 -49 29 -6 64 -21 78 -31 13 -11 48 -27 77 -35 70 -21 108 -44 108 -66 0 -15 8 -18 43 -18 l44 0 11 51 c7 28 15 88 18 133 6 75 5 84 -14 102 -12 11 -42 25 -68 32 -26 7 -59 21 -73 31 -14 9 -56 25 -92 35 -36 10 -81 27 -100 38 -19 11 -56 29 -84 38 -27 9 -67 29 -88 43 -21 14 -62 33 -91 41 -78 23 -83 34 -45 95 18 28 35 51 39 51 11 0 130 119 130 129 0 6 17 30 38 54 64 77 114 150 128 189 7 21 24 57 38 80 13 24 30 72 36 108 12 66 7 191 -10 235 -11 30 -99 145 -110 145 -5 0 -37 19 -72 43 -50 35 -82 48 -158 64 -52 12 -126 29 -165 38 -54 13 -122 17 -300 19 -220 1 -232 0 -274 -21 -55 -28 -53 -28 -101 2 -27 17 -49 43 -69 83 -44 86 -248 289 -340 336 -20 10 -47 28 -61 41 -14 12 -48 30 -76 39 -29 9 -60 26 -69 36 -14 15 -31 20 -71 20 l-54 0 -26 -52z"></path><path id="pFFmeGjdq" d="M10933 9053 c-12 -2 -26 -10 -32 -17 -8 -9 -13 -273 -18 -844 -6 -759 -5 -833 10 -855 9 -14 26 -28 37 -32 11 -3 20 -15 20 -26 0 -17 8 -19 94 -19 l94 0 4 43 c2 23 1 364 -3 757 -4 393 -8 771 -8 840 l-1 126 -29 17 c-28 16 -110 21 -168 10z"></path><path id="pzmoznXSO" d="M7404 7661 c-28 -25 -68 -65 -88 -88 l-38 -43 24 -31 c50 -67 149 -161 165 -155 8 3 19 6 25 6 18 0 131 115 145 150 l15 34 -69 63 c-89 84 -106 98 -118 105 -5 3 -33 -15 -61 -41z"></path></g></g></svg>