<svg width="996" height="159" viewBox="0 0 996 159" fill="none" xmlns="http://www.w3.org/2000/svg">
<g clip-path="url(#clip0_3_1605)">
<path d="M158.54 0H0V158.53H158.54V0Z" fill="#780A47"/>
<path d="M158.54 158.53H0V0H158.53V158.53H158.54ZM1.96 156.57H156.58V1.96H1.96V156.58V156.57Z" fill="white"/>
<path d="M855.02 126.68C851.35 126.68 848.16 124.94 846.22 121.79C844.63 119.21 844.3 116.16 844.1 113.26C843.73 107.89 843.65 102.44 843.87 97.0598L845.98 97.1498C845.77 102.45 845.84 107.82 846.21 113.12C846.39 115.76 846.69 118.52 848.02 120.69C849.89 123.72 853.1 125.08 856.82 124.41C861.08 123.65 864.6 120.41 865.38 116.54C865.63 115.3 866.09 113.78 867.44 112.98C868.05 112.62 868.72 112.5 869.17 112.45C870.82 112.25 872.54 112.33 874.2 112.4C874.95 112.43 875.69 112.47 876.41 112.47L884.57 112.54L884.55 114.65L876.39 114.58C875.64 114.58 874.88 114.54 874.11 114.51C872.53 114.44 870.91 114.37 869.42 114.55C869.01 114.6 868.72 114.68 868.51 114.8C867.88 115.17 867.62 116.14 867.45 116.95C866.49 121.73 862.37 125.56 857.19 126.48C856.45 126.61 855.73 126.68 855.02 126.68Z" fill="white"/>
<path d="M907.83 72.0598L905.72 71.9598C905.76 71.0998 905.69 70.2198 905.62 69.2998C905.56 68.4798 905.49 67.6298 905.5 66.7798C905.52 65.7598 905.56 64.7298 905.6 63.7098C905.64 62.6098 905.69 61.5098 905.7 60.3998C905.75 56.0998 905.62 51.7398 905.31 47.4498C905.06 43.9198 904.41 40.2698 901.35 37.5298C898.69 35.1398 895.17 35.2198 891.17 35.5498C879.86 36.4898 873.44 36.4798 867.49 35.5098C854.66 33.4398 849.1 33.9298 839.88 34.7398C838.26 34.8798 836.54 35.0298 834.65 35.1798L834.48 33.0698C836.36 32.9198 838.08 32.7698 839.69 32.6298C849.07 31.8098 854.74 31.3098 867.82 33.4198C873.59 34.3498 879.87 34.3598 890.99 33.4398C895.31 33.0798 899.48 33.0098 902.76 35.9598C906.37 39.1998 907.13 43.3298 907.41 47.3098C907.72 51.6598 907.85 56.0698 907.8 60.4298C907.79 61.5498 907.74 62.6698 907.7 63.7998C907.66 64.8098 907.62 65.8098 907.6 66.8198C907.59 67.5798 907.65 68.3398 907.71 69.1398C907.78 70.0898 907.86 71.0698 907.81 72.0598H907.83Z" fill="white"/>
<path d="M1040.86 107.89C1032.05 107.89 1021.55 104.56 1018.54 95.2098C1017 90.4398 1016.99 88.4098 1019.83 83.2398C1019.99 82.9498 1020.15 82.6698 1020.31 82.3998C1020.67 81.7798 1020.99 81.2198 1021.23 80.6298C1020.85 81.0198 1020.49 81.5098 1020.21 81.8898C1019.23 83.2298 1018.42 84.5998 1017.51 86.2698C1015.58 89.7798 1008.41 90.6098 1001.24 91.1598C1000.22 91.2398 999.35 91.2998 998.71 91.3798C991.74 92.2098 984.69 92.2898 977.88 92.3698C975.81 92.3898 973.74 92.4198 971.66 92.4598C965.44 92.5898 959.11 92.6198 952.99 92.6498C950.7 92.6598 948.42 92.6698 946.13 92.6898C944.38 92.6998 942.62 92.7498 940.84 92.7998C936.45 92.9098 931.91 93.0398 927.53 92.6298C925.93 92.4798 924.28 92.2098 922.69 91.9598C915.53 90.7998 909.35 89.8098 907.08 98.2998L905.04 97.7598C907.8 87.4198 915.89 88.7298 923.03 89.8698C924.59 90.1198 926.2 90.3798 927.73 90.5298C931.98 90.9298 936.46 90.8098 940.79 90.6998C942.58 90.6498 944.36 90.6098 946.12 90.5898C948.41 90.5698 950.69 90.5598 952.98 90.5498C959.09 90.5198 965.41 90.4898 971.61 90.3598C973.69 90.3198 975.77 90.2898 977.85 90.2698C984.61 90.1898 991.6 90.1098 998.45 89.2998C999.11 89.2198 1000.01 89.1498 1001.07 89.0698C1005.3 88.7498 1014.11 88.0798 1015.64 85.2698C1016.6 83.5298 1017.44 82.0898 1018.44 80.7198C1019.18 79.7098 1020.13 78.4098 1021.49 77.9898C1022.09 77.7998 1022.73 77.9398 1023.15 78.3398C1023.61 78.7798 1023.75 79.3998 1023.56 80.1998C1023.27 81.4798 1022.68 82.4898 1022.11 83.4698C1021.96 83.7298 1021.81 83.9898 1021.66 84.2698C1019.1 88.9498 1019.15 90.2998 1020.53 94.5798C1023.2 102.86 1033.13 105.8 1040.83 105.8C1047.79 105.8 1054.35 104.48 1060.32 101.89C1064.11 100.23 1066.71 98.2198 1068.05 95.9198C1069.26 93.7898 1069.87 90.4898 1069.87 86.1198C1069.87 81.1898 1068.92 76.8898 1067.05 73.3398C1066.47 72.3198 1065.64 70.8998 1064.58 69.1098L1066.4 68.0298C1067.47 69.8298 1068.31 71.2698 1068.91 72.3298C1070.96 76.2198 1071.99 80.8498 1071.99 86.1298C1071.99 90.9398 1071.3 94.4898 1069.89 96.9798C1068.32 99.6898 1065.39 101.99 1061.17 103.84C1054.92 106.55 1048.08 107.93 1040.83 107.93L1040.86 107.89Z" fill="white"/>
<path d="M901.67 98.3997L899.6 97.9497C899.72 97.4197 899.76 97.0397 899.81 96.6297C899.87 96.1197 899.95 95.5397 900.14 94.6597C900.22 94.3197 900.31 93.9497 900.41 93.5497C900.51 93.1397 900.63 92.6997 900.73 92.2297L901.28 89.7897C901.37 89.3897 901.49 88.9797 901.62 88.5697C901.73 88.1797 901.85 87.7897 901.95 87.3797C902.03 87.0197 902.1 86.6497 902.17 86.2697C902.25 85.8297 902.33 85.3797 902.44 84.9297C902.54 84.5197 902.66 84.0997 902.78 83.6797C902.89 83.2997 903 82.9097 903.1 82.5097C903.21 82.0697 903.32 81.6197 903.43 81.1597L903.7 80.0797C903.81 79.6497 903.92 79.2197 904.03 78.7897L904.93 75.2197C905.02 74.8597 905.07 74.4897 905.12 74.1197C905.18 73.6697 905.24 73.2097 905.36 72.7397C905.47 72.2997 905.6 71.8697 905.73 71.4397C905.84 71.0697 905.96 70.6997 906.06 70.3197C906.28 69.4997 906.49 68.6897 906.71 67.8897C906.83 67.4397 907 66.9997 907.16 66.5597C907.29 66.2097 907.42 65.8597 907.52 65.5097C907.62 65.1397 907.68 64.7697 907.74 64.3997C907.81 63.9597 907.89 63.4997 908.02 63.0397C908.25 62.2497 908.49 61.4897 908.72 60.7497L908.83 60.3997C909.07 59.6397 909.29 58.9097 909.52 58.2197C909.7 57.6897 909.92 57.1997 910.13 56.7397C910.26 56.4397 910.4 56.1597 910.5 55.8697L910.76 55.1497C910.98 54.5397 911.19 53.9597 911.43 53.4597C911.8 52.6897 912.18 51.9197 912.59 51.1797C913.01 50.4297 913.44 49.6897 913.88 48.9797C914.21 48.4497 914.57 47.9397 914.93 47.4297L915.59 46.4797C915.99 45.8997 916.38 45.3297 916.79 44.7897C917.13 44.3397 917.51 43.9297 917.87 43.5397C918.08 43.3197 918.28 43.0997 918.47 42.8697C918.69 42.6097 918.9 42.3397 919.11 42.0797C919.44 41.6497 919.76 41.2497 920.1 40.8897C920.67 40.2997 921.23 39.8297 921.73 39.4197L922.05 39.1597C923.35 38.0597 924.41 37.4197 925.31 37.8797C925.62 38.0397 926.42 38.4497 926.48 41.3697C926.49 42.0197 926.46 42.7497 926.43 43.5097L926.4 44.1197C926.39 44.4497 926.38 44.7797 926.37 45.1097C926.35 45.6897 926.34 46.2697 926.3 46.8397C926.27 47.3797 926.18 47.8997 926.1 48.4097C926.04 48.7997 925.98 49.1697 925.95 49.5197C925.87 50.6897 925.94 51.5997 925.97 51.9797C926.04 52.8897 925.42 53.4797 924.55 53.9797C925.1 54.1797 925.58 54.6197 925.7 55.5697C925.75 56.0097 925.7 56.6197 925.64 57.3997L925.58 58.0997C925.56 58.3497 925.55 58.6097 925.55 58.8697C925.53 59.4197 925.52 59.9897 925.41 60.5497C925.23 61.5197 924.84 62.7797 924.02 63.2997C923.75 63.4697 923.5 63.5797 923.26 63.6597C923.57 64.5697 923.61 66.8597 922.06 73.0097C922.16 72.9497 922.27 72.8897 922.37 72.8297C924.96 71.2697 929.78 68.3697 936.63 68.5797C937.37 68.5997 938.23 68.5797 939.04 68.5797C940.27 68.5597 941.33 68.5397 941.95 68.6397C954.03 70.6297 966.46 69.5297 978.48 68.4697C984.45 67.9397 990.62 67.3997 996.68 67.2397C1010.87 66.8597 1025.34 67.4597 1039.33 68.0397C1043.85 68.2297 1048.36 68.4097 1052.87 68.5697C1059.14 68.7997 1064.28 64.7097 1068.15 56.4597L1070.07 57.3597C1065.86 66.3197 1059.87 70.9197 1052.8 70.6797C1048.29 70.5197 1043.77 70.3397 1039.25 70.1497C1025.29 69.5697 1010.86 68.9697 996.74 69.3497C990.74 69.5097 984.6 70.0497 978.67 70.5797C966.52 71.6497 953.95 72.7597 941.61 70.7297C941.18 70.6597 940.11 70.6797 939.08 70.6897C938.23 70.6997 937.34 70.7197 936.57 70.6897C930.35 70.4797 925.88 73.1897 923.47 74.6397C921.96 75.5497 921.05 76.0897 920.22 75.4697C919.41 74.8597 919.7 73.7497 919.85 73.1497C920.26 71.5597 921.39 66.3097 921.38 64.7397C921.13 64.6597 920.83 64.5997 920.6 64.5597C919.94 64.4197 919.11 64.2497 919.05 63.3597C919.03 63.0297 919.13 62.4397 920.02 62.1297C920.87 61.8297 921.5 61.7897 921.97 61.7497C922.41 61.7197 922.62 61.6997 922.91 61.5197C922.93 61.4797 923.18 61.0697 923.35 60.1697C923.42 59.7697 923.44 59.3097 923.45 58.8197C923.45 58.5297 923.47 58.2397 923.49 57.9597L923.55 57.2397C923.59 56.7697 923.63 56.2497 923.63 55.9697C923.53 55.9697 923.38 55.9697 923.17 55.9997C923 56.0097 922.81 56.0397 922.61 56.0597C922.16 56.1197 921.64 56.1797 921.04 56.1997C920.13 56.2397 919.57 55.9197 919.42 55.2797C919.17 54.2297 920.08 53.8197 922.05 52.8997L922.31 52.7797C922.79 52.5597 923.55 52.2097 923.87 51.9697C923.83 51.4197 923.79 50.5197 923.87 49.4097C923.9 48.9997 923.97 48.5597 924.04 48.1097C924.11 47.6697 924.19 47.2197 924.21 46.7497C924.24 46.2097 924.26 45.6497 924.27 45.0997C924.27 44.7597 924.29 44.4197 924.3 44.0897L924.33 43.4697C924.36 42.7497 924.39 42.0697 924.38 41.4597C924.37 40.8997 924.32 40.4797 924.27 40.1797C924.07 40.3197 923.79 40.5297 923.43 40.8297L923.1 41.0997C922.65 41.4697 922.14 41.8997 921.65 42.4097C921.36 42.7097 921.09 43.0597 920.8 43.4297C920.58 43.7097 920.35 43.9997 920.11 44.2897C919.9 44.5297 919.68 44.7797 919.45 45.0197C919.13 45.3697 918.8 45.7297 918.49 46.1197C918.1 46.6297 917.73 47.1697 917.35 47.7197L916.68 48.6897C916.35 49.1597 916.01 49.6397 915.7 50.1397C915.27 50.8197 914.86 51.5297 914.47 52.2497C914.08 52.9597 913.72 53.6897 913.37 54.4197C913.17 54.8297 912.99 55.3397 912.78 55.9197L912.51 56.6597C912.39 56.9797 912.24 57.3097 912.08 57.6497C911.9 58.0497 911.7 58.4697 911.55 58.9297C911.32 59.5997 911.1 60.3197 910.87 61.0697L910.76 61.4197C910.53 62.1497 910.3 62.8997 910.07 63.6797C909.97 64.0297 909.91 64.3997 909.85 64.7797C909.78 65.2297 909.7 65.6897 909.58 66.1297C909.46 66.5397 909.32 66.9397 909.16 67.3497C909.02 67.7297 908.88 68.0997 908.77 68.4997C908.55 69.2897 908.34 70.0997 908.12 70.9097C908.01 71.3097 907.9 71.6997 907.78 72.0997C907.66 72.4997 907.54 72.9097 907.43 73.3197C907.34 73.6797 907.29 74.0597 907.24 74.4397C907.18 74.8997 907.12 75.3497 907.01 75.7897L906.11 79.3697C906 79.7897 905.89 80.2097 905.79 80.6297L905.52 81.7297C905.41 82.1697 905.3 82.6197 905.19 83.0497C905.09 83.4797 904.97 83.8997 904.84 84.3097C904.73 84.6997 904.62 85.0797 904.53 85.4597C904.43 85.8797 904.35 86.2897 904.28 86.6997C904.2 87.1097 904.13 87.5197 904.04 87.9097C903.93 88.3597 903.81 88.7897 903.68 89.2197C903.57 89.5897 903.46 89.9597 903.38 90.3197L902.83 92.7497C902.72 93.2397 902.6 93.6997 902.5 94.1197C902.4 94.4997 902.32 94.8497 902.24 95.1697C902.07 95.9497 902 96.4497 901.94 96.9297C901.88 97.3997 901.83 97.8397 901.69 98.4397L901.67 98.3997Z" fill="white"/>
<path d="M900.72 127.31C900.66 127.31 900.59 127.31 900.53 127.31C900.04 127.31 899.55 127.27 899.06 127.24C898.72 127.22 898.38 127.2 898.05 127.19C897.67 127.18 897.3 127.19 896.93 127.19C896.47 127.19 896.01 127.19 895.58 127.17C895.02 127.14 894.48 127.09 893.99 127.04C893.68 127.01 893.39 126.98 893.12 126.96C892 126.88 891.09 126.77 890.6 126.7C889.9 126.59 889.02 126.08 887.98 125.18C887.25 124.55 886.64 123.94 886.11 123.3C885.63 122.72 885.16 122.05 884.6 121.13C884.17 120.41 883.68 119.6 883.38 118.7C883.06 117.73 882.94 116.76 883.02 115.83C883.09 115.01 883.26 114.15 883.54 113.27C883.78 112.51 884.12 111.76 884.46 111.05L884.51 110.93C884.87 110.17 885.21 109.42 885.65 108.7C886.08 107.99 886.56 107.35 887.02 106.73C887.58 105.98 888.13 105.33 888.71 104.73C889.32 104.09 889.81 103.63 890.26 103.28C890.16 103.01 889.99 102.62 889.86 102.34C889.73 102.06 889.6 101.76 889.48 101.48C889.13 100.62 888.84 99.6198 889.34 98.7798C889.67 98.2098 890.26 97.8798 891.09 97.7798C891.8 97.6898 892.68 97.5998 893.76 97.5798C894.18 97.5798 894.63 97.5898 895.1 97.6198C895.5 97.6398 895.95 97.6498 896.36 97.6598C896.73 97.6598 897.11 97.6398 897.5 97.6298C897.97 97.6098 898.47 97.5898 898.95 97.5998H900.09C900.57 97.5998 901.06 97.5998 901.54 97.5998C902.02 97.5998 902.5 97.6398 902.96 97.6798C903.35 97.7098 903.74 97.7398 904.12 97.7498C904.6 97.7498 905.05 97.7498 905.48 97.7298C905.91 97.7198 906.32 97.6998 906.71 97.7198C907.75 97.7398 908.57 97.7298 909.03 97.7298H909.27C910.26 97.7298 911.3 98.3598 911.99 99.3898C912.6 100.29 912.8 101.38 912.56 102.38C912.41 102.99 912.08 103.56 911.59 104.06C911.89 104.21 912.26 104.43 912.64 104.82L913.06 105.24C913.47 105.65 913.92 106.09 914.36 106.58L914.5 106.74C914.99 107.29 915.5 107.86 915.96 108.48C916.43 109.11 916.96 109.85 917.37 110.61C917.89 111.58 918.18 112.48 918.25 113.29C918.32 114.12 918.25 115.09 918.16 116.03C918.09 116.93 918 117.81 917.79 118.73C917.61 119.51 917.32 120.32 916.87 121.33C916.52 122.12 916.1 123.02 915.47 123.8C914.92 124.49 914.2 125.08 913.23 125.67C912.57 126.07 911.65 126.56 910.51 126.77C909.94 126.87 909.34 126.92 908.72 126.97L907.98 127.03C907.19 127.1 906.35 127.16 905.49 127.2L904.8 127.23C904.21 127.26 903.61 127.29 903.01 127.3C902.68 127.3 902.34 127.32 902 127.33C901.57 127.35 901.14 127.36 900.72 127.36V127.31ZM897.27 125.06C897.55 125.06 897.84 125.06 898.13 125.07C898.48 125.08 898.84 125.11 899.2 125.13C899.65 125.16 900.1 125.19 900.56 125.19C901.01 125.19 901.47 125.18 901.93 125.16C902.28 125.15 902.64 125.13 902.99 125.13C903.56 125.13 904.14 125.09 904.7 125.07L905.41 125.03C906.24 124.99 907.04 124.94 907.8 124.86L908.57 124.8C909.14 124.76 909.68 124.71 910.15 124.63C910.95 124.48 911.61 124.13 912.16 123.8C912.92 123.34 913.45 122.9 913.85 122.41C914.32 121.83 914.66 121.1 914.96 120.41C915.35 119.52 915.6 118.83 915.75 118.18C915.93 117.41 916.01 116.61 916.07 115.79C916.14 114.94 916.21 114.06 916.16 113.4C916.12 112.89 915.9 112.25 915.52 111.55C915.18 110.91 914.7 110.25 914.28 109.69C913.87 109.14 913.39 108.61 912.93 108.09L912.79 107.93C912.39 107.48 911.98 107.07 911.59 106.7L911.15 106.27C910.89 106.01 910.67 105.92 910.42 105.81C909.94 105.61 909.06 105.24 909.11 103.8C909.12 103.46 909.3 103.15 909.58 102.96C910.09 102.62 910.43 102.22 910.52 101.84C910.62 101.42 910.52 100.94 910.25 100.54C909.94 100.09 909.52 99.8098 909.28 99.8098H909.05C908.58 99.8098 907.75 99.8098 906.68 99.7998C906.32 99.7998 905.95 99.7998 905.55 99.8198C905.09 99.8298 904.6 99.8498 904.1 99.8398C903.68 99.8398 903.25 99.7998 902.81 99.7698C902.39 99.7398 901.96 99.6998 901.52 99.6998C901.05 99.6998 900.58 99.6998 900.1 99.6998H898.94C898.49 99.6998 898.03 99.7098 897.59 99.7298C897.16 99.7498 896.75 99.7598 896.34 99.7598C895.88 99.7598 895.43 99.7398 895.01 99.7198C894.59 99.6998 894.2 99.6698 893.83 99.6798C892.7 99.6998 891.8 99.8098 891.36 99.8698C891.3 99.8698 891.25 99.8898 891.21 99.8998C891.23 100.02 891.28 100.26 891.45 100.69C891.56 100.95 891.68 101.22 891.79 101.48C892.32 102.66 892.93 104 891.84 104.76C891.28 105.15 890.69 105.74 890.24 106.21C889.72 106.75 889.23 107.33 888.78 107.93C888.29 108.59 887.84 109.19 887.47 109.8C887.09 110.42 886.77 111.12 886.46 111.79L886.39 111.95C886.07 112.63 885.77 113.28 885.58 113.9C885.35 114.64 885.21 115.35 885.15 116.02C885.1 116.66 885.19 117.36 885.42 118.06C885.64 118.73 886.06 119.44 886.44 120.06C886.94 120.89 887.34 121.48 887.75 121.96C888.21 122.51 888.74 123.04 889.38 123.59C890.3 124.38 890.82 124.6 890.94 124.62C891.09 124.64 891.93 124.76 893.29 124.86C893.58 124.88 893.89 124.91 894.21 124.95C894.67 125 895.17 125.05 895.7 125.07C896.1 125.09 896.51 125.08 896.94 125.09H897.28L897.27 125.06Z" fill="white"/>
<path d="M903.76 127.57C898.45 127.57 893.42 127.21 888.49 126.86C880.83 126.31 873.6 125.79 866.04 126.66L865.8 124.56C873.56 123.67 880.89 124.19 888.65 124.75C897.34 125.37 906.32 126.02 916.52 124.65C917.27 124.55 918.06 124.44 918.85 124.15L918.97 124.11C919.68 123.85 920.41 123.58 921.03 123.17C921.63 122.77 922.26 122.23 922.83 121.6C923.42 120.95 923.87 120.31 924.16 119.69C924.43 119.11 924.58 118.39 924.63 117.5C924.67 116.71 924.71 115.96 924.59 115.51C924.49 115.14 924.3 114.85 923.68 114.63C923.38 114.52 922.87 114.51 922.28 114.5H921.74C921.42 114.48 921.09 114.44 920.73 114.39C920.33 114.34 919.92 114.29 919.49 114.29C919.2 114.29 918.89 114.33 918.58 114.36C918.13 114.41 917.66 114.45 917.17 114.45V112.34C917.59 112.34 917.98 112.3 918.36 112.26C918.74 112.22 919.11 112.18 919.46 112.18C920.03 112.16 920.55 112.24 921 112.3C921.28 112.34 921.55 112.37 921.8 112.38H922.31C923.09 112.4 923.76 112.41 924.4 112.64C925.58 113.07 926.33 113.85 926.63 114.97C926.83 115.72 926.8 116.61 926.74 117.62C926.67 118.79 926.46 119.76 926.08 120.58C925.7 121.4 925.14 122.22 924.39 123.03C923.7 123.78 922.94 124.44 922.2 124.93C921.38 125.48 920.49 125.81 919.71 126.1L919.59 126.14C918.57 126.52 917.62 126.65 916.85 126.75C912.26 127.37 907.93 127.59 903.77 127.59L903.76 127.57Z" fill="white"/>
<path d="M109.55 114.65C105.15 114.65 99.6002 113.73 94.8202 112.94C91.3902 112.37 88.1402 111.83 87.0702 111.99C83.4702 112.51 55.2802 113.43 53.1202 113.25C52.8302 113.22 52.5702 113.25 52.3202 113.27C49.8802 113.45 48.5402 112.5 46.6602 106.1C45.4202 101.89 39.7002 87.7198 34.6602 75.2098C26.2502 54.3698 26.2902 54.2998 26.6502 53.6098C26.9302 53.0698 28.4602 51.0798 29.8902 51.1598C30.5002 51.1898 31.0002 51.5698 31.2302 52.1598C39.1602 72.4298 52.1102 104.99 53.9502 108.17C54.2302 108.26 54.5102 108.3 54.7702 108.33C52.9802 103.2 44.9402 82.7098 39.4302 68.6798C34.6702 56.5498 32.8602 51.9198 32.7302 51.4298C32.4702 50.4598 32.7102 49.5298 33.3902 48.9498C34.0702 48.3498 35.0902 48.2098 35.9702 48.5898C36.6802 48.8898 36.8302 48.9598 46.6402 73.8098C51.4502 85.9998 57.3802 101.01 58.8302 103.69C59.2802 103.66 59.9902 103.61 60.7602 103.56C67.9502 103.06 87.0502 101.74 92.5202 103.3C99.6402 105.32 110.85 107.32 113.38 105.81C113.53 105.72 113.62 105.63 113.64 105.55C113.64 105.53 113.62 105.39 113.42 105.15C110.96 102.2 96.4802 98.1698 89.1702 98.4198C82.9502 98.6298 70.7302 101.19 64.8602 102.43C62.7202 102.88 61.7602 103.08 61.4302 103.11C60.9602 103.17 60.5202 102.89 60.3502 102.46C53.3202 85.4198 36.9702 45.7098 36.8102 44.9598C36.6702 44.2998 37.0702 43.7198 38.2902 42.8298C39.8802 41.6598 54.5302 31.8398 79.8002 45.9998C92.1002 52.8898 98.3202 57.8898 102.43 61.1898C106.86 64.7498 108.7 66.2298 113.17 66.3898L113.09 68.4998C107.92 68.2998 105.64 66.4798 101.1 62.8298C97.0402 59.5698 90.9002 54.6398 78.7602 47.8298C55.6502 34.8798 41.4002 42.5998 39.0202 44.9098C40.4602 48.5998 51.6302 75.7598 59.4202 94.6698C71.2402 90.1698 82.9602 91.3399 91.5702 92.1898C92.4302 92.2799 93.2602 92.3598 94.0402 92.4298L95.1302 92.5298C102.94 93.2298 112.66 94.1099 117.68 101.48C119.3 103.87 119.87 106.75 119.18 109.2C118.61 111.25 117.23 112.83 115.21 113.75C113.81 114.39 111.83 114.64 109.54 114.64L109.55 114.65ZM87.5402 109.86C89.0102 109.86 91.4402 110.25 95.1602 110.86C101.77 111.95 110.82 113.45 114.33 111.84C115.77 111.18 116.75 110.08 117.15 108.64C117.67 106.79 117.21 104.56 115.93 102.68C111.47 96.1298 102.69 95.3398 94.9402 94.6398L93.8502 94.5398C93.0602 94.4698 92.2302 94.3799 91.3602 94.2999C82.9702 93.4698 71.5702 92.3298 60.2302 96.6298C60.8402 98.1098 61.4202 99.5198 61.9702 100.86C62.5802 100.74 63.4802 100.55 64.4202 100.35C70.3502 99.1098 82.6902 96.5199 89.0902 96.2999C96.6602 96.0499 111.89 100.02 115.03 103.79C115.78 104.69 115.81 105.49 115.7 105.99C115.6 106.46 115.3 107.12 114.46 107.62C109.85 110.37 92.1202 105.38 91.9402 105.33C86.8302 103.88 67.3202 105.23 60.9102 105.67C59.1402 105.79 58.5302 105.85 58.3002 105.83C57.1602 105.81 56.9902 105.81 44.6702 74.5898C40.5802 64.2298 35.9702 52.5498 34.9002 50.4998C34.8402 50.4998 34.8002 50.5198 34.7702 50.5498C34.7202 50.5898 34.7202 50.7198 34.7702 50.8798C34.9502 51.4598 37.9402 59.0799 41.4002 67.9099C57.5402 109.02 57.4702 109.15 57.1002 109.83C56.9502 110.1 56.6902 110.3 56.3802 110.37C55.7302 110.51 54.2802 110.6 52.9102 110.05C52.4002 109.85 51.3402 109.43 29.4802 53.5198C29.2102 53.7398 28.9002 54.0598 28.6902 54.3198C29.2802 56.2798 33.0002 65.4998 36.6002 74.4298C41.6702 86.9798 47.4102 101.21 48.6702 105.51C50.3702 111.3 51.1502 111.24 52.1402 111.17C52.4802 111.14 52.8602 111.12 53.2902 111.15C55.2902 111.34 83.4002 110.38 86.7502 109.9C86.9702 109.87 87.2302 109.85 87.5202 109.85L87.5402 109.86Z" fill="white"/>
<path d="M124.34 92.5399C108.65 92.3799 106.13 92.0799 95.7204 90.0899C82.5804 87.5799 67.2704 83.6199 66.1504 83.1599C63.3504 81.9999 43.5504 33.5799 42.6804 31.0999C41.0204 26.3899 40.8204 25.0299 41.6404 24.1899C42.3604 23.4499 43.3604 23.7699 44.3304 24.0799C44.5304 24.1399 44.7404 24.2099 44.9604 24.2799C45.3604 24.3999 86.2404 37.8699 88.6204 41.3699C91.3204 45.3299 95.5804 55.8099 95.7604 56.2499L93.8004 57.0399C93.7604 56.9299 89.4504 46.3299 86.8804 42.5599C84.8304 40.0699 48.6304 27.5499 44.3704 26.3099C44.1304 26.2399 43.9004 26.1699 43.6904 26.0999C43.5804 26.0699 43.4604 26.0299 43.3404 25.9899C43.4604 26.6499 43.8104 27.9399 44.6804 30.3999C47.5804 38.6399 64.7504 78.4399 67.1004 81.2599C68.8604 81.8299 83.4604 85.5999 96.1304 88.0199C106.38 89.9799 108.87 90.2699 124.38 90.4299L124.36 92.5399H124.34Z" fill="white"/>
<path d="M230.68 98.4799L228.57 98.3699C228.57 98.2399 228.55 98.0299 228.26 97.7199C223.48 92.7399 185.56 93.0799 173.09 93.1999C169.69 93.2299 167.44 93.2499 166.65 93.1999C162.82 93.1499 158.73 93.0699 154.34 92.9899C145.75 92.8399 136.01 92.6599 124.34 92.5399L124.36 90.4299C136.04 90.5499 145.78 90.7199 154.38 90.8799C158.77 90.9599 162.85 91.0299 166.74 91.0899C167.51 91.1399 169.84 91.1199 173.07 91.0899C198.43 90.8499 225.02 91.2899 229.79 96.2599C230.58 97.0899 230.72 97.9299 230.69 98.4799H230.68Z" fill="white"/>
<path d="M459.18 132.89L457.35 131.82C462.31 123.34 468.19 113.53 475.04 104.46C477.72 100.92 479.56 98.1699 480.91 96.1599C484.32 91.0899 485.35 89.5599 490.14 90.2799C495.76 91.1299 501.61 90.8999 507.26 90.6799C509.01 90.6099 510.76 90.5399 512.51 90.4999L533.68 91.6199C543.6 91.8599 556.04 91.5399 567.02 91.2599C569.21 91.1999 571.33 91.1499 573.34 91.0999L607.78 90.0999C613.76 90.1299 622.66 90.0699 631.26 90.0099C643.13 89.9299 654.35 89.8499 656.72 90.0299C665.18 90.6899 684.73 89.1999 686.52 87.4099C687.37 86.5599 688.17 86.7599 688.48 86.8799C688.94 87.0699 689.72 87.6499 689.74 89.4099C689.78 92.1899 687.56 98.4399 678.93 102.25C673.55 105.49 667.99 107.14 662.33 107.02C659.38 106.95 655.44 105.82 650.28 103.56C643.97 100.8 642.68 100.4 642.41 100.36C642.38 100.36 642.36 100.36 642.34 100.36C642.34 100.38 642.34 100.43 642.34 100.5C642.34 101.12 643.22 103.55 654.47 108.68C662.36 112.3 667.81 114.13 670.66 114.13C677.99 114.13 684.87 109.9 691.67 101.2C692.36 100.31 692.98 99.4399 693.57 98.5999C697.24 93.3799 700.14 89.2499 715.63 90.2999C716.65 90.2999 717.59 90.3399 718.59 90.3899C719.75 90.4499 720.94 90.4999 722.56 90.4999C733.94 90.4999 739.75 90.3699 745.37 90.2499C751 90.1299 756.83 89.9999 768.23 89.9999C779.63 89.9999 789.46 90.2699 798.97 90.5199C808.46 90.7799 818.28 91.0399 829.65 91.0399H835.6C835.88 91.0399 836.23 91.0199 836.64 90.9999C838.73 90.8799 842.23 90.6699 844.32 92.6599C845.42 93.6999 845.96 95.1799 845.95 97.0599L843.83 97.0399C843.84 95.7599 843.52 94.8199 842.86 94.1899C841.44 92.8399 838.63 92.9999 836.76 93.1099C836.31 93.1399 835.91 93.1599 835.6 93.1599H829.65C818.24 93.1599 808.42 92.8899 798.91 92.6299C789.42 92.3699 779.6 92.1099 768.23 92.1099C756.86 92.1099 751.04 92.2399 745.42 92.3599C739.79 92.4799 733.96 92.6099 722.56 92.6099C720.89 92.6099 719.67 92.5499 718.49 92.4999C717.53 92.4599 716.62 92.4099 715.56 92.4099C701.18 91.4399 698.84 94.7699 695.3 99.8199C694.69 100.68 694.06 101.58 693.34 102.51C686.11 111.76 678.69 116.25 670.66 116.25C667.46 116.25 661.87 114.41 653.59 110.61C641.74 105.2 640.22 102.37 640.22 100.5C640.22 99.1099 641.09 98.2399 642.48 98.2399C642.86 98.2399 643.44 98.2399 651.13 101.61C655.97 103.73 659.75 104.84 662.37 104.89C667.64 104.97 672.84 103.44 677.9 100.39C677.94 100.37 677.98 100.35 678.02 100.33C684.87 97.3299 686.82 92.9799 687.34 91.2499C687.61 90.3399 687.66 89.6299 687.62 89.1899C683.29 91.8499 662.72 92.5999 656.57 92.1199C654.29 91.9399 643.12 92.0199 631.29 92.0999C622.68 92.1599 613.78 92.2199 607.82 92.1899L573.41 93.1899C571.39 93.2399 569.28 93.2899 567.09 93.3499C556.09 93.6299 543.62 93.9599 533.62 93.7099L512.5 92.5899C510.84 92.6299 509.1 92.6999 507.36 92.7699C501.61 92.9999 495.66 93.2299 489.84 92.3499C486.38 91.8199 486.03 92.3499 482.69 97.3099C481.33 99.3399 479.46 102.12 476.75 105.7C469.96 114.67 464.13 124.42 459.2 132.85L459.18 132.89Z" fill="white"/>
<path d="M434.61 110.56C434.39 107.85 433.63 103.08 432.55 101.85C432.25 101.5 432.13 101.04 432.24 100.59C432.43 99.7598 432.78 98.2098 448.07 91.7498L448.89 93.6998C437.92 98.3298 435.16 100.25 434.47 100.91C436.1 103.45 436.65 109.65 436.71 110.39L434.6 110.56H434.61Z" fill="white"/>
<path d="M477.55 64.27L475.54 63.6C478.22 55.53 483.35 39.31 483.59 35.65C483.59 35.56 483.61 35.46 483.65 35.37C483.85 34.78 484.75 33.53 488.61 34.6C491.63 35.43 493.92 34.87 493.94 34.86L494.47 36.91C494.36 36.94 491.61 37.62 488.05 36.64C486.66 36.26 485.96 36.27 485.65 36.32C484.9 42.09 477.86 63.34 477.55 64.27Z" fill="white"/>
<path d="M454.34 73.8698L453.72 71.8498C454.47 71.6198 455.89 70.5898 456.97 69.6998C453.33 65.5898 453.5 65.2198 453.76 64.6198C453.93 64.2398 454.35 63.9598 454.77 63.9598C455.58 63.8698 461.67 62.1898 462.74 61.6398C463.07 60.9498 464.34 56.8798 465.39 53.2598C465.5 52.8798 465.81 52.5898 466.2 52.5098C466.59 52.4298 466.99 52.5798 467.23 52.8898L476.17 64.0998L474.52 65.4198L466.85 55.8098C464.89 62.4398 464.44 62.9398 464.29 63.1098C463.63 63.8398 458.95 65.1298 456.41 65.7398C457.12 66.6398 458.25 67.9698 459.27 69.0998C459.46 69.3098 459.55 69.5798 459.54 69.8698C459.53 70.1598 459.4 70.4098 459.19 70.5998C458.87 70.8798 456.06 73.3598 454.34 73.8898V73.8698Z" fill="white"/>
<path d="M452.49 137.22C451.91 137.22 451.31 137.17 450.68 137.07C443.41 135.9 433.25 127.51 431.27 121.04C429.35 114.75 432.31 112.6 435.74 110.11L436.17 109.8C436.55 109.52 437.38 108.46 438.25 107.33C440.26 104.75 443.3 100.85 447.55 97.3499C450.13 95.2299 449.94 94.4999 449.94 94.4999C449.84 94.2299 448.76 92.9299 437.67 93.4499H433.18C428.56 93.4199 424.05 93.4099 412.58 93.4099C402.04 93.4099 391 93.4899 379.31 93.5799C369.57 93.6499 359.29 93.7299 348.25 93.7599L311.99 93.6099H311.97C308.27 93.6099 301.61 104.86 299.42 108.56C299.09 109.11 298.81 109.59 298.59 109.95C296.73 113 293.75 115.22 290.88 117.37C281.67 124.28 270.54 127.78 257.82 127.78C249.1 127.78 242.08 125.72 236.93 121.67C231.27 117.11 228.4 110.47 228.4 101.93C228.4 100.73 228.45 99.5299 228.55 98.3399L230.66 98.5199C230.56 99.6499 230.52 100.8 230.52 101.93C230.52 109.79 233.12 115.88 238.25 120.01C243 123.76 249.59 125.66 257.82 125.66C270.07 125.66 280.77 122.3 289.61 115.67C292.32 113.64 295.13 111.54 296.78 108.84C297 108.48 297.27 108.02 297.59 107.48C302.5 99.1699 307.65 91.4899 311.96 91.4899C311.97 91.4899 311.99 91.4899 312 91.4899L348.24 91.6399C359.27 91.5999 369.55 91.5299 379.28 91.4499C390.97 91.3599 402.01 91.2799 412.56 91.2799C424.03 91.2799 428.55 91.2999 433.17 91.3099H437.61C448.49 90.7999 451.2 91.9099 451.9 93.7299C452.62 95.5899 450.66 97.5099 448.88 98.9799C444.81 102.33 441.86 106.12 439.91 108.62C439.24 109.49 438.7 110.18 438.24 110.69C442.55 110.9 448.69 114.02 453.69 120.12C458.39 125.87 459.99 131.07 458.08 134.39C457.02 136.23 455.03 137.21 452.47 137.21L452.49 137.22ZM432.91 116.32C432.66 117.37 432.76 118.66 433.3 120.42C434.91 125.68 443.96 133.84 451.02 134.98C453.52 135.38 455.44 134.79 456.27 133.34C457.37 131.43 456.85 127.3 452.07 121.47C446.12 114.19 438.84 111.91 436.08 113.11C435.14 113.52 434.77 114.33 434.94 115.59C435.73 121.41 439.96 126.48 441.19 126.67C442.14 125.91 444.66 121.41 446.52 117.55L448.43 118.47C447.44 120.53 444.06 127.35 442.27 128.51C441.86 128.78 441.15 128.99 440.14 128.53C437.47 127.3 433.81 121.78 432.92 116.34L432.91 116.32ZM258.67 115.5C252.16 115.5 246.59 113.78 242.11 110.39C237.1 106.54 234.56 101.35 234.56 94.9499C234.56 87.7199 237.09 80.7499 242.08 74.2399C242.3 73.9699 242.25 73.8899 242.18 73.7699V73.7499C241.92 73.5199 240.95 72.9799 239.69 72.4399C237.48 71.4899 228.41 70.2299 223.51 70.1899L212.71 70.1299C190.04 69.9999 142.86 69.7299 133.55 69.5399C130.15 69.4699 126.54 69.2499 122.71 69.0099C119.59 68.8199 116.37 68.6199 113.11 68.4999L113.19 66.3899C116.47 66.5099 119.71 66.7099 122.84 66.8999C126.65 67.1299 130.24 67.3499 133.6 67.4199C142.89 67.6099 190.06 67.8799 212.73 68.0099L223.53 68.0699C228.32 68.1099 237.91 69.3699 240.52 70.4899C243.44 71.7399 243.89 72.4099 244.04 72.7499C244.55 73.6599 244.44 74.6699 243.75 75.5399C239.07 81.6599 236.68 88.1999 236.68 94.9499C236.68 100.74 238.88 105.24 243.4 108.71C247.5 111.81 252.64 113.38 258.68 113.38C269.37 113.38 279.42 110.48 288.55 104.75C296.53 99.6799 300.58 94.9599 300.58 90.7199C300.58 89.9599 300.37 88.3699 299.38 85.1399C298.73 82.9999 298.22 82.0199 297.92 81.5699L295.13 84.6999C292.66 87.4699 289.61 88.8699 286.05 88.8699C282.49 88.8699 279.31 87.9299 276.87 86.0899C274.12 84.0099 272.72 81.0999 272.72 77.4499C272.72 72.4399 274.27 66.9699 277.32 61.1999C280.76 54.4999 284.78 51.0999 289.28 51.0999C293.78 51.0999 297.73 55.2399 301.6 63.7399C302.08 64.8199 302.54 65.8999 302.95 66.9499C304.31 69.0599 306.34 68.8799 309.79 68.3799C310.8 68.2299 311.85 68.0799 312.95 68.0099L349.52 68.5399C360.43 68.4999 370.44 68.4299 379.87 68.3599C391.33 68.2699 402.15 68.1899 412.6 68.1899C424.17 68.1899 428.98 68.5599 434.95 69.9299C439.51 70.9699 465.69 73.6499 470.75 68.6099C479.23 60.1599 491.42 39.0299 495.43 32.0799L495.81 31.4299C497.34 28.7799 499.72 27.3499 502.67 27.2999C509.91 27.1899 518.99 35.3599 521.62 39.5899C524.77 44.6699 526.03 49.0499 521.9 53.9499C520.08 56.1099 517.93 57.9299 515.84 59.6899C514.86 60.5199 513.87 61.3499 512.93 62.2199C511.6 63.4299 510.97 64.5299 511.18 65.2299C511.47 66.1599 513.24 66.9399 515.91 67.3099L542.81 67.9999C545.55 67.9699 548.25 67.9399 550.94 67.9099C560.99 67.7899 571.39 67.6699 585.44 67.8599C602.64 68.0899 628.77 67.8299 632.01 67.7099C632.99 67.6799 634.65 67.8099 636.95 67.9899C642.53 68.4299 651.87 69.1799 662.24 68.3099C665.96 67.9899 671.58 69.4299 676.1 70.5799C678.25 71.1299 680.81 71.7799 682.18 71.9399C682.1 71.8399 682.01 71.7399 681.93 71.6399C681.63 71.2899 681.33 70.9299 681.06 70.5299C673.33 59.1899 681.97 44.4399 687.81 36.6599C689.4 34.5399 692.15 32.5199 695.12 33.2099C696.43 33.5099 697.49 34.3099 698.17 34.8699C705.02 40.5899 708.1 50.6899 708.66 57.5999C708.69 57.9799 708.68 58.6599 708.66 59.5999C708.61 62.0799 708.45 69.6099 710.13 70.5999C710.35 70.7299 710.7 70.6499 711.16 70.3799C718.91 65.7999 726.51 66.2899 734.55 66.7899C735.97 66.8799 737.4 66.9699 738.86 67.0299L788.96 67.0599C792.99 67.1599 797 67.2799 801.01 67.3999C810.4 67.6899 820.11 67.9799 829.65 67.9799H836.71C839.14 68.0299 843.2 68.0999 844.42 61.6199C844.42 61.2199 844.46 60.8199 844.49 60.4199C844.52 60.0199 844.56 59.6299 844.56 59.2299C844.56 58.8799 844.56 58.5299 844.56 58.1799C844.56 57.6999 844.56 57.2199 844.56 56.7399L844.54 55.9399C844.53 55.3699 844.52 54.8099 844.49 54.2599C844.46 53.5399 844.41 52.8199 844.36 52.1199L844.34 51.7799C844.31 51.3099 844.24 50.8499 844.17 50.3999C844.12 50.0399 844.07 49.6799 844.03 49.3299C843.98 48.8899 843.93 48.4699 843.87 48.0499V48.7099C841.48 48.7299 839.08 48.7699 836.66 48.8099C833.91 48.8599 831.14 48.9099 828.4 48.9199C828.36 48.9199 828.31 48.9199 828.27 48.9199C826.6 48.9199 824.89 48.7999 823.63 47.5999C822.18 46.2199 821.93 43.8699 822.96 41.3199C824.73 36.9399 829.32 32.6799 834.65 33.0499C835.38 33.0999 836.05 33.3399 836.7 33.5799C836.94 33.6699 837.19 33.7599 837.45 33.8399C838.26 34.0899 839.09 34.4399 840.05 34.9399C841 35.4299 841.71 36.0099 842.3 36.7399L842.59 37.0999C843.03 37.6299 843.52 38.2299 843.88 38.9999C844.12 39.5299 844.24 40.0899 844.35 40.6299C844.41 40.9399 844.48 41.2499 844.57 41.5699C844.65 41.8399 844.75 42.1099 844.85 42.3799C845.03 42.8699 845.24 43.4299 845.37 44.0299C845.53 44.7999 845.65 45.6099 845.78 46.4499L845.85 46.8999C845.96 47.6099 846.06 48.3399 846.14 49.0999C846.17 49.4299 846.22 49.7599 846.27 50.0899C846.34 50.5899 846.42 51.0999 846.45 51.6199L846.47 51.9599C846.52 52.6799 846.57 53.4099 846.61 54.1499C846.64 54.7199 846.65 55.2999 846.66 55.8899L846.68 56.6799C846.69 57.1799 846.69 57.6799 846.68 58.1799C846.68 58.5199 846.68 58.8599 846.68 59.1999C846.68 59.6599 846.65 60.1199 846.61 60.5899C846.58 60.9699 846.54 61.3399 846.54 61.7199C846.54 61.7799 846.54 61.8499 846.52 61.9099C845 70.2499 838.95 70.1399 836.68 70.1099H829.66C820.09 70.0999 810.36 69.7999 800.95 69.5099C796.95 69.3899 792.94 69.2699 788.94 69.1699L738.82 69.1399C737.31 69.0799 735.86 68.9799 734.43 68.8899C726.72 68.3999 719.43 67.9399 712.25 72.1899C710.78 73.0599 709.71 72.7899 709.07 72.4199C706.53 70.9299 706.43 65.2499 706.55 59.5499C706.57 58.7399 706.58 58.0399 706.55 57.7699C706.02 51.2699 703.16 41.7899 696.81 36.4899C695.99 35.8099 695.3 35.4199 694.64 35.2599C692.67 34.7999 690.64 36.4099 689.5 37.9199C684 45.2499 675.81 59.0799 682.8 69.3299C683.03 69.6699 683.29 69.9699 683.54 70.2599C683.77 70.5299 683.99 70.7899 684.19 71.0599C684.83 71.9399 684.94 72.6999 684.52 73.3199C683.66 74.5999 681.55 74.1399 675.58 72.6199C671.21 71.5099 665.78 70.1199 662.42 70.3999C651.89 71.2899 642.43 70.5299 636.79 70.0899C634.65 69.9199 632.96 69.7799 632.09 69.8099C628.84 69.9299 602.64 70.1999 585.41 69.9599C571.38 69.7699 561 69.8899 550.96 70.0099C548.26 70.0399 545.56 70.0699 542.79 70.0999L515.73 69.3999C511.89 68.8699 509.72 67.6799 509.15 65.8399C508.66 64.2599 509.45 62.5099 511.49 60.6399C512.46 59.7599 513.46 58.9099 514.46 58.0599C516.48 56.3499 518.56 54.5899 520.26 52.5699C523.61 48.5999 522.68 45.3299 519.8 40.6899C517.31 36.6799 509 29.3999 502.8 29.3999H502.68C500.45 29.4399 498.8 30.4399 497.62 32.4699L497.24 33.1199C493.2 40.1199 480.9 61.4399 472.22 70.0899C466.11 76.1799 438.62 72.9299 434.46 71.9699C428.67 70.6499 423.97 70.2799 412.58 70.2799C402.14 70.2799 391.32 70.3599 379.87 70.4499C370.43 70.5199 360.42 70.5899 349.49 70.6299L312.98 70.0999C312.05 70.1599 311.04 70.3099 310.07 70.4499C306.71 70.9399 303.24 71.4399 301.08 67.9599C301.05 67.9099 301.02 67.8499 300.99 67.7899C300.58 66.7399 300.13 65.6599 299.64 64.5899C296.2 57.0299 292.7 53.1899 289.24 53.1899C285.6 53.1899 282.2 56.2099 279.15 62.1499C276.25 67.6199 274.79 72.7599 274.79 77.4199C274.79 80.4099 275.87 82.6899 278.1 84.3699C280.17 85.9299 282.83 86.7299 286 86.7299C288.97 86.7299 291.43 85.5999 293.5 83.2699L296.9 79.4599C297.1 79.2399 297.39 79.1099 297.69 79.1099C299.13 79.1099 300.19 80.6699 301.36 84.4999C302.23 87.3299 302.65 89.3599 302.65 90.6899C302.65 95.7699 298.39 100.94 289.64 106.51C280.16 112.45 269.74 115.46 258.64 115.46L258.67 115.5ZM834 35.1699C829.88 35.1699 826.34 38.5999 824.92 42.1299C824.39 43.4599 824.15 45.1899 825.09 46.0899C825.81 46.7799 827.04 46.8499 828.39 46.8299C831.13 46.8199 833.88 46.7699 836.62 46.7199C838.97 46.6799 841.32 46.6299 843.65 46.6199C843.53 45.8299 843.43 45.1499 843.29 44.4999C843.2 44.0499 843.03 43.6099 842.86 43.1499C842.74 42.8299 842.63 42.5199 842.53 42.2099C842.42 41.8399 842.34 41.4599 842.26 41.0899C842.17 40.6499 842.08 40.2299 841.94 39.9099C841.7 39.3799 841.32 38.9199 840.95 38.4699L840.63 38.0799C840.23 37.5799 839.75 37.1999 839.07 36.8399C838.22 36.3999 837.5 36.0899 836.81 35.8799C836.52 35.7899 836.24 35.6899 835.97 35.5899C835.41 35.3899 834.92 35.2099 834.49 35.1799C834.32 35.1699 834.15 35.1599 833.98 35.1599L834 35.1699ZM272.43 43.1499C272.2 43.1499 271.98 43.0799 271.79 42.9399L261.26 34.9799C260.82 34.6399 260.71 34.0199 261.01 33.5599L267.15 24.1899C267.32 23.9399 267.58 23.7699 267.88 23.7199C268.18 23.6799 268.48 23.7599 268.71 23.9599C270.57 25.5199 273.33 27.5399 276.92 29.9699C278.12 28.3399 279.73 25.8599 281.73 22.5599C281.88 22.3099 282.13 22.1299 282.41 22.0699C282.69 22.0099 282.99 22.0699 283.23 22.2299L293.6 29.3599C293.83 29.5199 293.99 29.7599 294.04 30.0399C294.09 30.3199 294.03 30.5999 293.87 30.8299L287.24 40.4499C287.07 40.6999 286.8 40.8599 286.51 40.8999C286.21 40.9399 285.91 40.8499 285.69 40.6599C284.04 39.2599 281.37 37.3299 277.76 34.9099C276.64 36.5199 275.18 39.0899 273.39 42.5799C273.25 42.8599 272.99 43.0599 272.68 43.1299C272.6 43.1499 272.52 43.1599 272.44 43.1599L272.43 43.1499ZM263.33 33.8799L272.07 40.4899C274 36.7999 275.51 34.2799 276.66 32.8099C276.8 32.6299 276.99 32.5099 277.19 32.4499C276.98 32.4499 276.76 32.3999 276.57 32.2699C273.08 29.9299 270.3 27.9299 268.28 26.3199L263.33 33.8799ZM277.49 32.4099C277.69 32.4099 277.89 32.4699 278.07 32.5899C281.57 34.9099 284.28 36.8299 286.14 38.3099L291.52 30.5099L282.95 24.6099C280.84 28.0599 279.17 30.5599 277.98 32.0599C277.84 32.2399 277.65 32.3599 277.45 32.4199H277.48L277.49 32.4099Z" fill="white"/>
</g>
<defs>
<clipPath id="clip0_3_1605">
<rect width="1153.14" height="158.53" fill="white"/>
</clipPath>
</defs>
</svg>
