<svg class="img-fluid" id="outputsvg" xmlns="http://www.w3.org/2000/svg" style="transform: matrix(1, 0, 0, 1, 0, 0); transform-origin: 50% 50%; cursor: move; transition: transform 200ms ease-in-out;" width="1700" height="1360" viewBox="0 0 17000 13600"><g id="l2HfwQesxP1dKuvuINLCvuM" fill="rgb(253,253,254)" style="transform: none;"><g style="transform: none;"><path id="p2SLF2p3K" d="M4764 12355 c-4 -16 -7 -44 -8 -64 -1 -34 1 -35 41 -42 58 -11 80 -24 100 -62 16 -29 18 -71 21 -389 l3 -358 74 0 c53 0 75 4 75 13 0 6 0 163 0 347 0 310 -2 340 -21 397 -33 100 -118 167 -227 180 -49 5 -51 5 -58 -22z"></path><path id="pKjX778wt" d="M3534 12104 c-45 -9 -64 -19 -90 -47 -45 -49 -67 -124 -53 -187 24 -113 116 -179 279 -200 47 -6 89 -15 94 -20 12 -12 -15 -60 -47 -84 -37 -27 -116 -25 -186 4 -53 23 -67 21 -80 -13 -23 -60 -23 -66 3 -82 32 -21 159 -55 207 -55 56 0 136 28 175 62 72 63 82 113 85 405 l1 208 -57 3 c-47 3 -62 -1 -79 -17 l-22 -20 -34 21 c-45 28 -123 37 -196 22z m199 -152 c30 -30 32 -37 32 -100 l0 -67 -47 -3 c-57 -4 -140 29 -163 64 -22 33 -19 86 7 119 20 25 25 27 80 23 50 -4 64 -9 91 -36z"></path><path id="p17cz2yQ5o" d="M10957 12110 c-71 -12 -108 -38 -140 -100 -25 -47 -28 -63 -24 -112 12 -134 100 -204 284 -227 41 -5 80 -14 85 -19 15 -15 -18 -77 -48 -91 -41 -18 -130 -13 -185 11 -46 19 -52 20 -66 5 -10 -9 -17 -34 -17 -59 l-1 -43 68 -23 c95 -31 147 -37 217 -22 94 20 153 76 179 170 6 19 11 139 12 265 l3 230 -59 3 c-50 3 -61 0 -75 -18 l-16 -21 -49 25 c-60 29 -104 36 -168 26z m180 -162 c25 -26 28 -36 28 -96 l0 -67 -37 -3 c-57 -5 -118 16 -155 53 -37 37 -42 69 -18 115 29 57 127 56 182 -2z"></path><path id="p1FwFfXdvl" d="M13750 12109 c-71 -12 -152 -52 -186 -92 -114 -135 -99 -401 30 -514 78 -68 195 -96 290 -69 109 32 182 129 193 256 3 37 3 79 -1 94 l-6 26 -218 2 c-246 3 -234 -3 -188 88 18 38 31 49 77 67 65 27 121 29 207 7 77 -19 85 -14 86 53 l1 48 -50 16 c-65 21 -166 29 -235 18z m173 -457 c-2 -41 -42 -87 -91 -103 -61 -20 -145 19 -178 83 -29 55 -19 59 133 56 l138 -3 -2 -33z"></path><path id="pux9ngiRC" d="M9835 12096 c-78 -34 -89 -71 -95 -321 l-5 -210 -48 -3 -48 -3 3 -57 3 -57 45 -5 45 -5 5 -70 c5 -63 7 -71 31 -82 15 -7 47 -16 73 -19 l45 -7 3 89 3 89 77 3 c87 3 95 11 83 82 l-7 39 -76 3 -77 3 0 193 0 194 25 20 c19 16 33 18 67 13 40 -6 44 -5 54 22 15 41 3 89 -24 97 -39 10 -151 6 -182 -8z"></path><path id="pAmosNiCJ" d="M11795 12099 c-78 -22 -106 -118 -104 -353 0 -92 -3 -172 -8 -176 -4 -5 -24 -10 -43 -12 l-35 -3 0 -55 0 -55 40 -5 40 -5 5 -70 5 -70 45 -17 c25 -9 57 -17 73 -17 30 -1 29 -4 27 101 -2 77 -3 76 105 80 l60 3 3 49 c2 27 -1 53 -7 59 -6 6 -42 9 -80 8 -68 -2 -71 -1 -77 23 -3 14 -4 100 -3 192 l4 166 29 24 c23 20 37 24 75 22 l46 -3 3 50 c3 38 -1 52 -14 62 -20 15 -142 16 -189 2z"></path><path id="p14WMM2cec" d="M2938 11713 l-3 -388 -130 -5 -130 -5 -3 -50 c-1 -27 1 -56 6 -62 6 -9 87 -13 327 -13 176 0 328 0 338 0 14 0 17 10 17 65 l0 65 -123 0 c-82 0 -127 4 -135 12 -9 9 -12 109 -12 390 l0 378 -75 0 -75 0 -2 -387z"></path><path id="phwAtTt1a" d="M4280 11780 c0 -176 -1 -323 -2 -327 -2 -5 25 -9 59 -11 56 -3 63 -1 74 20 6 13 13 25 15 27 2 2 19 -8 39 -23 19 -15 60 -32 91 -39 68 -14 74 -8 74 79 l0 62 -55 4 c-60 5 -106 37 -128 88 -6 14 -13 117 -16 230 l-6 205 -72 3 -73 3 0 -321z"></path><path id="pQJCbVWUk" d="M5435 12087 c-3 -7 -4 -154 -3 -327 l3 -315 69 -3 c43 -2 72 1 76 8 4 6 5 140 3 298 -2 158 -3 302 -3 320 l0 32 -70 0 c-48 0 -72 -4 -75 -13z"></path><path id="p3pwFyv3Y" d="M5925 12088 c-3 -7 -4 -155 -3 -328 l3 -315 58 -3 c53 -3 58 -1 67 22 11 31 15 32 47 6 29 -22 113 -50 152 -50 37 1 111 36 148 72 l32 31 42 -36 c45 -39 114 -67 163 -67 37 0 112 33 144 63 30 28 58 82 67 128 8 41 13 422 7 462 -5 28 -5 28 -71 25 l-66 -3 -5 -225 c-4 -192 -8 -230 -23 -258 -50 -91 -186 -63 -216 44 -6 22 -11 128 -11 242 l0 202 -69 0 -69 0 -4 -227 c-3 -171 -7 -235 -18 -256 -16 -33 -81 -70 -107 -61 -56 18 -72 28 -94 57 -23 31 -24 39 -29 257 l-5 225 -68 3 c-48 2 -69 -1 -72 -10z"></path><path id="pxxcOuEKo" d="M7765 12088 c-3 -7 -4 -211 -3 -453 l3 -440 64 -3 c35 -2 67 1 70 7 5 7 7 864 2 894 -2 13 -131 8 -136 -5z"></path><path id="ppDAvSgFX" d="M8285 12088 c-3 -7 -4 -155 -3 -328 l3 -315 62 -3 c60 -3 63 -2 69 23 7 30 18 31 51 5 38 -30 128 -53 175 -46 92 15 163 77 192 170 14 42 16 91 14 276 l-3 225 -70 0 -70 0 -5 -230 c-6 -258 -8 -268 -79 -300 -34 -15 -45 -15 -78 -5 -45 15 -69 34 -92 75 -13 24 -17 71 -21 245 l-5 215 -68 3 c-48 2 -69 -1 -72 -10z"></path><path id="pLeA1nmwC" d="M9205 12088 c-3 -7 -4 -155 -3 -328 l3 -315 70 0 70 0 0 325 0 325 -68 3 c-48 2 -69 -1 -72 -10z"></path><path id="pex7uJyNd" d="M10345 12088 c-3 -7 -4 -155 -3 -328 l3 -315 73 -3 72 -3 -2 328 -3 328 -68 3 c-48 2 -69 -1 -72 -10z"></path><path id="ppuNiWoai" d="M12315 12088 c-3 -7 -4 -155 -3 -328 l3 -315 71 -3 c52 -2 73 1 75 10 2 7 2 155 -1 328 l-5 315 -68 3 c-48 2 -69 -1 -72 -10z"></path><path id="pPDnz6Qvp" d="M12971 12078 c-51 -126 -241 -624 -241 -630 0 -14 148 -9 157 5 4 6 40 102 80 212 40 113 77 201 85 203 9 2 33 -57 77 -185 89 -261 77 -243 161 -243 38 0 71 4 74 9 3 4 -12 50 -34 102 -22 52 -80 195 -128 319 l-89 225 -66 3 c-62 3 -68 1 -76 -20z"></path><path id="p12wFLJiQM" d="M5494 11362 c-40 -4 -63 -29 -71 -75 -5 -31 -1 -40 25 -67 37 -37 80 -40 116 -7 35 30 42 74 17 113 -20 34 -38 41 -87 36z"></path><path id="p6bdHqlFc" d="M9247 11360 c-37 -11 -56 -37 -57 -77 0 -45 9 -62 41 -78 38 -20 72 -19 101 5 50 39 39 122 -19 149 -27 12 -28 12 -66 1z"></path><path id="p1HDaBLlN4" d="M10393 11363 c-29 -6 -63 -49 -63 -80 0 -31 25 -79 45 -87 77 -29 149 35 124 111 -10 30 -53 66 -76 62 -4 -1 -18 -4 -30 -6z"></path><path id="pfxegALll" d="M12368 11363 c-54 -8 -88 -91 -55 -134 54 -71 157 -38 157 50 0 32 -6 44 -31 65 -17 14 -34 25 -37 25 -4 -1 -19 -4 -34 -6z"></path><path id="pkQrTHjgh" d="M4944 11352 c-6 -4 -16 -17 -23 -29 -45 -87 56 -173 133 -112 34 27 37 98 6 129 -20 20 -93 28 -116 12z"></path><path id="pUMMiSu7A" d="M2876 10583 c-3 -16 -12 -136 -21 -268 -14 -226 -22 -312 -60 -710 -9 -88 -20 -214 -25 -280 -6 -66 -16 -183 -25 -260 -30 -282 -35 -343 -45 -495 -17 -265 -14 -365 10 -445 31 -99 112 -299 170 -419 45 -96 56 -110 152 -201 314 -297 749 -587 1034 -688 258 -92 459 -69 613 69 110 99 191 255 305 591 82 239 127 347 174 415 50 72 112 127 170 148 54 20 69 21 986 17 1028 -4 1091 -8 1566 -82 213 -34 747 -148 762 -163 5 -5 -29 -40 -74 -80 -46 -39 -180 -168 -298 -287 -229 -231 -312 -304 -428 -380 -162 -104 -293 -148 -447 -149 -181 -1 -276 44 -468 223 -60 56 -113 101 -118 101 -11 0 -49 -37 -49 -48 0 -14 465 -467 690 -671 l125 -113 65 5 c132 12 318 80 460 169 115 73 200 147 440 383 129 127 268 257 308 289 142 112 308 202 450 242 31 9 61 20 66 25 5 5 -20 40 -60 85 -88 97 -205 241 -266 327 -27 37 -54 67 -62 67 -8 0 -50 -16 -93 -36 -61 -28 -86 -34 -114 -30 -138 22 -438 159 -654 300 -71 47 -161 104 -200 128 -266 162 -569 252 -940 279 -154 12 -1573 14 -1664 3 -88 -10 -232 -60 -297 -103 -32 -21 -86 -66 -118 -100 -47 -49 -61 -59 -68 -48 -4 8 -19 65 -32 125 -13 60 -27 115 -30 121 -16 25 -512 5 -726 -30 -324 -53 -521 -129 -655 -252 -171 -156 -230 -343 -175 -552 10 -38 16 -72 13 -75 -5 -5 -31 22 -131 135 l-53 60 6 80 c16 198 57 641 70 750 8 66 22 183 30 260 9 77 27 217 40 310 13 94 29 206 34 250 12 95 89 616 97 661 5 30 1 34 -108 117 -62 47 -154 124 -205 171 -50 47 -98 86 -106 86 -9 0 -18 -12 -21 -27z m1779 -2532 c3 -5 -6 -45 -19 -88 -37 -118 -62 -222 -91 -388 -85 -487 -109 -567 -188 -615 -44 -27 -85 -25 -176 10 -183 71 -411 271 -586 515 -56 78 -155 250 -155 270 0 12 202 101 323 144 209 72 382 110 653 141 190 21 231 23 239 11z"></path><path id="p10MSVBMni" d="M9474 9858 c-334 -219 -493 -323 -621 -404 -76 -47 -157 -98 -180 -113 -23 -14 -67 -42 -97 -60 -60 -37 -67 -55 -38 -91 l19 -23 129 66 c162 82 344 153 454 178 111 25 311 35 420 20 425 -57 769 -359 986 -864 33 -79 45 -117 40 -138 -21 -109 -398 -825 -592 -1125 -28 -45 -57 -91 -63 -103 -11 -19 0 -33 118 -154 116 -118 190 -202 274 -311 23 -29 31 -34 46 -27 26 14 193 413 289 692 54 157 133 433 155 539 l13 65 45 11 c161 40 244 44 1026 44 665 0 787 -3 993 -20 335 -28 699 -78 723 -100 9 -8 -91 -368 -167 -600 -24 -74 -83 -238 -130 -365 -48 -126 -89 -237 -92 -246 -4 -10 9 -25 38 -44 78 -51 208 -167 311 -277 98 -105 118 -120 133 -97 14 24 165 717 208 959 36 204 46 288 46 389 0 81 -4 99 -69 286 -79 230 -124 341 -149 368 -58 64 -402 196 -657 251 -358 77 -500 87 -1280 87 -625 1 -710 -4 -861 -43 -45 -12 -88 -19 -96 -16 -8 4 -19 32 -26 71 -19 104 -59 232 -108 346 -171 401 -462 707 -820 865 -83 36 -217 76 -257 76 -14 0 -86 -41 -163 -92z"></path><path id="p18caOCx0B" d="M7650 9417 c-85 -56 -197 -124 -248 -152 -50 -27 -92 -54 -92 -60 0 -5 29 -57 64 -115 36 -58 97 -158 136 -223 40 -65 79 -121 87 -124 30 -11 339 155 410 220 71 65 78 128 26 231 -36 71 -210 325 -223 326 -3 0 -75 -46 -160 -103z"></path><path id="p1GHkzuLiJ" d="M12634 6212 c-62 -45 -302 -196 -376 -236 -37 -20 -70 -41 -73 -46 -3 -5 45 -92 108 -192 62 -101 124 -202 137 -225 13 -23 30 -45 37 -48 16 -6 255 111 344 168 176 113 171 190 -30 477 -48 68 -91 125 -97 127 -6 2 -28 -9 -50 -25z"></path><path id="p12xpMr4kx" d="M13480 6232 c-8 -4 -80 -50 -160 -103 -80 -53 -184 -117 -232 -143 -48 -26 -90 -51 -93 -55 -2 -5 46 -89 108 -189 62 -99 124 -201 139 -227 16 -25 34 -48 42 -51 17 -6 262 116 354 177 35 23 75 59 89 81 58 87 27 164 -182 461 -22 31 -42 57 -45 56 -3 0 -12 -4 -20 -7z"></path><path id="purRZJVTy" d="M4624 5790 c-11 -4 -88 -53 -170 -107 -348 -232 -541 -357 -731 -474 -214 -131 -227 -144 -183 -184 20 -18 24 -17 178 58 246 119 373 163 545 186 231 32 483 -12 676 -117 260 -141 485 -415 636 -776 l45 -107 -54 -117 c-166 -361 -301 -612 -514 -962 -52 -85 -99 -165 -105 -177 -9 -21 4 -37 139 -175 82 -84 174 -187 206 -229 71 -95 80 -102 101 -86 17 13 85 166 174 392 158 403 256 739 298 1025 23 154 16 402 -14 544 -111 519 -411 941 -841 1184 -95 53 -197 90 -350 127 -8 2 -24 0 -36 -5z"></path><path id="pAGI2gpoR" d="M10224 5308 c-76 -51 -188 -119 -247 -152 -59 -32 -107 -63 -107 -69 0 -6 53 -97 118 -201 65 -105 129 -208 141 -228 13 -21 28 -38 35 -38 14 0 269 129 328 166 92 58 138 118 138 181 0 16 -15 60 -34 98 -36 74 -204 326 -222 332 -5 2 -73 -38 -150 -89z"></path><path id="pAdsUVjoE" d="M3175 4498 c-92 -17 -181 -48 -226 -77 -115 -78 -207 -212 -246 -361 -24 -90 -23 -362 1 -475 49 -232 147 -443 332 -721 52 -78 94 -146 94 -151 0 -6 -18 -23 -41 -39 -30 -21 -39 -33 -36 -48 3 -12 14 -57 25 -101 28 -108 61 -277 69 -348 10 -97 16 -99 120 -47 329 167 629 428 817 710 138 207 226 438 226 592 0 105 -168 507 -348 830 l-66 118 -70 29 c-187 76 -496 119 -651 89z m458 -627 c129 -33 275 -97 295 -131 11 -18 8 -35 -22 -124 -58 -173 -148 -333 -264 -473 -107 -126 -349 -344 -421 -376 -28 -14 -34 -7 -150 163 -295 432 -322 718 -83 888 39 28 156 73 222 86 14 2 88 3 165 1 115 -3 161 -9 258 -34z"></path><path id="pti2pyaSQ" d="M9435 4474 c-166 -14 -303 -39 -365 -65 -52 -22 -70 -46 -185 -244 -83 -143 -102 -192 -115 -305 -5 -41 -20 -174 -35 -295 -46 -390 -65 -570 -135 -1280 -59 -611 -137 -1701 -121 -1716 3 -4 44 -16 90 -28 120 -32 258 -91 377 -161 57 -34 108 -59 114 -55 7 4 10 550 10 1739 0 1391 3 1736 13 1744 25 21 162 52 305 68 246 28 1228 8 1417 -29 59 -12 60 -13 87 -67 51 -102 34 -256 -66 -620 -25 -91 -59 -207 -76 -259 -16 -52 -30 -100 -30 -106 0 -7 50 -44 110 -84 72 -47 152 -112 230 -187 66 -63 124 -112 130 -109 6 4 10 137 10 368 l0 362 -104 310 c-58 171 -108 318 -111 327 -20 51 261 91 735 104 337 9 418 -11 532 -127 87 -89 161 -226 283 -524 174 -426 474 -1117 488 -1126 11 -8 66 6 80 20 6 6 2 20 -10 38 -20 28 -133 287 -133 303 0 5 37 7 83 3 139 -9 315 49 442 147 257 199 437 594 477 1046 8 97 8 154 0 215 -14 109 -69 304 -129 466 l-48 128 -250 -1 c-496 -2 -896 -71 -1277 -219 -12 -5 -23 5 -42 38 -31 52 -108 127 -157 153 -71 37 -123 41 -389 33 -140 -4 -284 -12 -320 -18 -36 -5 -105 -15 -155 -21 -102 -12 -271 -43 -359 -66 -54 -14 -59 -14 -72 3 -7 10 -16 26 -19 35 -3 9 -14 19 -23 22 -44 13 -251 35 -382 42 -240 11 -756 10 -905 -2z m4253 -597 c8 -9 1 -42 -23 -116 -97 -299 -275 -533 -493 -649 -104 -55 -180 -75 -277 -76 -68 0 -89 5 -140 30 l-60 29 -120 298 c-98 247 -117 300 -105 308 32 20 203 69 341 98 214 44 492 75 754 84 44 2 87 4 96 5 9 1 21 -4 27 -11z"></path><path id="pD6gkYdUJ" d="M6779 4470 c-25 -4 -85 -20 -132 -34 -198 -61 -324 -204 -356 -407 -18 -111 12 -383 66 -594 17 -67 19 -70 51 -73 44 -4 48 10 27 124 -19 108 -17 149 13 217 38 86 165 143 372 168 124 14 475 14 615 0 178 -19 475 -77 496 -98 5 -5 -11 -43 -39 -93 -55 -97 -229 -403 -356 -628 -47 -84 -86 -155 -86 -157 0 -10 -248 -419 -296 -488 -30 -43 -54 -80 -54 -83 0 -2 19 -16 43 -31 80 -52 197 -154 310 -274 76 -79 119 -117 129 -114 8 3 30 45 48 93 43 110 143 333 303 673 215 459 314 728 324 885 5 71 2 94 -27 190 -39 131 -108 320 -154 419 -31 67 -38 75 -82 95 -66 30 -257 99 -319 115 -27 8 -84 22 -125 33 -167 45 -318 64 -525 68 -110 1 -221 -1 -246 -6z"></path><path id="p1AsV5JrLS" d="M3044 2017 c-12 -6 -80 -51 -150 -98 -71 -47 -173 -109 -226 -138 -54 -29 -100 -56 -103 -61 -3 -5 12 -35 33 -67 22 -32 85 -133 141 -225 56 -91 109 -169 118 -172 18 -7 306 138 376 190 53 38 84 82 93 131 5 26 -3 52 -39 125 -41 83 -197 319 -215 325 -4 2 -17 -3 -28 -10z"></path><path id="pxWTjxIun" d="M3729 1932 c-80 -53 -191 -122 -247 -152 -56 -30 -102 -59 -102 -64 0 -4 44 -79 98 -165 54 -86 112 -181 130 -212 17 -30 41 -64 53 -75 21 -19 21 -18 155 51 247 128 324 193 324 275 0 51 -61 170 -156 306 -42 60 -79 115 -81 122 -3 6 -10 12 -17 12 -6 0 -76 -44 -157 -98z"></path></g></g></svg>