<svg width="998" height="164" viewBox="0 0 998 164" fill="none" xmlns="http://www.w3.org/2000/svg">
<g clip-path="url(#clip0_3_107)">
<path d="M896.76 76.07C887.64 76 876.67 75.69 865.05 75.36C850.91 74.96 836.3 74.54 823.89 74.54C812.13 74.54 807.36 74.89 802.31 75.25C798.41 75.53 794.38 75.82 786.89 75.94L764.51 75.2C760.32 75.23 747.44 75.3 744.28 75.52C743.37 75.59 742.62 75.2 742.23 74.48C741.51 73.14 742.29 71.07 743.32 69.71C745.54 66.78 747.44 64.24 749.1 62.01C750.34 60.36 751.44 58.87 752.47 57.52C752.79 57.1 753.12 56.69 753.46 56.27C755.8 53.38 756.26 52.37 754.85 51.19C753.04 49.68 742.83 42.99 741.17 42.01C739.8 41.2 738.78 42.26 736.6 45.65C736.24 46.2 735.88 46.76 735.52 47.29L733.7 46.03C734.05 45.52 734.4 44.99 734.74 44.45C736.57 41.6 738.85 38.06 742.3 40.1C743.87 41.03 754.29 47.83 756.28 49.49C759.58 52.24 757.04 55.37 755.19 57.66C754.87 58.05 754.55 58.45 754.25 58.85C753.23 60.2 752.12 61.68 750.89 63.33C749.22 65.56 747.33 68.1 745.1 71.04C744.41 71.95 744.16 72.9 744.18 73.3C747.67 73.09 759.91 73.01 764.55 72.99L786.92 73.73C794.29 73.61 798.29 73.33 802.16 73.05C807.03 72.7 812.06 72.33 823.9 72.33C836.34 72.33 850.97 72.75 865.12 73.15C876.73 73.48 887.69 73.8 896.79 73.86L896.77 76.07H896.76Z" fill="white"/>
<path d="M682 136.08C681.58 136.08 681.18 135.96 680.82 135.72C680.13 135.26 679.71 134.41 679.7 133.46C679.67 128.72 682.5 115.49 686.63 109.12L688.49 110.32C684.64 116.27 681.89 129.05 681.92 133.44C681.92 133.7 682.02 133.85 682.06 133.87C687.25 131.74 700.36 122.92 704.68 118.62C707.56 115.76 715.92 105.2 723.71 95.25C724.61 94.1 725.7 92.96 726.98 93.23C728.36 93.51 728.78 95.08 729.27 96.9C730.13 100.09 730.8 101.47 732.53 101.27C735.04 100.97 737.48 100.6 740.06 100.21C744.71 99.5 749.52 98.77 755.76 98.3H785.25C793.26 98.2 797.54 97.89 801.67 97.6C806.72 97.24 811.93 96.87 823.9 96.87C835.87 96.87 849.76 97.26 862.64 97.64C874.29 97.98 886.34 98.34 897.67 98.4H897.7C901.54 98.4 904.44 94.76 907.01 91.54C907.42 91.02 907.82 90.52 908.22 90.05C909.93 88 911.65 87.14 913.35 87.47C916.36 88.08 917.72 92.32 917.87 92.8L918.04 93.37L917.66 93.83C917.37 94.18 910.57 102.42 905.84 106.25C904.32 107.48 903.5 108.21 902.78 108.84C901.48 110 900.53 110.83 896.59 113.64C892.39 116.62 889.01 119.15 886.3 121.19C882.36 124.15 879.82 126.05 878.04 126.87C879.84 126.77 883.4 126.47 888.67 125.95C893.03 124.18 896.87 122.45 900.41 120.65C915.24 113.13 927.4 102.37 934.66 90.35C937.16 86.22 938.28 81.96 939.49 76.82L939.62 76.25C941.09 69.85 942.48 56.01 937.22 49.41C935.26 46.95 932.62 45.75 929.15 45.75C923.47 45.75 918.01 48.92 912.9 55.16C907.74 61.47 905.12 67.64 905.12 73.51C905.12 73.98 905.14 74.44 905.18 74.89L905.28 76.1L896.77 76.04V73.83L902.91 73.87C902.91 73.75 902.91 73.63 902.91 73.51C902.91 67.11 905.7 60.47 911.19 53.76C916.74 46.98 922.78 43.54 929.15 43.54C933.28 43.54 936.57 45.05 938.95 48.04C944.72 55.28 943.44 69.49 941.77 76.75L941.64 77.33C940.43 82.48 939.21 87.1 936.55 91.5C929.08 103.87 916.6 114.92 901.41 122.63C897.77 124.48 893.83 126.25 889.35 128.06L889.04 128.14C882.35 128.8 878.44 129.12 877.1 129.12C874.49 129.12 874.21 127.67 874.21 127.04V126.7L874.4 126.42C874.77 125.86 875.5 125.43 876.76 125.01C878.23 124.48 880.91 122.47 884.98 119.42C887.7 117.38 891.09 114.84 895.32 111.84C899.17 109.1 900.07 108.3 901.33 107.18C902.07 106.52 902.9 105.78 904.47 104.52C908.4 101.34 914.04 94.72 915.57 92.89C915.13 91.76 914.15 89.88 912.92 89.63C911.88 89.42 910.73 90.51 909.94 91.45C909.56 91.91 909.16 92.4 908.76 92.91C906.02 96.34 902.62 100.6 897.72 100.6H897.68C886.32 100.54 874.26 100.19 862.6 99.84C849.73 99.46 836.42 99.07 823.92 99.07C811.42 99.07 806.85 99.44 801.84 99.8C797.67 100.1 793.37 100.4 785.28 100.5H755.86C749.79 100.96 745.02 101.69 740.41 102.39C737.81 102.78 735.36 103.16 732.81 103.46C728.89 103.94 727.8 99.88 727.15 97.47C726.98 96.83 726.74 95.92 726.52 95.51C726.33 95.65 726 95.95 725.48 96.62C717.64 106.62 709.23 117.24 706.27 120.19C701.82 124.62 688.28 133.72 682.9 135.89C682.61 136.01 682.32 136.06 682.03 136.06L682 136.08Z" fill="white"/>
<path d="M262.02 135.53C261.6 135.53 261.19 135.45 260.78 135.27C259.79 134.86 238.17 127.85 223.88 123.24L222.06 122.65L223.47 121.36C228.42 116.84 236.92 109.19 238.22 108.74C238.82 108.45 241.72 105.8 243.63 104.05C246.68 101.26 248.09 100 248.76 99.6701C250.33 98.9001 251.65 98.9001 255.09 99.2901C257.61 99.5701 269.29 102.55 277.82 104.72C280.82 105.48 283.26 106.1 284.43 106.39C285.63 106.68 286.64 106.98 287.47 107.3C287.33 106.61 287.04 105.97 286.61 105.37C283.09 100.43 271.06 99.1501 264.6 98.4501C263.2 98.3001 262.02 98.1701 261.19 98.0401C256.18 97.2501 242.79 95.8801 240.87 95.8601H240.61C238.2 95.8301 236.12 95.8001 235.29 96.6601C234.85 97.1201 234.67 97.9301 234.75 99.1401L234.79 99.7401C234.87 100.99 234.92 101.96 234.93 102.28L232.72 102.34C232.72 102.03 232.65 101.09 232.58 99.8701L232.54 99.2701C232.43 97.4101 232.8 96.0601 233.69 95.1301C235.18 93.5601 237.71 93.6001 240.64 93.6401H240.9C242.96 93.6701 256.39 95.0301 261.54 95.8501C262.34 95.9801 263.48 96.1001 264.84 96.2401C272.13 97.0201 284.32 98.3301 288.42 104.07C289.39 105.43 289.85 106.96 289.79 108.62C290.28 109.08 290.55 109.59 290.61 110.15C290.74 111.21 289.52 117.65 289.14 119.22C288.63 121.3 288.87 123.6 289.3 123.94C290.68 124.58 310.37 129.07 314 129.43C314.5 129.48 314.85 129.42 315.04 129.25C315.35 128.97 315.47 128.29 315.52 127.55C314.83 126.01 314.47 124.13 314.18 122.61C314.11 122.22 314.04 121.87 313.97 121.55C312.51 114.8 313.35 108.12 316.29 103.23L318.21 100.03L318.35 103.76C318.37 104.41 318.41 105.07 318.45 105.72L318.52 107C318.73 111.2 318.91 115.32 318.68 119.48C318.6 120.93 318.35 122.29 318.11 123.6C318.03 124.03 317.95 124.46 317.87 124.9C317.79 125.35 317.78 125.92 317.77 126.53C317.77 126.72 317.77 126.91 317.76 127.1C317.97 127.49 318.21 127.81 318.47 128.03C320.05 129.31 323.1 126.43 324.74 124.87C325.02 124.61 325.27 124.37 325.49 124.17C327.9 122 330.36 119.99 332.74 118.05C339.32 112.68 345.53 107.62 349.9 99.9301C352.13 96.0101 362.07 96.5101 372.06 97.3601C373.26 97.4601 374.28 97.5501 375.02 97.5901L422.7 97.7601L431.01 98.0201C441.81 98.0501 447.23 98.0601 448.61 98.0001C449.44 97.9601 451.52 96.4001 453.04 95.2601C455.86 93.1401 458.08 91.4801 459.73 92.2801C460.52 92.6701 460.94 93.5001 460.95 94.7501C460.97 96.3301 459.1 99.4201 458.45 100.44C456.72 104.22 455.84 107.75 455.84 110.94C455.84 114.44 458.04 117.23 462.55 119.47C466.35 121.35 470.38 122.3 474.52 122.3C480.82 122.3 486.75 121.11 492.16 118.76C495.52 117.27 497.84 115.46 499.04 113.4C500.07 111.5 500.6 108.52 500.6 104.57C500.6 98.1201 498.78 92.2001 495.18 86.9801L494.69 86.2701L495.25 85.6201C499.53 80.6701 499.99 77.4201 499.58 76.2901C499.42 75.8301 499.16 75.7801 499.06 75.7601C496.83 75.3701 494.27 75.5601 491.03 75.7901C488.53 75.9701 485.7 76.1701 482.3 76.1701C473.56 76.1701 464.96 76.0901 455 75.9901C450.05 75.9401 444.75 75.8901 438.91 75.8401L431.27 75.5101L398.77 75.1501C372.23 74.8401 363.42 79.0201 360.53 80.4001C360.28 80.5201 360.07 80.6201 359.88 80.7001C352.29 84.0701 348.85 84.7801 347.17 83.3201C346.31 82.5701 346.1 81.3801 346.56 79.8001C347.2 77.6101 348.48 76.1601 349.33 75.2001C349.62 74.8701 350.03 74.4101 350.09 74.2401C350.06 74.3201 350.09 74.4901 350.15 74.5501L351.56 72.8401C352.01 73.2301 352.26 73.6901 352.3 74.2101C352.36 75.1401 351.73 75.8501 351 76.6701C350.2 77.5701 349.2 78.7001 348.7 80.4201C348.46 81.2301 348.55 81.5801 348.64 81.6501C349.01 81.9701 350.76 82.3301 358.99 78.6801C359.16 78.6001 359.35 78.5101 359.58 78.4001C362.91 76.8101 371.74 72.6001 398.8 72.9301L431.34 73.2901L438.97 73.6201C444.78 73.6701 450.08 73.7201 455.03 73.7701C464.99 73.8701 473.58 73.9501 482.31 73.9501C485.63 73.9501 488.42 73.7501 490.88 73.5701C494.27 73.3201 496.95 73.1301 499.45 73.5701C500.48 73.7501 501.3 74.4601 501.68 75.5301C502.59 78.0801 501.03 82.1101 497.49 86.4101C501.03 91.8301 502.83 97.9301 502.83 104.55C502.83 108.93 502.23 112.17 500.98 114.46C499.53 116.96 496.87 119.08 493.06 120.77C487.36 123.24 481.13 124.49 474.53 124.49C470.04 124.49 465.68 123.46 461.58 121.43C456.31 118.82 453.64 115.28 453.64 110.92C453.64 107.39 454.6 103.53 456.48 99.4301L456.55 99.3001C457.61 97.6401 458.75 95.4201 458.74 94.7701C458.74 94.5201 458.71 94.3701 458.69 94.2801C457.87 94.3801 455.7 96.0201 454.37 97.0101C452.14 98.6801 450.22 100.13 448.71 100.2C447.27 100.26 441.84 100.25 431 100.22H429.81L422.65 99.9601L374.95 99.7901C374.13 99.7501 373.09 99.6601 371.87 99.5501C366.86 99.1201 353.54 98.0001 351.82 101.01C347.24 109.06 340.87 114.25 334.13 119.76C331.77 121.69 329.32 123.68 326.96 125.81C326.75 126 326.52 126.22 326.26 126.47C324.17 128.45 320.31 132.11 317.25 129.88C317.07 130.26 316.83 130.61 316.5 130.9C315.83 131.5 314.91 131.75 313.77 131.63C309.96 131.25 289.64 126.67 288.19 125.86C286.16 124.73 286.56 120.63 286.91 118.94C286.82 118.98 286.72 119.02 286.61 119.05C285.86 119.29 285.31 118.79 285.02 118.52C284.82 118.34 284.63 118.16 284.38 118.08C283.48 117.78 283.3 117.9 282.6 118.36C282.22 118.61 281.75 118.92 281.09 119.18C280.07 119.65 274.77 124.98 271.6 128.17C269.46 130.32 267.62 132.18 266.78 132.9C265 134.45 263.46 135.49 261.98 135.49L262.02 135.53ZM226.39 121.72C234.2 124.24 260.6 132.77 261.67 133.24C262.08 133.42 262.91 133.41 265.37 131.27C266.15 130.59 267.97 128.76 270.07 126.65C276.21 120.47 279.14 117.64 280.29 117.17C280.75 116.98 281.09 116.76 281.42 116.54C282.26 116 283.21 115.38 285.12 116.02C285.41 116.12 285.66 116.25 285.87 116.39C286.16 115.35 286.59 113.47 287.18 110.87L287.42 109.83C287.42 109.83 287.44 109.75 287.45 109.71C286.8 109.39 285.72 108.99 283.94 108.56C282.76 108.28 280.31 107.65 277.3 106.89C269.79 104.98 257.23 101.78 254.86 101.51C251.5 101.13 250.71 101.21 249.75 101.68C249.24 101.95 246.87 104.12 245.14 105.7C241.46 109.07 239.76 110.57 238.95 110.85C238.09 111.29 232.08 116.56 226.39 121.72ZM316.4 108.61C315.32 112.36 315.21 116.77 316.15 121.1C316.18 121.25 316.21 121.4 316.25 121.57C316.37 120.85 316.46 120.13 316.5 119.38C316.69 115.81 316.58 112.24 316.41 108.61H316.4Z" fill="white"/>
<path d="M520.73 88.9101C515.54 88.9101 511.49 88.3301 508.67 87.1901C504.89 85.6401 501.75 82.4401 499.82 78.1901L501.84 77.2801C503.53 81.0201 506.26 83.8101 509.51 85.1501C512.06 86.1801 515.83 86.7101 520.73 86.7101C521.69 86.7101 524.22 85.8201 530.44 79.8301C538.3 72.3401 543.15 67.9201 545.27 66.3201C551.73 61.4001 557.58 58.9101 562.65 58.9101C566.98 58.9101 570.13 60.0001 572.29 62.2401C574.93 64.9801 576.26 67.9201 576.26 70.9901C576.26 71.7201 576.22 72.4501 576.13 73.1701C576.13 73.1701 576.11 74.0801 576.44 74.8901C577.01 76.3101 577.6 76.3101 581.28 74.8701C584.01 73.8001 587.73 72.3301 592.51 72.4301L608.53 72.8801C615.69 73.0101 632.45 73.3201 642.17 73.3201C645.54 73.3201 654.58 73.4401 663.32 73.5601C671.34 73.6701 678.92 73.7501 680.81 73.7601L687.46 73.6301C692.86 73.6501 698.2 73.7601 705.9 74.0101C705.96 74.0101 706.02 74.0101 706.08 74.0101C712.7 74.0101 720.95 62.7601 726.43 55.2901C730.89 49.2101 732.37 47.3101 733.98 47.9201C735.19 48.3801 744.74 55.1001 747.64 57.1501L746.36 58.9601C740.98 55.1501 734.89 50.9501 733.43 50.1101C732.5 50.7601 730.23 53.8501 728.22 56.5901C722.07 64.9801 713.64 76.4401 705.83 76.2101C698.14 75.9701 692.83 75.8601 687.47 75.8301L680.83 75.9601C678.91 75.9901 671.32 75.8701 663.28 75.7601C654.55 75.6401 645.52 75.5101 642.16 75.5101C632.42 75.5101 615.64 75.2001 608.48 75.0701L606.15 75.0301L592.44 74.6201C588.11 74.5301 584.77 75.8601 582.07 76.9101C578.87 78.1601 575.84 79.3501 574.37 75.6901C573.86 74.4101 573.9 73.1001 573.91 72.9601C573.99 72.2501 574.03 71.6101 574.03 70.9701C574.03 68.5001 572.9 66.0701 570.68 63.7601C568.96 61.9701 566.32 61.1101 562.63 61.1101C558.06 61.1101 552.66 63.4501 546.59 68.0801C544.57 69.6001 539.65 74.0901 531.96 81.4201C524.98 88.1401 522.2 88.9201 520.72 88.9201L520.73 88.9101Z" fill="white"/>
<path d="M541.23 58.98L530.56 51.37L537.88 40.8L547.88 48.7401L541.22 58.98H541.23ZM533.63 50.84L540.63 55.84L544.93 49.23L538.36 44.0201L533.63 50.85V50.84Z" fill="white"/>
<path d="M472 134.3C457.31 134.3 449.87 127.61 449.87 114.43C449.87 111.38 450.33 108.32 451.24 105.33L453.36 105.97C452.51 108.75 452.09 111.6 452.09 114.43C452.09 126.31 458.6 132.09 472.01 132.09C483.31 132.09 492 128.76 497.82 122.19C503.41 115.9 506.24 106.82 506.24 95.1901V93.3801L507.85 94.2001C510.28 95.4401 512.58 96.0701 514.68 96.0701H517.61L517.09 97.5401C516.29 99.8301 515.85 101.99 515.79 103.97C516.05 103.56 516.38 103 516.79 102.25C518.34 99.3501 519.47 97.4501 520.25 96.4801L520.58 96.0701H521.11C530.09 96.0701 536.73 95.7101 540.85 94.9901C543.29 94.5401 545.71 93.9801 548.01 93.3201L552.08 92.2801C556.06 90.5701 558.5 93.5101 559.96 95.2701C560.35 95.7501 560.89 96.4001 561.13 96.5001C561.17 96.4801 561.71 96.3901 562.19 96.3201C564.44 95.9501 568.62 95.2601 572.84 96.1101C578.64 97.2801 580.68 97.4401 592.69 97.6801C595.31 97.7301 603.78 97.9301 603.78 97.9301C604.77 97.9801 612.1 97.9501 619.18 97.9301C627.83 97.9001 633.14 97.8901 633.87 97.9301C636.17 98.0601 642.44 98.0101 649.09 97.9501C653.02 97.9201 657.09 97.8801 660.61 97.8801C664.55 97.8801 672.38 97.8701 674.61 97.8501C674.72 97.8501 682.1 98.0201 684.13 97.8101C686.02 97.6201 687.85 97.3101 689.46 97.0301C693.06 96.4201 694.71 96.1301 695.44 97.2701C695.7 97.6701 695.86 98.3501 695.21 99.2901C694.78 99.9201 694.27 100.64 693.75 101.39C692.35 103.39 690.75 105.66 690.15 106.71C690.36 107.93 697.08 111.88 704.55 115.05L703.69 117.09C701.29 116.07 689.28 110.84 688.09 107.33C687.83 106.56 688.02 105.97 688.23 105.61C688.88 104.47 690.43 102.25 691.94 100.11C692.27 99.6401 692.6 99.1701 692.9 98.7401C692.06 98.8301 690.87 99.0301 689.84 99.2001C688.19 99.4801 686.33 99.8001 684.36 100C682.19 100.22 674.91 100.06 674.6 100.05C672.4 100.07 664.56 100.08 660.62 100.08C657.11 100.08 653.04 100.12 649.12 100.15C642.44 100.21 636.13 100.26 633.76 100.13C633.05 100.09 626.01 100.11 619.21 100.13C611.77 100.15 604.74 100.18 603.72 100.13C603.72 100.13 595.28 99.9401 592.66 99.8801C580.47 99.6301 578.39 99.4701 572.41 98.2601C568.6 97.4901 564.67 98.1401 562.56 98.4901C561.84 98.6101 561.36 98.6901 561.03 98.6901C559.93 98.6901 559.16 97.7601 558.26 96.6801C556.59 94.6601 555.22 93.3101 552.9 94.3401L552.73 94.4001L548.6 95.4601C546.25 96.1301 543.77 96.7101 541.25 97.1701C537.08 97.9001 530.5 98.2701 521.67 98.2801C520.98 99.2501 520 100.94 518.74 103.31C516.88 106.69 516.2 107.25 515.36 107.25C514.69 107.25 513.57 106.88 513.57 104.43C513.57 102.51 513.89 100.45 514.53 98.2801C512.6 98.2601 510.56 97.8001 508.44 96.9101C508.17 108.28 505.16 117.27 499.48 123.66C493.22 130.72 483.97 134.3 472.01 134.3H472Z" fill="white"/>
<path d="M-41.76 75.1601C-42.17 75.1601 -42.59 75.1601 -43 75.1601H-41.76ZM-41.76 72.9501C-21.65 73.0901 0.0900002 73.2301 15.23 73.3101H33.1C43.31 73.2701 49.92 73.3301 56.31 73.3901C63.03 73.4501 69.98 73.5201 81.23 73.4701C81.81 73.4901 82.54 73.4901 83.36 73.5201C86.35 73.6201 92.57 73.8301 93.65 72.0701C93.92 71.6301 93.81 70.9401 93.32 70.0401C92.78 69.3201 92.09 68.1601 91.3 66.8201C90.36 65.2201 89.29 63.4101 88.35 62.1801C88.14 61.9101 88.07 61.5501 88.16 61.2201C89.09 57.7901 90.35 52.5801 91.9 45.7301C91.98 45.3601 92.24 45.0701 92.6 44.9401C92.95 44.8101 93.35 44.8701 93.65 45.0901C96.3 47.0601 99.13 50.7501 102.31 56.3601C104.45 60.1801 105.82 63.8701 106.88 66.9801L107.03 67.4201C107.72 69.4901 108.38 71.4501 111.57 72.0401C111.76 72.0601 112.1 72.1101 112.57 72.1901C114.15 72.4501 117.43 72.9901 121.31 73.1301C130.25 73.4601 132.94 73.5601 136.26 73.8201C137.3 73.9001 139.27 73.8901 141.01 73.8801C142.07 73.8801 143.05 73.8601 143.71 73.8801L146.08 73.9401C147.96 73.9901 150.63 74.0701 153.19 74.1301L184.57 74.5701H213.99C217.65 74.5701 222.01 73.4401 225.63 71.5401C230.28 69.1101 235.13 66.2201 236.11 65.5201C237.92 64.2301 248.33 58.4301 250.45 57.4101C252.25 56.5501 256.81 54.6101 260.26 55.1201L260.68 55.1801C263.27 55.5701 267.61 56.2401 269.33 55.0701C271.49 53.6101 272.75 51.1201 273.17 47.4701C273.71 42.8201 277.04 30.6201 277.5 29.1701C277.58 28.9301 277.65 28.6501 277.72 28.3601C278.14 26.7101 278.92 23.6201 282.51 24.0901C284.18 24.3001 289.28 25.3801 294.22 26.4201C298.45 27.3101 302.83 28.2301 303.84 28.3501C305.75 28.5701 319.97 30.2901 323.03 30.8301C324.93 31.1701 334.52 32.8901 337.13 33.4701C338.1 33.6801 338.8 33.8101 339.34 33.9101C340.16 34.0601 340.71 34.1601 341.3 34.4101C342.49 34.9101 343.94 35.8201 344.13 37.2901C344.28 38.4801 344.05 40.5001 343.48 42.8601C342.95 45.0901 338.47 62.8701 338.01 64.2701C337.57 65.5801 336.92 67.6401 336.92 67.6401C336.92 67.6401 336.92 67.6501 336.92 67.6601C337.81 67.8801 338.76 68.1601 339.73 68.5201C340.74 68.8901 342.15 69.3201 343.64 69.7701C347.68 70.9901 350.42 71.8601 351.6 72.8801C352.06 73.2801 352.12 73.9801 351.72 74.4401C351.32 74.9001 350.62 74.9601 350.16 74.5601C349.24 73.7701 345.63 72.6801 343 71.8901C341.47 71.4301 340.03 71.0001 338.96 70.6001C335.98 69.4901 333.21 69.2101 332.45 69.3101C331.6 69.5901 325.94 73.5601 321.91 76.7501C319.63 78.5501 317.26 79.0201 315.37 79.0201C313.91 79.0201 312.74 78.7401 312.12 78.6001L311.96 78.5601C311.67 78.4901 310.93 78.3301 309.96 78.1301C305.83 77.2501 301.33 76.2701 300.17 75.8701C299.01 75.4701 285.02 72.3201 279.05 70.9801C277.11 70.5401 275.77 70.2401 275.5 70.1801C275.37 70.1501 262.19 66.8601 261.38 65.7001C261.16 65.3801 260.81 64.6801 261.02 63.6101C261.35 61.8801 263.02 59.9901 265.99 57.9701C264.09 57.9701 262.06 57.6501 260.36 57.3901L259.94 57.3301C257.61 56.9801 254.01 58.1801 251.41 59.4201C249.15 60.5001 238.97 66.2101 237.4 67.3401C236.38 68.0701 231.4 71.0501 226.66 73.5201C224.77 74.5101 219.76 76.8001 213.99 76.8001H184.55L153.15 76.3601C150.58 76.3001 147.91 76.2201 146.02 76.1701L143.66 76.1101C143.02 76.0901 142.06 76.1101 141.03 76.1101C139.25 76.1201 137.23 76.1401 136.09 76.0501C132.82 75.7901 130.13 75.6901 121.23 75.3601C117.21 75.2101 113.84 74.6601 112.21 74.3901C111.78 74.3201 111.49 74.2701 111.35 74.2601C111.31 74.2601 111.25 74.2601 111.21 74.2401C106.69 73.4301 105.67 70.3701 104.92 68.1301L104.78 67.7001C103.75 64.6901 102.42 61.1101 100.37 57.4501C97.94 53.1501 95.69 49.9901 93.66 48.0201C92.36 53.7001 91.28 58.1501 90.45 61.2901C91.38 62.5801 92.35 64.2301 93.22 65.7101C93.96 66.9701 94.67 68.1701 95.14 68.7801C95.17 68.8201 95.2 68.8701 95.23 68.9201C96.17 70.6101 96.27 72.0701 95.55 73.2501C93.93 75.8901 88.83 75.9401 83.3 75.7501C82.51 75.7201 81.83 75.7101 81.25 75.7001C69.99 75.7501 63.03 75.6801 56.3 75.6201C49.92 75.5601 43.32 75.5001 33.12 75.5401H15.24C0.110001 75.4601 -21.63 75.3201 -41.74 75.1901M-42.84 72.9401C-42.48 72.9401 -42.12 72.9401 -41.76 72.9401H-42.84ZM263.18 64.2801C264.98 65.0401 274.25 67.5801 276.01 68.0001C276.28 68.0601 277.62 68.3701 279.54 68.8001C289.97 71.1501 299.78 73.3701 300.91 73.7601C302.04 74.1501 307.71 75.3701 310.44 75.9501C311.43 76.1601 312.18 76.3201 312.47 76.3901L312.64 76.4301C313.93 76.7301 317.34 77.5401 320.55 75.0001C320.64 74.9301 329.68 67.8901 331.94 67.1601C330.23 66.9101 328.08 67.0701 325.97 68.4401C324.89 69.1401 324.1 69.7601 323.4 70.3001C320.57 72.4901 319.35 73.1301 312.66 71.7901C307.2 70.7001 272.85 63.1001 272.19 62.7701C271.84 62.6001 271.61 62.2601 271.58 61.8701C271.55 61.4801 271.72 61.1101 272.03 60.8801C273.11 60.0901 274.01 59.4601 274.74 59.0101C273.39 58.1801 270.91 57.3701 267.72 59.4501C263.46 62.2301 263.16 63.8101 263.19 64.2701L263.18 64.2801ZM275.33 61.2801C282.85 63.0101 306.28 68.2701 313.09 69.6201C319.11 70.8201 319.73 70.3401 322.04 68.5501C322.74 68.0101 323.6 67.3401 324.76 66.5901C328.92 63.8701 333.17 64.9501 335.21 65.7701C335.43 65.0901 335.71 64.2301 335.93 63.5701C336.34 62.3401 340.78 44.7001 341.35 42.3501C341.94 39.9201 342.05 38.2901 341.96 37.5901C341.93 37.3901 341.51 36.9101 340.47 36.4601C340.1 36.3101 339.7 36.2301 338.98 36.1001C338.42 36.0001 337.7 35.8701 336.69 35.6501C334.07 35.0701 323.84 33.2401 322.68 33.0301C319.78 32.5101 306.07 30.8401 303.63 30.5701C302.51 30.4401 298.48 29.5901 293.8 28.6101C289.14 27.6301 283.85 26.5101 282.27 26.3101C280.85 26.1401 280.44 26.8101 279.9 28.9301C279.81 29.2701 279.73 29.5901 279.64 29.8701C279.07 31.6301 275.89 43.4901 275.4 47.7501C274.98 51.3801 273.81 54.0801 271.84 55.9401C274.54 55.9801 276.6 57.3801 277.58 58.5101C277.84 58.8101 277.92 59.2301 277.79 59.6101C277.66 59.9901 277.33 60.2601 276.94 60.3301C276.74 60.4001 276.11 60.7901 275.36 61.3001L275.33 61.2801Z" fill="white"/>
<path d="M-42.84 97.6C-22.9 97.71 0.0299721 97.82 15.23 97.88L34.08 97.31C43.88 97.24 50.23 97.41 56.95 97.6C63.22 97.77 69.7 97.94 79.53 97.94H85.93C88.93 97.94 90.05 99.11 90.45 100.09C91.34 102.22 89.74 105.29 85.57 109.5C74.91 118.98 64.33 123.77 54.09 123.77C51.45 123.77 47.64 122.41 42.43 119.62C35.92 116.13 34.6 115.77 34.35 115.73C34.35 115.73 34.21 115.92 34.21 116.55C34.21 116.76 34.58 118.82 47.24 124.93C56.15 129.23 62.31 131.41 65.56 131.41C74.31 131.41 83.25 126.03 92.13 115.42C95.42 111.45 98.18 107.29 100.32 103.06C100.6 102.51 101.26 102.3 101.81 102.57C102.36 102.85 102.57 103.51 102.3 104.06C100.08 108.43 97.24 112.73 93.84 116.84C84.52 127.98 75.01 133.63 65.57 133.63C61.94 133.63 55.64 131.44 46.29 126.93C33.7 120.86 32.01 118.28 32.01 116.56C32.01 113.74 33.84 113.53 34.4 113.53C34.87 113.53 35.75 113.53 43.49 117.68C48.3 120.26 51.87 121.57 54.11 121.57C63.79 121.57 73.87 116.97 84.07 107.91C88.93 103.01 88.55 101.27 88.43 100.97C88.22 100.48 87.3 100.18 85.95 100.18H79.55C69.69 100.18 63.19 100 56.91 99.84C50.21 99.66 43.88 99.49 34.14 99.55L15.27 100.12C0.0499725 100.06 -22.88 99.95 -42.83 99.84" fill="white"/>
<path d="M231.32 108.59C230.9 108.59 230.46 108.54 229.98 108.44C227.01 107.83 223.75 107.58 221.59 107.41C220.02 107.29 219.5 107.25 219.16 107.13L219.03 107.09C217.67 106.72 216.71 105.78 216.42 102.39C216.41 102.21 216.39 102.02 216.38 101.83C216.37 101.62 216.36 101.4 216.34 101.18C215.14 100.78 210.12 100.13 189.72 100.5L188.6 100.52H183.86C180.1 100.58 176.08 100.64 170.12 100.66L163.21 100.64H160.03L144.04 100.56L116.55 100.62H114.82C113.79 100.62 112.77 100.54 111.78 100.47C107.8 100.18 104.66 99.9599 102.26 104.1C101.96 104.63 101.28 104.81 100.75 104.51C100.22 104.2 100.04 103.53 100.35 103C103.44 97.6499 107.95 97.9799 111.94 98.2699C112.89 98.3399 113.87 98.4099 114.82 98.4099H116.56L144.04 98.3599L160.03 98.4499H163.21L170.12 98.4599C176.06 98.4399 180.08 98.3799 183.85 98.3199L189.69 98.2999C218.12 97.7899 218.3 99.0799 218.5 100.46C218.56 100.91 218.59 101.33 218.61 101.72C218.61 101.89 218.63 102.06 218.64 102.22C218.86 104.76 219.36 104.9 219.62 104.97C219.72 105 219.81 105.02 219.9 105.05C220.06 105.08 220.92 105.15 221.76 105.21C223.97 105.38 227.32 105.63 230.43 106.28C231.04 106.41 231.87 106.48 232.3 106.09C233 105.47 232.84 103.73 232.77 102.9C232.75 102.68 232.73 102.49 232.73 102.36C232.71 101.75 233.19 101.24 233.81 101.22C234.42 101.22 234.93 101.68 234.95 102.3C234.95 102.4 234.97 102.54 234.98 102.71C235.09 103.9 235.31 106.39 233.78 107.75C233.14 108.32 232.32 108.6 231.32 108.6V108.59Z" fill="white"/>
<path d="M997.38 1.21997H835.36V162.22H997.38V1.21997Z" fill="#FF8B00"/>
<path d="M997.38 163.45H835.37V0H997.38V163.45ZM837.37 161.43H995.38V2.02H837.37V161.43Z" fill="white"/>
<path d="M900.53 75.7998C890.85 75.7298 885.06 75.5298 879.46 75.3398C874.35 75.1698 869.07 74.9898 860.79 74.8998H835.7V72.7998H860.81C869.13 72.8898 874.42 73.0698 879.54 73.2398C885.38 73.4398 890.9 73.6198 900.56 73.6998L900.54 75.7998H900.53Z" fill="white"/>
<path d="M881.03 128.41C878.49 128.41 878.21 127 878.21 126.4C878.21 126.19 878.27 125.99 878.39 125.82C878.75 125.28 879.46 124.85 880.7 124.44C882.16 123.91 884.83 121.91 888.86 118.89C891.56 116.87 894.92 114.35 899.11 111.37C902.93 108.65 903.83 107.85 905.07 106.75C905.8 106.1 906.63 105.36 908.18 104.11C912.09 100.95 917.72 94.3399 919.21 92.5499C918.77 91.4299 917.78 89.5199 916.54 89.2699C915.49 89.0599 914.32 90.1499 913.54 91.0899C913.16 91.5499 912.77 92.0399 912.37 92.5399C909.65 95.9399 906.32 100.18 901.42 100.15C889.74 100.09 883.8 99.7399 878.06 99.4099C873 99.1099 868.21 98.8399 859.81 98.7499H835.7V96.6499H859.82C868.28 96.7399 873.09 97.0199 878.18 97.3199C883.9 97.6499 889.81 97.9999 901.43 98.0599H901.46C905.28 98.0599 908.18 94.4399 910.73 91.2399C911.14 90.7299 911.54 90.2299 911.93 89.7599C913.61 87.7399 915.3 86.8799 916.97 87.2199C919.93 87.8199 921.27 91.9999 921.42 92.4699C921.52 92.8099 921.45 93.1699 921.23 93.4399C920.95 93.7899 914.21 101.96 909.52 105.75C908.01 106.97 907.2 107.69 906.49 108.32C905.2 109.47 904.26 110.3 900.35 113.08C896.18 116.04 892.83 118.55 890.14 120.57C886.06 123.63 883.5 125.55 881.72 126.3C883.41 126.22 887.03 125.91 892.53 125.37C897.81 123.23 902.4 121.1 906.54 118.88C913.2 115.3 919.08 111.19 924.02 106.65C929.16 101.93 934.45 96.8199 937.73 90.8499C939.91 86.8799 941.24 82.4899 942.36 78.3399C943.43 74.3599 944.47 70.0999 944.47 65.7799C944.47 52.3099 940.61 45.7699 932.66 45.7699C927.02 45.7699 921.58 48.9099 916.51 55.1099C911.39 61.3699 908.79 67.5099 908.79 73.3399C908.79 73.8099 908.81 74.2599 908.85 74.7099C908.87 74.9999 908.77 75.2899 908.57 75.5099C908.37 75.7299 908.09 75.8499 907.8 75.8499L900.56 75.7999V73.6999L906.7 73.7399C906.7 73.6099 906.7 73.4699 906.7 73.3399C906.7 67.0099 909.46 60.4299 914.9 53.7799C920.39 47.0699 926.37 43.6699 932.68 43.6699C941.91 43.6699 946.59 51.1099 946.59 65.7799C946.59 70.3599 945.51 74.7599 944.41 78.8799C943.26 83.1599 941.89 87.6999 939.59 91.8599C936.15 98.0999 930.72 103.35 925.46 108.19C920.4 112.84 914.37 117.06 907.55 120.72C903.3 123 898.61 125.17 893.19 127.36C893.1 127.4 893 127.42 892.9 127.43C886.26 128.08 882.38 128.4 881.06 128.4L881.03 128.41Z" fill="white"/>
</g>
<defs>
<clipPath id="clip0_3_107">
<rect width="1040.38" height="163.45" fill="white" transform="translate(-43)"/>
</clipPath>
</defs>
</svg>
