<svg width="618" height="363" viewBox="0 0 618 363" fill="none" xmlns="http://www.w3.org/2000/svg">
<path d="M47.9001 321.67C47.4701 321.67 47.0401 321.58 46.6201 321.4C45.6001 320.97 23.2301 313.72 8.44006 308.95L6.56006 308.34L8.02006 307.01C13.1501 302.33 21.9401 294.41 23.2801 293.95C23.9001 293.65 26.9001 290.91 28.8801 289.1C32.0401 286.21 33.4901 284.91 34.1901 284.57C35.8101 283.78 37.1801 283.78 40.7401 284.18C43.3401 284.47 55.4401 287.55 64.2701 289.8C67.3701 290.59 69.9001 291.23 71.1101 291.52C72.3501 291.82 73.3901 292.13 74.2601 292.47C74.1101 291.76 73.8201 291.1 73.3701 290.47C69.7301 285.36 57.2801 284.03 50.5901 283.31C49.1401 283.15 47.9201 283.02 47.0701 282.89C41.8901 282.07 28.0301 280.66 26.0401 280.63H25.7701C23.2701 280.6 21.1201 280.56 20.2701 281.46C19.8101 281.94 19.6301 282.78 19.7101 284.02L19.7501 284.65C19.8301 285.95 19.8901 286.95 19.9001 287.28L17.6101 287.34C17.6101 287.02 17.5401 286.05 17.4601 284.79L17.4201 284.16C17.3001 282.24 17.6901 280.84 18.6101 279.87C20.1501 278.25 22.7701 278.29 25.8001 278.33H26.0701C28.2001 278.36 42.1001 279.77 47.4301 280.62C48.2601 280.75 49.4401 280.88 50.8401 281.03C58.3801 281.84 71.0001 283.19 75.2401 289.14C76.2501 290.55 76.7201 292.13 76.6601 293.85C77.1701 294.33 77.4401 294.85 77.5101 295.43C77.6401 296.53 76.3801 303.2 75.9801 304.82C75.4501 306.97 75.7001 309.35 76.1401 309.71C77.5701 310.37 97.9501 315.02 101.7 315.39C102.22 315.44 102.58 315.38 102.78 315.2C103.1 314.91 103.22 314.21 103.27 313.44C102.56 311.84 102.18 309.9 101.88 308.33C101.8 307.93 101.73 307.56 101.66 307.24C100.15 300.26 101.02 293.34 104.06 288.28L106.05 284.97L106.19 288.83C106.21 289.5 106.26 290.18 106.3 290.86L106.38 292.18C106.6 296.53 106.78 300.79 106.55 305.1C106.47 306.6 106.21 308 105.96 309.36C105.88 309.8 105.79 310.25 105.72 310.71C105.64 311.17 105.63 311.77 105.61 312.39C105.61 312.58 105.61 312.78 105.59 312.98C105.81 313.38 106.05 313.72 106.33 313.94C107.97 315.27 111.13 312.28 112.82 310.67C113.11 310.4 113.37 310.15 113.59 309.95C116.08 307.71 118.63 305.63 121.1 303.61C127.91 298.06 134.33 292.81 138.86 284.86C141.17 280.8 151.45 281.32 161.79 282.2C163.03 282.31 164.09 282.39 164.85 282.44L214.19 282.62L222.79 282.89C233.96 282.92 239.57 282.93 241.01 282.87C241.87 282.83 244.02 281.21 245.59 280.03C248.5 277.84 250.8 276.11 252.52 276.95C253.34 277.35 253.77 278.21 253.79 279.51C253.81 281.15 251.88 284.34 251.21 285.39C249.42 289.3 248.51 292.96 248.51 296.25C248.51 299.87 250.78 302.76 255.46 305.07C259.39 307.01 263.56 308 267.85 308C274.37 308 280.51 306.77 286.1 304.34C289.58 302.8 291.98 300.93 293.22 298.79C294.29 296.83 294.84 293.74 294.84 289.66C294.84 282.98 292.95 276.86 289.23 271.46L288.73 270.73L289.31 270.06C293.74 264.93 294.21 261.58 293.79 260.4C293.62 259.92 293.35 259.87 293.25 259.86C290.95 259.46 288.3 259.65 284.94 259.89C282.35 260.08 279.42 260.29 275.9 260.29C266.86 260.29 257.95 260.2 247.65 260.1C242.53 260.05 237.04 260 231 259.95L223.1 259.61L189.46 259.24C162 258.91 152.88 263.25 149.89 264.68C149.63 264.8 149.41 264.91 149.22 264.99C141.37 268.48 137.8 269.21 136.07 267.7C135.18 266.92 134.97 265.69 135.44 264.06C136.1 261.79 137.43 260.29 138.31 259.3C138.61 258.95 139.03 258.48 139.09 258.31C139.06 258.4 139.09 258.56 139.15 258.63L140.61 256.86C141.08 257.26 141.34 257.74 141.37 258.27C141.43 259.23 140.78 259.96 140.02 260.82C139.19 261.76 138.15 262.92 137.64 264.7C137.4 265.54 137.49 265.91 137.57 265.98C137.95 266.31 139.76 266.68 148.28 262.9C148.46 262.82 148.66 262.72 148.89 262.61C152.33 260.97 161.48 256.61 189.48 256.95L223.15 257.32L231.05 257.66C237.06 257.71 242.54 257.76 247.67 257.81C257.97 257.91 266.87 258 275.9 258C279.34 258 282.22 257.79 284.77 257.61C288.28 257.36 291.06 257.16 293.64 257.61C294.71 257.8 295.55 258.54 295.94 259.64C296.88 262.28 295.26 266.44 291.6 270.9C295.27 276.51 297.12 282.82 297.12 289.67C297.12 294.21 296.5 297.56 295.21 299.93C293.71 302.52 290.95 304.71 287.01 306.46C281.11 309.02 274.67 310.31 267.83 310.31C263.19 310.31 258.68 309.25 254.42 307.14C248.96 304.44 246.2 300.78 246.2 296.26C246.2 292.61 247.19 288.61 249.14 284.37L249.22 284.23C250.32 282.51 251.49 280.21 251.48 279.55C251.48 279.3 251.45 279.14 251.43 279.04C250.58 279.15 248.33 280.84 246.96 281.87C244.66 283.6 242.67 285.1 241.1 285.17C239.61 285.23 233.99 285.22 222.78 285.19H221.55L214.14 284.92L164.77 284.74C163.93 284.7 162.85 284.6 161.58 284.5C156.39 284.06 142.61 282.89 140.84 286.01C136.1 294.34 129.51 299.72 122.54 305.41C120.09 307.41 117.57 309.47 115.12 311.67C114.91 311.86 114.66 312.09 114.39 312.35C112.23 314.4 108.23 318.18 105.06 315.88C104.88 316.28 104.63 316.63 104.29 316.93C103.59 317.55 102.64 317.81 101.47 317.69C97.5301 317.3 76.5001 312.56 75.0001 311.72C72.9001 310.55 73.3101 306.31 73.6801 304.56C73.5901 304.61 73.4801 304.64 73.3701 304.68C72.5901 304.92 72.0301 304.41 71.7201 304.13C71.5101 303.94 71.3101 303.76 71.0501 303.67C70.1201 303.36 69.9301 303.49 69.2001 303.96C68.8101 304.22 68.3201 304.54 67.6401 304.81C66.5901 305.29 61.1001 310.81 57.8201 314.11C55.6101 316.33 53.7001 318.25 52.8301 319.01C50.9901 320.61 49.3901 321.69 47.8601 321.69L47.9001 321.67ZM11.0301 307.38C19.1101 309.99 46.4301 318.82 47.5401 319.3C47.9601 319.48 48.8201 319.48 51.3701 317.27C52.1701 316.57 54.0601 314.68 56.2301 312.49C62.5801 306.1 65.6201 303.17 66.8101 302.68C67.2801 302.49 67.6401 302.26 67.9801 302.03C68.8501 301.47 69.8301 300.83 71.8001 301.49C72.1001 301.59 72.3601 301.73 72.5801 301.87C72.8801 300.79 73.3201 298.84 73.9401 296.16L74.1901 295.09C74.1901 295.09 74.2101 295 74.2201 294.96C73.5501 294.63 72.4301 294.21 70.5901 293.77C69.3701 293.48 66.8301 292.83 63.7201 292.04C55.9501 290.06 42.9501 286.75 40.5001 286.48C37.0201 286.09 36.2001 286.17 35.2101 286.65C34.6801 286.93 32.2301 289.17 30.4401 290.81C26.6301 294.29 24.8801 295.85 24.0401 296.14C23.1501 296.59 16.9301 302.05 11.0401 307.39L11.0301 307.38ZM104.18 293.82C103.06 297.7 102.94 302.26 103.92 306.75C103.95 306.9 103.99 307.06 104.02 307.23C104.14 306.48 104.24 305.74 104.28 304.96C104.48 301.26 104.36 297.57 104.19 293.82H104.18Z" fill="white"/>
<path d="M431.33 257.2C434.98 257.24 438.43 257.27 441.29 257.27C444.78 257.27 454.13 257.4 463.18 257.52C471.48 257.63 479.32 257.72 481.28 257.73L488.17 257.59C493.76 257.62 499.28 257.73 507.26 257.98C507.32 257.98 507.39 257.98 507.45 257.98C514.3 257.98 522.84 246.34 528.51 238.61C533.12 232.32 534.66 230.36 536.32 230.99C537.58 231.46 547.46 238.42 550.45 240.54L549.13 242.41C543.56 238.47 537.26 234.12 535.75 233.26C534.79 233.93 532.44 237.13 530.36 239.97C524 248.65 515.27 260.52 507.19 260.28C499.24 260.03 493.73 259.92 488.19 259.89L481.32 260.03C479.33 260.06 471.48 259.94 463.16 259.82C454.12 259.69 444.78 259.57 441.3 259.57C438.66 259.57 435.51 259.55 432.18 259.51" fill="white"/>
<path d="M432.18 259.5C422.8 259.4 411.91 259.2 406.45 259.1L404.04 259.06L389.86 258.63C385.38 258.54 381.92 259.91 379.12 261C375.8 262.3 372.67 263.52 371.15 259.74C370.62 258.41 370.67 257.06 370.68 256.91C370.77 256.18 370.81 255.52 370.81 254.85C370.81 252.29 369.64 249.78 367.34 247.39C365.56 245.54 362.83 244.64 359.01 244.64C354.28 244.64 348.7 247.07 342.41 251.85C340.32 253.43 335.23 258.07 327.27 265.66C320.05 272.61 317.17 273.42 315.64 273.42C310.27 273.42 306.08 272.82 303.16 271.64C299.25 270.03 296 266.73 294.01 262.32L296.1 261.37C297.85 265.24 300.67 268.13 304.03 269.51C306.67 270.58 310.57 271.12 315.64 271.12C316.63 271.12 319.26 270.19 325.69 264C333.83 256.24 338.85 251.67 341.03 250.02C347.72 244.93 353.77 242.35 359.01 242.35C363.49 242.35 366.75 243.48 368.99 245.8C371.72 248.63 373.1 251.68 373.1 254.85C373.1 255.6 373.05 256.36 372.96 257.1C372.96 257.1 372.94 258.04 373.28 258.88C373.87 260.35 374.48 260.35 378.28 258.86C381.11 257.76 384.96 256.23 389.91 256.33L406.49 256.8C411.79 256.9 422.17 257.09 431.34 257.19" fill="white"/>
<path d="M336.85 242.45L325.81 234.58L333.39 223.64L343.74 231.85L336.85 242.45ZM328.98 234.03L336.23 239.2L340.68 232.36L333.88 226.96L328.98 234.03Z" fill="white"/>
<path d="M432.57 285.02C431.83 284.98 424.55 285 417.51 285.02C409.81 285.05 402.54 285.07 401.48 285.02C401.48 285.02 392.75 284.82 390.04 284.77C377.42 284.51 375.27 284.34 369.09 283.1C365.14 282.31 361.08 282.98 358.9 283.33C358.15 283.45 357.66 283.53 357.32 283.53C356.18 283.53 355.38 282.56 354.46 281.45C352.73 279.36 351.32 277.96 348.92 279.02L348.74 279.08L344.47 280.17C342.04 280.86 339.47 281.46 336.86 281.94C332.54 282.69 325.73 283.08 316.6 283.09C315.89 284.09 314.87 285.84 313.57 288.29C311.65 291.78 310.94 292.37 310.08 292.37C309.39 292.37 308.22 291.99 308.22 289.45C308.22 287.46 308.55 285.33 309.21 283.08C307.21 283.06 305.1 282.58 302.91 281.66C302.63 293.42 299.51 302.73 293.64 309.34C287.16 316.65 277.59 320.36 265.21 320.36C250.01 320.36 242.31 313.44 242.31 299.79C242.31 296.64 242.79 293.47 243.73 290.37L245.92 291.04C245.04 293.92 244.6 296.87 244.6 299.79C244.6 312.09 251.34 318.06 265.21 318.06C276.91 318.06 285.89 314.61 291.92 307.81C297.7 301.3 300.63 291.9 300.63 279.87V278L302.3 278.85C304.82 280.13 307.19 280.78 309.36 280.78H312.4L311.86 282.31C311.03 284.68 310.58 286.92 310.51 288.97C310.78 288.54 311.12 287.97 311.54 287.19C313.14 284.18 314.31 282.23 315.12 281.22L315.46 280.79H316.01C325.3 280.79 332.17 280.41 336.44 279.67C338.97 279.2 341.46 278.62 343.85 277.94L348.06 276.86C352.18 275.09 354.7 278.14 356.21 279.96C356.62 280.45 357.18 281.13 357.42 281.23C357.46 281.21 358.02 281.12 358.52 281.04C360.85 280.66 365.18 279.94 369.54 280.82C375.54 282.03 377.65 282.2 390.09 282.45C392.81 282.51 401.56 282.7 401.56 282.7C402.59 282.75 410.17 282.72 417.5 282.7C424.28 282.68 429.07 282.66 431.33 282.68" fill="white"/>
<path d="M431.33 282.71C432.05 282.71 432.52 282.72 432.7 282.73C435.08 282.86 441.57 282.81 448.45 282.75C452.51 282.71 456.73 282.68 460.37 282.68C464.45 282.68 472.55 282.67 474.86 282.65C474.97 282.65 482.61 282.83 484.71 282.61C486.67 282.41 488.56 282.09 490.23 281.8C493.96 281.16 495.66 280.87 496.42 282.05C496.68 282.46 496.86 283.16 496.18 284.14C495.73 284.79 495.21 285.54 494.66 286.31C493.21 288.38 491.56 290.73 490.94 291.82C491.16 293.08 498.11 297.17 505.84 300.45L504.95 302.56C502.47 301.51 490.03 296.09 488.81 292.46C488.54 291.66 488.74 291.05 488.95 290.68C489.62 289.5 491.23 287.21 492.79 284.99C493.13 284.5 493.47 284.02 493.78 283.57C492.91 283.66 491.68 283.87 490.62 284.05C488.92 284.34 486.99 284.67 484.95 284.88C482.71 285.11 475.17 284.94 474.85 284.93C472.58 284.95 464.46 284.96 460.38 284.96C456.74 284.96 452.53 285 448.48 285.03C441.56 285.09 435.03 285.15 432.58 285.01" fill="white"/>
<path d="M2.57005 267.29L2.86005 285.38L0.640048 286.14L4.77321e-05 265.86C-0.109952 262.32 1.95005 259.06 5.20005 257.65L10.24 255.46C15.05 252.94 20.07 249.95 21.09 249.23C22.96 247.9 33.73 241.89 35.93 240.84C37.7901 239.95 42.51 237.94 46.09 238.47L46.53 238.54C49.21 238.95 53.71 239.63 55.48 238.43C57.7201 236.92 59.0201 234.35 59.4501 230.57C60.0101 225.76 63.4501 213.13 63.93 211.63C64.01 211.38 64.08 211.1 64.16 210.8C64.59 209.09 65.4 205.89 69.12 206.38C70.8501 206.6 76.13 207.71 81.24 208.79C85.62 209.71 90.15 210.67 91.2 210.79C93.18 211.01 107.9 212.79 111.06 213.36C113.02 213.71 122.95 215.49 125.65 216.09C126.65 216.31 127.37 216.44 127.93 216.54C128.78 216.7 129.35 216.8 129.96 217.06C131.19 217.58 132.69 218.52 132.89 220.04C133.05 221.27 132.8 223.37 132.22 225.8C131.67 228.1 127.04 246.5 126.56 247.95C126.11 249.31 125.43 251.43 125.43 251.43C125.43 251.43 125.43 251.44 125.43 251.45C126.35 251.67 127.34 251.97 128.34 252.34C129.38 252.73 130.84 253.17 132.39 253.63C136.57 254.89 139.4 255.79 140.63 256.85C141.11 257.26 141.16 257.99 140.75 258.47C140.34 258.95 139.61 259 139.13 258.59C138.18 257.77 134.45 256.65 131.72 255.83C130.14 255.35 128.65 254.9 127.54 254.49C124.45 253.35 121.59 253.05 120.8 253.16C119.92 253.45 114.07 257.56 109.89 260.86C107.53 262.73 105.08 263.21 103.12 263.21C101.61 263.21 100.4 262.92 99.76 262.77L99.6 262.73C99.3 262.66 98.54 262.5 97.53 262.28C93.26 261.37 88.6 260.36 87.4 259.94C86.2001 259.52 71.72 256.27 65.54 254.88C63.54 254.43 62.14 254.12 61.8601 254.05C61.7201 254.02 48.09 250.61 47.25 249.41C47.0201 249.08 46.66 248.36 46.87 247.25C47.22 245.46 48.94 243.5 52.01 241.41C50.04 241.41 47.94 241.08 46.18 240.81L45.75 240.75C43.34 240.39 39.6101 241.63 36.93 242.92C34.59 244.04 24.06 249.95 22.43 251.11C21.37 251.87 16.22 254.95 11.32 257.51L7.47005 259.38C4.44005 260.85 2.53005 263.94 2.59005 267.31L2.57005 267.29ZM49.1 247.94C50.96 248.73 60.55 251.36 62.3801 251.79C62.66 251.86 64.04 252.17 66.03 252.61C76.83 255.04 86.98 257.34 88.14 257.75C89.31 258.16 95.18 259.41 98 260.01C99.02 260.23 99.8 260.39 100.1 260.47L100.28 260.51C101.61 260.82 105.15 261.66 108.46 259.03C108.56 258.95 117.91 251.67 120.25 250.92C118.48 250.67 116.26 250.82 114.07 252.25C112.95 252.98 112.13 253.61 111.41 254.17C108.48 256.44 107.22 257.1 100.29 255.71C94.64 254.58 59.09 246.72 58.41 246.38C58.05 246.2 57.81 245.85 57.78 245.45C57.75 245.05 57.9201 244.67 58.2401 244.43C59.3601 243.61 60.2901 242.96 61.0401 242.49C59.64 241.63 57.08 240.79 53.78 242.94C49.37 245.82 49.0601 247.46 49.09 247.93L49.1 247.94ZM61.68 244.84C69.47 246.63 93.71 252.07 100.75 253.47C106.98 254.71 107.62 254.21 110.01 252.36C110.73 251.8 111.63 251.11 112.82 250.33C117.13 247.52 121.53 248.64 123.63 249.48C123.86 248.77 124.14 247.89 124.37 247.21C124.79 245.94 129.39 227.69 129.98 225.25C130.59 222.73 130.7 221.05 130.61 220.32C130.58 220.11 130.14 219.61 129.06 219.16C128.68 219 128.27 218.93 127.51 218.79C126.93 218.69 126.18 218.55 125.14 218.32C122.43 217.72 111.84 215.82 110.64 215.61C107.63 215.07 93.45 213.34 90.92 213.06C89.76 212.93 85.59 212.05 80.75 211.03C75.92 210.01 70.46 208.86 68.82 208.65C67.35 208.47 66.9201 209.16 66.37 211.36C66.2801 211.71 66.2 212.04 66.1 212.33C65.51 214.16 62.22 226.42 61.71 230.83C61.28 234.59 60.07 237.38 58.03 239.3C60.82 239.34 62.9601 240.79 63.9701 241.96C64.2401 242.27 64.32 242.71 64.18 243.1C64.04 243.49 63.7001 243.77 63.3 243.84C63.09 243.91 62.4501 244.32 61.66 244.84H61.68Z" fill="white"/>
<path d="M2.86014 285.37C2.93014 285.83 2.95014 286.27 2.97014 286.68C2.97014 286.86 2.99014 287.03 3.00014 287.19C3.22014 289.82 3.74014 289.96 4.02014 290.03C4.12014 290.06 4.22014 290.09 4.31014 290.12C4.47014 290.16 5.37014 290.22 6.24014 290.29C8.53014 290.46 11.9901 290.73 15.2101 291.39C15.8501 291.52 16.7001 291.59 17.1401 291.2C17.8601 290.55 17.7001 288.76 17.6301 287.9C17.6101 287.67 17.5901 287.48 17.5901 287.34C17.5701 286.71 18.0701 286.18 18.7001 286.16C19.3301 286.16 19.8601 286.64 19.8801 287.27C19.8801 287.38 19.9001 287.52 19.9101 287.69C20.0201 288.93 20.2501 291.5 18.6701 292.91C18.0101 293.5 17.1601 293.79 16.1301 293.79C15.7001 293.79 15.2401 293.74 14.7501 293.64C11.6801 293 8.30014 292.75 6.07014 292.58C4.44014 292.46 3.91014 292.41 3.56014 292.29L3.42014 292.25C2.01014 291.87 1.02014 290.89 0.720137 287.39C0.700137 287.21 0.690137 287.01 0.680137 286.81C0.670137 286.6 0.660137 286.37 0.640137 286.14" fill="white"/>
<path d="M614.22 179.84H431.33V362.72H614.22V179.84Z" fill="#780A47"/>
<path d="M614.22 362.72H431.34V179.84H614.22V362.72ZM433.6 360.46H611.96V182.09H433.6V360.46Z" fill="white"/>
<path d="M505.03 303.87C502.44 302.78 489.46 297.12 488.19 293.35C487.92 292.54 488.12 291.92 488.33 291.55C489.03 290.32 490.71 287.93 492.33 285.61C492.72 285.05 493.1 284.51 493.46 284C492.54 284.09 491.17 284.32 490 284.52C488.22 284.82 486.2 285.17 484.07 285.38C481.73 285.62 473.85 285.44 473.52 285.43C471.14 285.45 468.17 285.46 463.9 285.46C463.18 285.46 461.32 285.44 459.65 285.43C458.45 285.42 457.35 285.41 456.84 285.41H432.16V283.15H456.84C457.35 283.15 458.46 283.16 459.67 283.17C461.33 283.19 463.18 283.2 463.89 283.2C468.15 283.2 471.12 283.18 473.52 283.17C473.64 283.17 481.62 283.35 483.83 283.13C485.88 282.92 487.86 282.58 489.6 282.29C493.47 281.63 495.24 281.33 496 282.52C496.27 282.93 496.44 283.64 495.75 284.63C495.28 285.31 494.73 286.1 494.16 286.9C492.64 289.07 490.92 291.52 490.27 292.66C490.42 294.01 497.7 298.32 505.88 301.78L505 303.86L505.03 303.87Z" fill="white"/>
<path d="M481.56 324.43C481.12 324.43 480.69 324.3 480.32 324.05C479.59 323.56 479.15 322.67 479.14 321.66C479.1 316.54 482.16 302.25 486.62 295.36L488.52 296.59C484.35 303.03 481.37 316.89 481.4 321.65C481.4 321.97 481.53 322.15 481.58 322.18C487.26 319.88 501.46 310.33 506.14 305.67C509.27 302.56 518.31 291.14 526.74 280.38L547.98 252.71C550.36 249.56 552.4 246.84 554.19 244.44C555.54 242.63 556.75 241.01 557.87 239.54C558.21 239.09 558.58 238.64 558.94 238.19C561.46 235.08 562 233.9 560.44 232.6C558.49 230.97 547.43 223.72 545.63 222.66C544.01 221.7 542.79 223.21 540.59 226.63C540.2 227.23 539.82 227.83 539.42 228.4L537.56 227.11C537.94 226.56 538.31 225.98 538.69 225.4C540.65 222.34 543.1 218.54 546.78 220.71C548.48 221.72 559.76 229.08 561.89 230.87C565.4 233.8 562.68 237.16 560.7 239.62C560.35 240.05 560.01 240.48 559.68 240.91C558.57 242.38 557.36 244 556.01 245.81C554.22 248.21 552.17 250.94 549.78 254.1L528.53 281.78C520.05 292.6 510.96 304.09 507.74 307.29C502.93 312.08 488.29 321.92 482.48 324.27C482.18 324.39 481.87 324.45 481.56 324.45V324.43Z" fill="white"/>
<path d="M461.44 259.77H432.18V257.51H461.44C465.59 257.51 469.87 257.38 473.64 257.27C476.22 257.2 478.51 257.13 480.26 257.12L487.46 256.98C493.3 257.01 499.07 257.12 507.41 257.39C507.48 257.39 507.54 257.39 507.61 257.39C514.8 257.39 523.75 245.2 529.68 237.1C534.48 230.56 536.09 228.53 537.77 229.15C539.07 229.64 549.4 236.92 552.53 239.13L551.22 240.98C545.34 236.82 538.7 232.24 537.19 231.38C536.2 232.04 533.71 235.43 531.5 238.44C524.86 247.5 515.79 259.86 507.34 259.64C499.02 259.38 493.27 259.26 487.47 259.23L480.28 259.37C478.54 259.38 476.26 259.45 473.7 259.52C469.91 259.63 465.61 259.76 461.43 259.76L461.44 259.77Z" fill="white"/>
<path d="M431.01 0H252.46V180.37H431.01V0Z" fill="#85B8B1"/>
<path d="M431.83 180.36H251.46V0H431.83V180.36ZM253.7 178.14H429.61V2.23H253.7V178.14Z" fill="white"/>
<path d="M298.99 138.37C296.23 138.37 295.93 136.84 295.93 136.18C295.93 135.95 296 135.74 296.12 135.55C296.51 134.96 297.29 134.5 298.63 134.05C300.22 133.48 303.11 131.31 307.49 128.02C310.42 125.82 314.07 123.09 318.62 119.86C322.77 116.91 323.74 116.04 325.09 114.84C325.88 114.14 326.78 113.34 328.46 111.98C332.6 108.63 338.5 101.74 340.31 99.5899C339.7 98.7599 338.44 97.2399 336.34 95.5999C330.54 91.0699 327.66 84.7499 326.9 80.3499C326.84 79.6999 326.82 79.1399 326.82 78.5699C326.82 71.6999 329.81 64.5599 335.72 57.3399C341.68 50.0499 348.17 46.3599 355.02 46.3599C365.04 46.3599 370.12 54.4399 370.12 70.3699C370.12 72.7099 369.93 75.2899 369.61 77.5099H370.58C378.28 77.2499 386.52 77.4799 394.5 77.6999C399.93 77.8499 405.07 78.0499 410.04 77.9899H431.27V80.2699H409.9C404.94 80.2699 399.84 80.1299 394.45 79.9799C386.51 79.7599 378.3 79.5399 370.62 79.7999L368.28 79.7799C367.94 79.7799 367.63 79.6299 367.41 79.3699C367.2 79.1099 367.11 78.7699 367.17 78.4399C367.6 76.0899 367.86 73.0699 367.86 70.3799C367.86 55.7599 363.67 48.6499 355.04 48.6499C348.91 48.6499 343.01 52.0599 337.51 58.7899C331.95 65.5899 329.13 72.2499 329.13 78.5799C329.13 79.0899 329.15 79.5799 329.19 80.0699C329.86 83.9499 332.48 89.6799 337.77 93.8099C341.26 96.5399 342.69 98.9999 342.75 99.0999C342.98 99.5099 342.94 100.02 342.64 100.39C342.33 100.77 335.01 109.64 329.92 113.75C328.28 115.08 327.4 115.86 326.62 116.55C325.22 117.79 324.2 118.69 319.96 121.72C315.44 124.93 311.8 127.66 308.88 129.85C304.45 133.17 301.67 135.26 299.74 136.07C301.57 135.99 305.51 135.65 311.47 135.07C332.89 126.39 345.67 117.13 357.03 102.1C358.13 100.64 359.39 99.0799 360.87 97.3399L361.32 96.8099C362.79 95.0499 364.8 92.6099 367.43 92.7999C369.25 92.9099 370.91 94.2899 371.88 96.4799C372.16 97.1199 372.38 97.7699 372.58 98.3999C372.87 99.2799 373.15 100.12 373.58 100.84C374.6 102.55 376.63 103.77 379.14 104.18C381.2 104.52 383.32 104.36 385.57 104.21C386.83 104.12 388.11 104.01 389.43 104.03C391.81 104.03 394.2 104.03 396.58 103.98C397.96 103.96 400.14 103.95 402.44 103.95C405.56 103.95 408.79 103.94 410.63 103.88H431.29V106.16H410.67C408.84 106.21 405.59 106.22 402.45 106.23C400.17 106.23 398 106.24 396.63 106.26C394.23 106.3 391.83 106.32 389.43 106.31C388.27 106.27 387.02 106.39 385.74 106.48C383.46 106.64 381.1 106.81 378.78 106.43C375.6 105.91 373 104.3 371.63 102.01C371.07 101.07 370.74 100.08 370.42 99.1099C370.23 98.5299 370.04 97.9499 369.79 97.3999C369.32 96.3199 368.41 95.1499 367.29 95.0799C365.86 94.9599 364.29 96.8099 363.07 98.2699L362.61 98.8199C361.16 100.52 359.93 102.05 358.85 103.47C347.19 118.9 334.11 128.37 312.18 137.24C312.08 137.28 311.97 137.31 311.86 137.32C304.65 138.03 300.44 138.37 299.01 138.37H298.99Z" fill="white"/>
<path d="M430.02 77.85H432.27C436.42 77.96 440.54 78.08 444.67 78.21C454.33 78.5 464.32 78.81 474.14 78.81H481.4C483.91 78.88 488.08 78.94 489.33 72.27C489.33 71.86 489.37 71.44 489.41 71.03C489.45 70.62 489.48 70.21 489.48 69.81C489.48 69.45 489.48 69.09 489.48 68.73C489.48 68.23 489.48 67.74 489.48 67.25L489.46 66.42C489.45 65.84 489.44 65.26 489.41 64.69C489.37 63.91 489.32 63.15 489.27 62.4L489.25 62.14C489.22 61.66 489.15 61.18 489.08 60.72C489.03 60.35 488.97 59.98 488.94 59.62C488.89 59.17 488.84 58.73 488.77 58.3V58.99C486.32 59.01 483.84 59.05 481.36 59.1C478.53 59.15 475.69 59.2 472.86 59.21C471.09 59.23 469.28 59.12 467.95 57.85C466.46 56.43 466.2 54.01 467.26 51.39C469.08 46.88 473.79 42.5 479.29 42.89C480.04 42.94 480.73 43.19 481.4 43.43C481.65 43.52 481.91 43.61 482.17 43.7C483 43.96 483.85 44.32 484.84 44.83C485.82 45.34 486.55 45.93 487.15 46.68L487.45 47.05C487.9 47.59 488.41 48.21 488.77 49.01C489.02 49.56 489.14 50.13 489.25 50.69C489.31 51.01 489.38 51.33 489.48 51.65C489.56 51.93 489.67 52.2 489.77 52.49C489.96 52.99 490.17 53.57 490.3 54.19C490.47 54.98 490.59 55.82 490.72 56.68L490.78 57.11C490.89 57.85 491 58.62 491.09 59.4C491.13 59.74 491.17 60.08 491.22 60.42C491.3 60.94 491.37 61.46 491.41 62L491.43 62.26C491.49 63.03 491.54 63.81 491.58 64.61C491.61 65.2 491.62 65.8 491.63 66.4L491.65 67.22C491.66 67.73 491.66 68.25 491.65 68.77C491.65 69.12 491.65 69.47 491.65 69.82C491.65 70.29 491.61 70.77 491.57 71.25C491.54 71.64 491.5 72.03 491.5 72.41C491.5 72.48 491.5 72.54 491.48 72.6C489.91 81.18 483.69 81.06 481.35 81.03L474.12 81.01C464.27 81.01 454.26 80.71 444.59 80.41C440.47 80.28 436.35 80.16 432.23 80.06H430M478.6 45.02C474.36 45.02 470.72 48.55 469.26 52.18C468.71 53.54 468.47 55.33 469.44 56.25C470.18 56.96 471.46 57.02 472.84 57.01C475.66 57 478.49 56.95 481.31 56.9C483.73 56.86 486.14 56.81 488.54 56.79C488.42 55.98 488.31 55.28 488.17 54.61C488.07 54.15 487.91 53.7 487.73 53.22C487.61 52.89 487.49 52.57 487.39 52.25C487.27 51.86 487.19 51.48 487.12 51.1C487.03 50.64 486.94 50.21 486.79 49.89C486.54 49.35 486.15 48.87 485.77 48.41L485.44 48C485.03 47.48 484.54 47.09 483.83 46.73C482.96 46.28 482.22 45.96 481.51 45.74C481.21 45.65 480.93 45.54 480.65 45.44C480.07 45.23 479.57 45.05 479.13 45.02C478.96 45.01 478.78 45 478.61 45L478.6 45.02Z" fill="white"/>
<path d="M488.74 108.69C488.52 114.22 488.6 119.83 488.98 125.36C489.19 128.35 489.53 131.48 491.16 134.14C493.15 137.38 496.44 139.17 500.21 139.17C500.94 139.17 501.68 139.1 502.44 138.97C507.77 138.02 512.01 134.07 513 129.16C513.17 128.33 513.44 127.33 514.09 126.95C514.3 126.82 514.6 126.74 515.02 126.69C516.54 126.5 518.22 126.58 519.84 126.65C520.63 126.69 521.42 126.72 522.19 126.73L530.59 126.8L530.61 124.62L522.22 124.55C521.48 124.55 520.72 124.51 519.95 124.47C518.24 124.39 516.47 124.32 514.77 124.52C514.31 124.58 513.62 124.69 512.99 125.06C511.6 125.88 511.13 127.45 510.87 128.72C510.07 132.7 506.45 136.03 502.07 136.81C498.24 137.5 494.94 136.1 493.02 132.99C491.64 130.76 491.34 127.92 491.16 125.2C490.84 120.6 491.07 115.29 491.17 110.67L488.74 108.68V108.69Z" fill="white"/>
<path d="M554.55 82.9802L552.38 82.8802C552.42 81.9902 552.35 81.0902 552.28 80.1402C552.21 79.3002 552.15 78.4302 552.16 77.5502C552.18 76.5002 552.22 75.4502 552.26 74.4002C552.31 73.2602 552.35 72.1302 552.36 70.9902C552.41 66.5702 552.28 62.0902 551.96 57.6702C551.7 54.0302 551.03 50.2802 547.89 47.4602C545.16 45.0002 541.53 45.0802 537.42 45.4202C525.79 46.3802 519.18 46.3702 513.06 45.3802C499.86 43.2502 494.14 43.7502 484.65 44.5802C482.99 44.7302 481.21 44.8802 479.27 45.0402L479.1 42.8702C481.04 42.7202 482.8 42.5602 484.46 42.4202C494.11 41.5702 499.94 41.0602 513.4 43.2402C519.33 44.2002 525.8 44.2002 537.24 43.2602C541.69 42.8902 545.97 42.8102 549.34 45.8502C553.05 49.1902 553.83 53.4302 554.13 57.5202C554.45 61.9902 554.58 66.5302 554.53 71.0202C554.52 72.1802 554.47 73.3302 554.42 74.4902C554.38 75.5202 554.34 76.5602 554.32 77.5902C554.31 78.3702 554.37 79.1502 554.43 79.9802C554.51 80.9602 554.58 81.9702 554.54 82.9902L554.55 82.9802Z" fill="white"/>
<path d="M618.24 103.98C612.49 104.08 606.67 104.11 601.03 104.14C598.68 104.15 596.33 104.16 593.98 104.18C592.18 104.19 590.37 104.24 588.54 104.29C584.02 104.41 579.35 104.53 574.85 104.11C573.2 103.95 571.51 103.68 569.87 103.42C562.5 102.23 556.14 101.21 553.81 109.94L551.71 109.38C554.55 98.7399 562.87 100.08 570.22 101.27C571.82 101.53 573.48 101.8 575.06 101.94C579.43 102.35 584.04 102.23 588.49 102.11C590.33 102.06 592.16 102.01 593.97 102C596.32 101.98 598.68 101.97 601.03 101.96C606.64 101.93 612.42 101.91 618.14 101.8" fill="white"/>
<path d="M616.83 82.3101C607.71 82.9301 598.47 83.1001 589.34 81.6001C588.9 81.5301 587.8 81.5401 586.74 81.5601C585.87 81.5801 584.95 81.5901 584.15 81.5601C577.75 81.3401 573.15 84.1301 570.67 85.6201C569.12 86.5501 568.18 87.1101 567.33 86.4801C566.49 85.8501 566.79 84.7001 566.95 84.0901C567.38 82.4501 568.53 77.0501 568.52 75.4401C568.26 75.3601 567.95 75.3001 567.71 75.2501C567.03 75.1101 566.17 74.9301 566.11 74.0201C566.09 73.6801 566.19 73.0701 567.11 72.7501C567.98 72.4401 568.64 72.4001 569.11 72.3601C569.57 72.3301 569.78 72.3101 570.07 72.1201C570.09 72.0801 570.35 71.6501 570.52 70.7301C570.6 70.3201 570.61 69.8501 570.63 69.3401C570.63 69.0401 570.65 68.7401 570.67 68.4501L570.73 67.7101C570.77 67.2301 570.82 66.6901 570.81 66.4001C570.7 66.4001 570.55 66.4101 570.34 66.4301C570.16 66.4501 569.97 66.4701 569.76 66.5001C569.3 66.5601 568.76 66.6201 568.14 66.6401C567.2 66.6801 566.63 66.3501 566.48 65.6901C566.23 64.6201 567.15 64.1801 569.19 63.2401L569.46 63.1201C569.95 62.8901 570.74 62.5301 571.06 62.2801C571.02 61.7301 570.98 60.7901 571.06 59.6501C571.09 59.2301 571.16 58.7801 571.23 58.3101C571.3 57.8601 571.38 57.3901 571.41 56.9001C571.44 56.3401 571.46 55.7601 571.47 55.1901L571.53 53.5201C571.56 52.7801 571.59 52.0801 571.58 51.4501C571.57 50.8701 571.52 50.4401 571.47 50.1301C571.26 50.2801 570.98 50.4901 570.61 50.8001L570.27 51.0801C569.81 51.4601 569.28 51.9001 568.78 52.4201C568.48 52.7301 568.2 53.1001 567.9 53.4701C567.67 53.7601 567.44 54.0601 567.19 54.3501C566.97 54.6001 566.75 54.8501 566.51 55.1001C566.18 55.4601 565.84 55.8301 565.52 56.2301C565.12 56.7501 564.75 57.3001 564.36 57.8601L563.65 58.8701C563.31 59.3501 562.96 59.8401 562.64 60.3601C562.2 61.0601 561.78 61.7901 561.37 62.5301C560.97 63.2601 560.6 64.0101 560.24 64.7701C560.04 65.1901 559.85 65.7201 559.63 66.3201L559.35 67.0701C559.22 67.4001 559.07 67.7401 558.91 68.0901C558.72 68.5101 558.52 68.9401 558.37 69.4101C558.14 70.1001 557.91 70.8401 557.67 71.6101L557.59 71.8501C557.32 72.7201 557.08 73.4901 556.84 74.3001C556.73 74.6601 556.67 75.0401 556.61 75.4301C556.53 75.9001 556.46 76.3601 556.33 76.8201C556.21 77.2401 556.06 77.6501 555.9 78.0701C555.76 78.4601 555.61 78.8501 555.5 79.2501C555.28 80.0701 555.05 80.8901 554.83 81.7301C554.72 82.1401 554.6 82.5501 554.47 82.9501C554.34 83.3701 554.22 83.7801 554.11 84.2001C554.01 84.5801 553.96 84.9701 553.91 85.3601C553.85 85.8301 553.78 86.2901 553.67 86.7501L552.75 90.4101C552.64 90.8501 552.52 91.2901 552.41 91.7201L552.12 92.8701C552.01 93.3201 551.89 93.7701 551.79 94.2101C551.68 94.6501 551.56 95.0801 551.43 95.5101C551.31 95.9101 551.2 96.3001 551.11 96.6801C551.01 97.1101 550.93 97.5301 550.85 97.9501C550.77 98.3801 550.69 98.7901 550.6 99.2001C550.49 99.6601 550.36 100.11 550.23 100.55C550.12 100.93 550 101.31 549.92 101.68L549.36 104.18C549.24 104.68 549.13 105.15 549.02 105.59C548.92 105.98 548.83 106.34 548.75 106.67C548.57 107.47 548.5 107.99 548.44 108.49C548.38 108.97 548.32 109.43 548.19 110.04L546.06 109.57C546.18 109.03 546.23 108.63 546.28 108.21C546.35 107.68 546.42 107.09 546.62 106.18C546.7 105.83 546.79 105.45 546.9 105.04C547.01 104.62 547.12 104.16 547.23 103.68L547.8 101.17C547.9 100.76 548.02 100.34 548.15 99.9201C548.27 99.5201 548.39 99.1101 548.49 98.6901C548.58 98.3201 548.65 97.9301 548.72 97.5401C548.8 97.0901 548.89 96.6201 549 96.1601C549.1 95.7401 549.22 95.3101 549.35 94.8801C549.47 94.4801 549.58 94.0801 549.68 93.6801C549.79 93.2301 549.9 92.7801 550.02 92.3201L550.3 91.1801C550.41 90.7301 550.53 90.2901 550.64 89.8401L551.56 86.1901C551.65 85.8201 551.7 85.4401 551.75 85.0601C551.81 84.6001 551.87 84.1201 552 83.6401C552.12 83.1901 552.25 82.7501 552.39 82.3001C552.51 81.9201 552.62 81.5301 552.72 81.1501C552.94 80.3101 553.17 79.4701 553.39 78.6501C553.52 78.1801 553.68 77.7301 553.85 77.2801C553.98 76.9201 554.12 76.5601 554.22 76.1901C554.33 75.8101 554.39 75.4201 554.45 75.0401C554.52 74.5801 554.6 74.1101 554.74 73.6401C554.98 72.8301 555.22 72.0401 555.46 71.2801L555.57 70.9201C555.81 70.1401 556.05 69.3801 556.28 68.6801C556.46 68.1401 556.69 67.6301 556.91 67.1501C557.05 66.8401 557.18 66.5501 557.29 66.2601L557.56 65.5301C557.79 64.9001 558.01 64.3001 558.26 63.7801C558.64 62.9901 559.03 62.2001 559.45 61.4301C559.88 60.6601 560.32 59.9001 560.78 59.1601C561.12 58.6101 561.49 58.0801 561.86 57.5701L562.55 56.5801C562.96 55.9901 563.36 55.4101 563.77 54.8701C564.12 54.4101 564.51 53.9901 564.88 53.5801C565.09 53.3501 565.3 53.1201 565.5 52.8901C565.73 52.6201 565.94 52.3401 566.15 52.0801C566.49 51.6401 566.82 51.2201 567.18 50.8601C567.77 50.2501 568.34 49.7701 568.85 49.3501L569.18 49.0801C570.52 47.9501 571.61 47.2901 572.53 47.7601C572.84 47.9201 573.67 48.3401 573.73 51.3501C573.74 52.0101 573.71 52.7701 573.68 53.5501L573.62 55.1901C573.6 55.7901 573.59 56.3901 573.55 56.9801C573.52 57.5401 573.43 58.0801 573.35 58.6001C573.29 59.0001 573.22 59.3801 573.2 59.7401C573.12 60.9501 573.19 61.8801 573.22 62.2801C573.29 63.2101 572.65 63.8201 571.76 64.3301C572.33 64.5401 572.82 64.9901 572.94 65.9601C573 66.4201 572.94 67.0401 572.88 67.8401L572.82 68.5601C572.8 68.8201 572.79 69.0901 572.78 69.3601C572.76 69.9301 572.74 70.5101 572.64 71.0801C572.45 72.0801 572.06 73.3801 571.22 73.9101C570.95 74.0801 570.69 74.2001 570.44 74.2801C570.76 75.2101 570.8 77.5701 569.21 83.9001C569.32 83.8401 569.42 83.7701 569.53 83.7101C572.2 82.1001 577.16 79.1201 584.2 79.3401C584.97 79.3701 585.85 79.3401 586.68 79.3401C587.94 79.3201 589.03 79.3001 589.67 79.4101C598.59 80.8801 607.69 80.7101 616.69 80.1001" fill="white"/>
<path d="M547.24 139.81C547.17 139.81 547.11 139.81 547.04 139.81C546.53 139.81 546.03 139.77 545.53 139.74C545.18 139.72 544.84 139.69 544.5 139.68C544.11 139.67 543.72 139.67 543.35 139.67C542.87 139.67 542.41 139.67 541.96 139.65C541.38 139.62 540.83 139.57 540.32 139.51C540.01 139.48 539.71 139.45 539.43 139.43C538.28 139.34 537.34 139.23 536.84 139.16C536.13 139.05 535.22 138.52 534.14 137.6C533.39 136.96 532.76 136.32 532.21 135.67C531.71 135.08 531.23 134.39 530.66 133.43C530.21 132.69 529.71 131.85 529.41 130.93C529.08 129.93 528.96 128.93 529.04 127.98C529.11 127.15 529.29 126.26 529.57 125.34C529.82 124.55 530.18 123.78 530.52 123.03L531.57 123.36L530.58 122.9C530.93 122.15 531.29 121.38 531.74 120.63C532.18 119.9 532.67 119.25 533.14 118.62C533.72 117.84 534.29 117.17 534.88 116.55C535.32 116.09 535.88 115.53 536.48 115.06C536.38 114.78 536.2 114.38 536.07 114.09C535.94 113.8 535.8 113.5 535.68 113.2C535.32 112.31 535.03 111.29 535.54 110.42C535.88 109.84 536.49 109.49 537.34 109.39C538.07 109.3 538.97 109.21 540.09 109.18C540.52 109.17 540.98 109.19 541.46 109.22C541.87 109.24 542.34 109.25 542.75 109.26C543.13 109.26 543.53 109.24 543.92 109.23C544.41 109.21 544.91 109.18 545.41 109.2H546.58C547.08 109.2 547.58 109.2 548.07 109.2C548.57 109.2 549.05 109.24 549.53 109.28C549.94 109.31 550.34 109.34 550.72 109.35C551.21 109.35 551.67 109.35 552.11 109.33C552.56 109.32 552.98 109.3 553.37 109.31C554.44 109.33 555.28 109.33 555.76 109.33H556C557.02 109.33 558.09 109.98 558.8 111.04C559.42 111.96 559.64 113.08 559.39 114.11C559.24 114.74 558.9 115.32 558.39 115.84C558.7 115.99 559.08 116.22 559.47 116.62L559.9 117.04C560.33 117.46 560.79 117.92 561.24 118.42L561.39 118.59C561.89 119.16 562.41 119.74 562.88 120.37C563.36 121.01 563.91 121.78 564.33 122.57C564.86 123.56 565.17 124.49 565.24 125.32C565.31 126.18 565.23 127.18 565.15 128.14C565.07 129.06 564.99 129.97 564.77 130.92C564.52 131.97 564.11 132.95 563.83 133.6C563.47 134.41 563.04 135.34 562.39 136.14C561.82 136.85 561.09 137.46 560.08 138.07C559.4 138.48 558.46 138.99 557.28 139.2C556.69 139.31 556.08 139.36 555.44 139.4L554.68 139.46C553.86 139.54 553 139.6 552.12 139.64L551.41 139.67C550.8 139.7 550.19 139.73 549.57 139.74C549.23 139.74 548.88 139.76 548.53 139.77C548.09 139.79 547.65 139.8 547.21 139.8L547.24 139.81ZM543.69 137.5C543.98 137.5 544.28 137.5 544.57 137.51C544.93 137.52 545.3 137.55 545.67 137.57C546.13 137.6 546.6 137.63 547.07 137.64C547.53 137.64 548.01 137.63 548.48 137.61C548.85 137.6 549.21 137.58 549.57 137.58C550.16 137.58 550.75 137.54 551.33 137.51L552.06 137.47C552.91 137.43 553.74 137.37 554.52 137.3L555.31 137.23C555.9 137.18 556.45 137.14 556.93 137.06C557.75 136.91 558.43 136.54 558.99 136.21C559.77 135.74 560.32 135.29 560.73 134.78C561.21 134.18 561.56 133.44 561.88 132.72C562.29 131.8 562.54 131.09 562.69 130.42C562.88 129.62 562.95 128.8 563.02 127.96C563.09 127.08 563.17 126.18 563.11 125.5C563.07 124.97 562.84 124.31 562.45 123.59C562.1 122.93 561.61 122.25 561.17 121.67C560.75 121.11 560.26 120.56 559.79 120.03L559.64 119.85C559.23 119.38 558.8 118.96 558.41 118.58L557.97 118.14C557.7 117.87 557.48 117.78 557.22 117.67C556.73 117.46 555.82 117.08 555.87 115.61C555.88 115.26 556.06 114.94 556.35 114.74C556.88 114.39 557.22 113.98 557.32 113.59C557.43 113.15 557.32 112.67 557.05 112.25C556.73 111.78 556.3 111.5 556.05 111.5H555.81C555.33 111.5 554.47 111.5 553.38 111.48C553.02 111.48 552.63 111.48 552.22 111.5C551.75 111.51 551.25 111.53 550.73 111.52C550.3 111.52 549.86 111.48 549.41 111.44C548.98 111.41 548.53 111.37 548.09 111.37C547.61 111.37 547.12 111.37 546.63 111.37H545.44C544.98 111.37 544.51 111.38 544.05 111.4C543.61 111.42 543.17 111.44 542.76 111.43C542.29 111.43 541.83 111.41 541.39 111.38C540.96 111.36 540.55 111.33 540.17 111.34C539.01 111.37 538.08 111.48 537.63 111.53C537.56 111.53 537.51 111.55 537.47 111.56C537.49 111.69 537.54 111.93 537.72 112.37C537.83 112.64 537.95 112.91 538.07 113.18C538.62 114.4 539.24 115.78 538.12 116.55C537.54 116.95 536.93 117.56 536.47 118.04C535.93 118.6 535.43 119.2 534.97 119.81C534.46 120.5 534 121.11 533.62 121.74C533.23 122.39 532.9 123.11 532.57 123.8L532.51 123.93C532.18 124.64 531.87 125.31 531.66 125.96C531.42 126.73 531.28 127.46 531.22 128.14C531.16 128.8 531.26 129.52 531.49 130.24C531.71 130.93 532.13 131.62 532.54 132.3C533.05 133.15 533.47 133.76 533.89 134.26C534.36 134.82 534.91 135.37 535.57 135.94C536.51 136.75 537.05 136.98 537.17 137C537.33 137.02 538.18 137.15 539.59 137.25C539.89 137.27 540.21 137.3 540.54 137.34C541.02 137.39 541.53 137.44 542.08 137.47C542.49 137.49 542.91 137.49 543.35 137.49H543.7L543.69 137.5Z" fill="white"/>
<path d="M550.37 140.09C544.91 140.09 539.73 139.72 534.66 139.36C526.78 138.8 519.34 138.26 511.56 139.16L511.31 137C519.29 136.08 526.83 136.62 534.81 137.19C543.75 137.83 552.99 138.49 563.48 137.08C564.25 136.98 565.06 136.87 565.88 136.56L566.01 136.51C566.74 136.24 567.49 135.96 568.13 135.54C568.75 135.13 569.39 134.57 569.98 133.92C570.59 133.25 571.05 132.59 571.34 131.96C571.61 131.37 571.77 130.63 571.83 129.7C571.88 128.88 571.91 128.11 571.79 127.66C571.69 127.28 571.49 126.98 570.86 126.75C570.55 126.63 570.03 126.63 569.42 126.62H568.87C568.54 126.6 568.2 126.56 567.83 126.51C567.42 126.46 566.99 126.4 566.55 126.41C566.25 126.41 565.94 126.45 565.61 126.48C565.15 126.53 564.67 126.58 564.16 126.58V124.4C564.59 124.4 564.99 124.36 565.38 124.31C565.77 124.27 566.15 124.23 566.51 124.23C567.1 124.21 567.63 124.29 568.1 124.35C568.39 124.39 568.66 124.42 568.92 124.43H569.45C570.25 124.45 570.95 124.46 571.6 124.7C572.82 125.14 573.59 125.95 573.89 127.09C574.09 127.86 574.06 128.78 574 129.82C573.93 131.02 573.71 132.02 573.32 132.87C572.93 133.71 572.35 134.56 571.58 135.39C570.87 136.17 570.09 136.84 569.32 137.35C568.47 137.91 567.56 138.25 566.75 138.55L566.63 138.6C565.59 138.99 564.6 139.12 563.81 139.23C559.08 139.87 554.63 140.09 550.35 140.09H550.37Z" fill="white"/>
<path d="M430.02 103.88C434.33 103.97 438.48 104.09 442.57 104.2C452.33 104.47 462.43 104.74 474.14 104.74H480.26C480.55 104.74 480.91 104.72 481.33 104.7C483.48 104.58 487.08 104.36 489.23 106.41C490.36 107.48 490.92 109.01 490.9 110.94L488.72 110.92C488.73 109.6 488.41 108.64 487.72 107.99C486.26 106.6 483.36 106.77 481.45 106.88C480.99 106.91 480.58 106.93 480.26 106.93H474.14C462.41 106.93 452.29 106.65 442.52 106.38C438.44 106.27 434.31 106.16 430.03 106.06" fill="white"/>
</svg>
