<svg width="80" height="80" viewBox="0 0 80 80" fill="none" xmlns="http://www.w3.org/2000/svg">
<g clip-path="url(#clip0_38_41)">
<path d="M2.41928 0H0V7.26954H2.41928V0Z" fill="black"/>
<path d="M2.41928 7.26953H0V16.97H2.41928V7.26953Z" fill="black"/>
<path d="M2.41928 19.3892H0V24.2394H2.41928V19.3892Z" fill="black"/>
<path d="M2.41928 26.6704H0V31.5207H2.41928V26.6704Z" fill="black"/>
<path d="M2.41928 33.9399H0V36.3592H2.41928V33.9399Z" fill="black"/>
<path d="M2.41928 38.7905H0V43.6408H2.41928V38.7905Z" fill="black"/>
<path d="M2.41928 46.0601H0V48.4793H2.41928V46.0601Z" fill="black"/>
<path d="M2.41928 50.9102H0V53.3294H2.41928V50.9102Z" fill="black"/>
<path d="M2.41928 58.1797H0V60.599H2.41928V58.1797Z" fill="black"/>
<path d="M2.41928 63.0298H0V75.1496H2.41928V63.0298Z" fill="black"/>
<path d="M2.41928 75.1499H0V80.0002H2.41928V75.1499Z" fill="black"/>
<path d="M4.85019 0H2.43091V2.41928H4.85019V0Z" fill="black"/>
<path d="M4.85019 14.5391H2.43091V16.9583H4.85019V14.5391Z" fill="black"/>
<path d="M4.85019 29.0898H2.43091V36.3594H4.85019V29.0898Z" fill="black"/>
<path d="M4.85019 41.2095H2.43091V43.6288H4.85019V41.2095Z" fill="black"/>
<path d="M4.85019 50.9102H2.43091V53.3294H4.85019V50.9102Z" fill="black"/>
<path d="M4.85019 55.7485H2.43091V58.1678H4.85019V55.7485Z" fill="black"/>
<path d="M4.85019 63.0298H2.43091V65.4491H4.85019V63.0298Z" fill="black"/>
<path d="M4.85019 77.5688H2.43091V79.9881H4.85019V77.5688Z" fill="black"/>
<path d="M7.26963 0H4.85034V2.41928H7.26963V0Z" fill="black"/>
<path d="M7.26963 4.8501H4.85034V7.26938H7.26963V4.8501Z" fill="black"/>
<path d="M7.26963 7.26953H4.85034V12.1198H7.26963V7.26953Z" fill="black"/>
<path d="M7.26963 14.5391H4.85034V16.9583H7.26963V14.5391Z" fill="black"/>
<path d="M7.26963 19.3892H4.85034V21.8084H7.26963V19.3892Z" fill="black"/>
<path d="M7.26963 24.2397H4.85034V29.09H7.26963V24.2397Z" fill="black"/>
<path d="M7.26963 31.5093H4.85034V33.9286H7.26963V31.5093Z" fill="black"/>
<path d="M7.26963 38.7905H4.85034V41.2098H7.26963V38.7905Z" fill="black"/>
<path d="M7.26963 43.6289H4.85034V46.0482H7.26963V43.6289Z" fill="black"/>
<path d="M7.26963 48.479H4.85034V50.8983H7.26963V48.479Z" fill="black"/>
<path d="M7.26963 55.7485H4.85034V60.5988H7.26963V55.7485Z" fill="black"/>
<path d="M7.26963 63.0298H4.85034V65.4491H7.26963V63.0298Z" fill="black"/>
<path d="M7.26963 67.8804H4.85034V75.1499H7.26963V67.8804Z" fill="black"/>
<path d="M7.26963 77.5688H4.85034V79.9881H7.26963V77.5688Z" fill="black"/>
<path d="M9.68882 0H7.26953V2.41928H9.68882V0Z" fill="black"/>
<path d="M9.68882 4.8501H7.26953V7.26938H9.68882V4.8501Z" fill="black"/>
<path d="M9.68882 7.26953H7.26953V12.1198H9.68882V7.26953Z" fill="black"/>
<path d="M9.68882 14.5391H7.26953V16.9583H9.68882V14.5391Z" fill="black"/>
<path d="M9.68882 19.3892H7.26953V24.2394H9.68882V19.3892Z" fill="black"/>
<path d="M9.68882 33.9399H7.26953V50.91H9.68882V33.9399Z" fill="black"/>
<path d="M9.68882 55.7485H7.26953V58.1678H9.68882V55.7485Z" fill="black"/>
<path d="M9.68882 63.0298H7.26953V65.4491H9.68882V63.0298Z" fill="black"/>
<path d="M9.68882 67.8804H7.26953V75.1499H9.68882V67.8804Z" fill="black"/>
<path d="M9.68882 77.5688H7.26953V79.9881H9.68882V77.5688Z" fill="black"/>
<path d="M12.1197 0H9.70044V2.41928H12.1197V0Z" fill="black"/>
<path d="M12.1197 4.8501H9.70044V7.26938H12.1197V4.8501Z" fill="black"/>
<path d="M12.1197 7.26953H9.70044V12.1198H12.1197V7.26953Z" fill="black"/>
<path d="M12.1197 14.5391H9.70044V16.9583H12.1197V14.5391Z" fill="black"/>
<path d="M12.1197 21.8203H9.70044V24.2396H12.1197V21.8203Z" fill="black"/>
<path d="M12.1197 26.6704H9.70044V33.94H12.1197V26.6704Z" fill="black"/>
<path d="M12.1197 36.3594H9.70044V41.2096H12.1197V36.3594Z" fill="black"/>
<path d="M12.1197 43.6289H9.70044V46.0482H12.1197V43.6289Z" fill="black"/>
<path d="M12.1197 53.3296H9.70044V55.7489H12.1197V53.3296Z" fill="black"/>
<path d="M12.1197 58.1797H9.70044V60.599H12.1197V58.1797Z" fill="black"/>
<path d="M12.1197 63.0298H9.70044V65.4491H12.1197V63.0298Z" fill="black"/>
<path d="M12.1197 67.8804H9.70044V75.1499H12.1197V67.8804Z" fill="black"/>
<path d="M12.1197 77.5688H9.70044V79.9881H12.1197V77.5688Z" fill="black"/>
<path d="M14.5392 0H12.1199V2.41928H14.5392V0Z" fill="black"/>
<path d="M14.5392 14.5391H12.1199V16.9583H14.5392V14.5391Z" fill="black"/>
<path d="M14.5392 19.3892H12.1199V21.8084H14.5392V19.3892Z" fill="black"/>
<path d="M14.5392 29.0898H12.1199V31.5091H14.5392V29.0898Z" fill="black"/>
<path d="M14.5392 36.3594H12.1199V38.7787H14.5392V36.3594Z" fill="black"/>
<path d="M14.5392 41.2095H12.1199V43.6288H14.5392V41.2095Z" fill="black"/>
<path d="M14.5392 48.479H12.1199V53.3293H14.5392V48.479Z" fill="black"/>
<path d="M14.5392 58.1797H12.1199V60.599H14.5392V58.1797Z" fill="black"/>
<path d="M14.5392 63.0298H12.1199V65.4491H14.5392V63.0298Z" fill="black"/>
<path d="M14.5392 77.5688H12.1199V79.9881H14.5392V77.5688Z" fill="black"/>
<path d="M16.9583 0H14.5391V7.26954H16.9583V0Z" fill="black"/>
<path d="M16.9583 7.26953H14.5391V16.97H16.9583V7.26953Z" fill="black"/>
<path d="M16.9583 19.3892H14.5391V21.8084H16.9583V19.3892Z" fill="black"/>
<path d="M16.9583 24.2397H14.5391V26.659H16.9583V24.2397Z" fill="black"/>
<path d="M16.9583 29.0898H14.5391V31.5091H16.9583V29.0898Z" fill="black"/>
<path d="M16.9583 33.9399H14.5391V36.3592H16.9583V33.9399Z" fill="black"/>
<path d="M16.9583 38.7905H14.5391V41.2098H16.9583V38.7905Z" fill="black"/>
<path d="M16.9583 43.6289H14.5391V46.0482H16.9583V43.6289Z" fill="black"/>
<path d="M16.9583 48.479H14.5391V50.8983H16.9583V48.479Z" fill="black"/>
<path d="M16.9583 53.3296H14.5391V55.7489H16.9583V53.3296Z" fill="black"/>
<path d="M16.9583 58.1797H14.5391V60.599H16.9583V58.1797Z" fill="black"/>
<path d="M16.9583 63.0298H14.5391V75.1496H16.9583V63.0298Z" fill="black"/>
<path d="M16.9583 75.1499H14.5391V80.0002H16.9583V75.1499Z" fill="black"/>
<path d="M19.3893 19.3892H16.97V21.8084H19.3893V19.3892Z" fill="black"/>
<path d="M19.3893 24.2397H16.97V33.9403H19.3893V24.2397Z" fill="black"/>
<path d="M19.3893 36.3594H16.97V41.2096H19.3893V36.3594Z" fill="black"/>
<path d="M19.3893 43.6289H16.97V53.3294H19.3893V43.6289Z" fill="black"/>
<path d="M19.3893 55.7485H16.97V58.1678H19.3893V55.7485Z" fill="black"/>
<path d="M21.8087 0H19.3894V4.85026H21.8087V0Z" fill="black"/>
<path d="M21.8087 7.26953H19.3894V9.68882H21.8087V7.26953Z" fill="black"/>
<path d="M21.8087 14.5391H19.3894V19.3893H21.8087V14.5391Z" fill="black"/>
<path d="M21.8087 21.8203H19.3894V24.2396H21.8087V21.8203Z" fill="black"/>
<path d="M21.8087 29.0898H19.3894V36.3594H21.8087V29.0898Z" fill="black"/>
<path d="M21.8087 38.7905H19.3894V43.6408H21.8087V38.7905Z" fill="black"/>
<path d="M21.8087 46.0601H19.3894V48.4793H21.8087V46.0601Z" fill="black"/>
<path d="M21.8087 50.9102H19.3894V53.3294H21.8087V50.9102Z" fill="black"/>
<path d="M21.8087 60.5991H19.3894V63.0184H21.8087V60.5991Z" fill="black"/>
<path d="M21.8087 63.0298H19.3894V67.88H21.8087V63.0298Z" fill="black"/>
<path d="M21.8087 70.2993H19.3894V75.1496H21.8087V70.2993Z" fill="black"/>
<path d="M21.8087 77.5688H19.3894V79.9881H21.8087V77.5688Z" fill="black"/>
<path d="M24.2396 0H21.8203V4.85026H24.2396V0Z" fill="black"/>
<path d="M24.2396 7.26953H21.8203V9.68882H24.2396V7.26953Z" fill="black"/>
<path d="M24.2396 12.1196H21.8203V14.5389H24.2396V12.1196Z" fill="black"/>
<path d="M24.2396 19.3892H21.8203V21.8084H24.2396V19.3892Z" fill="black"/>
<path d="M24.2396 24.2397H21.8203V26.659H24.2396V24.2397Z" fill="black"/>
<path d="M24.2396 29.0898H21.8203V38.7904H24.2396V29.0898Z" fill="black"/>
<path d="M24.2396 43.6289H21.8203V48.4792H24.2396V43.6289Z" fill="black"/>
<path d="M24.2396 60.5991H21.8203V63.0184H24.2396V60.5991Z" fill="black"/>
<path d="M24.2396 63.0298H21.8203V67.88H24.2396V63.0298Z" fill="black"/>
<path d="M26.6588 2.41943H24.2395V4.83872H26.6588V2.41943Z" fill="black"/>
<path d="M26.6588 7.26953H24.2395V9.68882H26.6588V7.26953Z" fill="black"/>
<path d="M26.6588 12.1196H24.2395V26.6587H26.6588V12.1196Z" fill="black"/>
<path d="M26.6588 29.0898H24.2395V31.5091H26.6588V29.0898Z" fill="black"/>
<path d="M26.6588 41.2095H24.2395V43.6288H26.6588V41.2095Z" fill="black"/>
<path d="M26.6588 46.0601H24.2395V48.4793H26.6588V46.0601Z" fill="black"/>
<path d="M26.6588 53.3296H24.2395V58.1798H26.6588V53.3296Z" fill="black"/>
<path d="M26.6588 70.2993H24.2395V75.1496H26.6588V70.2993Z" fill="black"/>
<path d="M29.0899 0H26.6707V4.85026H29.0899V0Z" fill="black"/>
<path d="M29.0899 16.9702H26.6707V31.5093H29.0899V16.9702Z" fill="black"/>
<path d="M29.0899 33.9399H26.6707V36.3592H29.0899V33.9399Z" fill="black"/>
<path d="M29.0899 41.2095H26.6707V46.0597H29.0899V41.2095Z" fill="black"/>
<path d="M29.0899 50.9102H26.6707V53.3294H29.0899V50.9102Z" fill="black"/>
<path d="M29.0899 58.1797H26.6707V63.0299H29.0899V58.1797Z" fill="black"/>
<path d="M29.0899 63.0298H26.6707V65.4491H29.0899V63.0298Z" fill="black"/>
<path d="M29.0899 67.8804H26.6707V70.2997H29.0899V67.8804Z" fill="black"/>
<path d="M29.0899 75.1499H26.6707V80.0002H29.0899V75.1499Z" fill="black"/>
<path d="M31.5091 2.41943H29.0898V4.83872H31.5091V2.41943Z" fill="black"/>
<path d="M31.5091 14.5391H29.0898V16.9583H31.5091V14.5391Z" fill="black"/>
<path d="M31.5091 24.2397H29.0898V31.5093H31.5091V24.2397Z" fill="black"/>
<path d="M31.5091 36.3594H29.0898V43.6289H31.5091V36.3594Z" fill="black"/>
<path d="M31.5091 46.0601H29.0898V48.4793H31.5091V46.0601Z" fill="black"/>
<path d="M31.5091 50.9102H29.0898V53.3294H31.5091V50.9102Z" fill="black"/>
<path d="M31.5091 58.1797H29.0898V60.599H31.5091V58.1797Z" fill="black"/>
<path d="M31.5091 63.0298H29.0898V65.4491H31.5091V63.0298Z" fill="black"/>
<path d="M31.5091 72.7188H29.0898V75.138H31.5091V72.7188Z" fill="black"/>
<path d="M31.5091 75.1499H29.0898V80.0002H31.5091V75.1499Z" fill="black"/>
<path d="M33.9283 4.8501H31.509V7.26938H33.9283V4.8501Z" fill="black"/>
<path d="M33.9283 9.70068H31.509V12.12H33.9283V9.70068Z" fill="black"/>
<path d="M33.9283 21.8203H31.509V26.6706H33.9283V21.8203Z" fill="black"/>
<path d="M33.9283 36.3594H31.509V41.2096H33.9283V36.3594Z" fill="black"/>
<path d="M33.9283 50.9102H31.509V53.3294H33.9283V50.9102Z" fill="black"/>
<path d="M33.9283 58.1797H31.509V60.599H33.9283V58.1797Z" fill="black"/>
<path d="M36.3595 2.41943H33.9402V7.26969H36.3595V2.41943Z" fill="black"/>
<path d="M36.3595 12.1196H33.9402V24.2394H36.3595V12.1196Z" fill="black"/>
<path d="M36.3595 29.0898H33.9402V38.7904H36.3595V29.0898Z" fill="black"/>
<path d="M36.3595 41.2095H33.9402V43.6288H36.3595V41.2095Z" fill="black"/>
<path d="M36.3595 48.479H33.9402V53.3293H36.3595V48.479Z" fill="black"/>
<path d="M36.3595 53.3296H33.9402V55.7489H36.3595V53.3296Z" fill="black"/>
<path d="M36.3595 58.1797H33.9402V60.599H36.3595V58.1797Z" fill="black"/>
<path d="M36.3595 63.0298H33.9402V65.4491H36.3595V63.0298Z" fill="black"/>
<path d="M36.3595 70.2993H33.9402V72.7186H36.3595V70.2993Z" fill="black"/>
<path d="M36.3595 75.1499H33.9402V80.0002H36.3595V75.1499Z" fill="black"/>
<path d="M38.7787 7.26953H36.3594V9.68882H38.7787V7.26953Z" fill="black"/>
<path d="M38.7787 12.1196H36.3594V14.5389H38.7787V12.1196Z" fill="black"/>
<path d="M38.7787 16.9702H36.3594V21.8205H38.7787V16.9702Z" fill="black"/>
<path d="M38.7787 26.6704H36.3594V31.5207H38.7787V26.6704Z" fill="black"/>
<path d="M38.7787 36.3594H36.3594V38.7787H38.7787V36.3594Z" fill="black"/>
<path d="M38.7787 41.2095H36.3594V46.0597H38.7787V41.2095Z" fill="black"/>
<path d="M38.7787 50.9102H36.3594V53.3294H38.7787V50.9102Z" fill="black"/>
<path d="M38.7787 53.3296H36.3594V58.1798H38.7787V53.3296Z" fill="black"/>
<path d="M38.7787 60.5991H36.3594V63.0184H38.7787V60.5991Z" fill="black"/>
<path d="M38.7787 67.8804H36.3594V70.2997H38.7787V67.8804Z" fill="black"/>
<path d="M38.7787 72.7188H36.3594V75.138H38.7787V72.7188Z" fill="black"/>
<path d="M41.2096 0H38.7903V7.26954H41.2096V0Z" fill="black"/>
<path d="M41.2096 9.70068H38.7903V24.2398H41.2096V9.70068Z" fill="black"/>
<path d="M41.2096 26.6704H38.7903V31.5207H41.2096V26.6704Z" fill="black"/>
<path d="M41.2096 38.7905H38.7903V41.2098H41.2096V38.7905Z" fill="black"/>
<path d="M41.2096 46.0601H38.7903V53.3296H41.2096V46.0601Z" fill="black"/>
<path d="M41.2096 58.1797H38.7903V63.0299H41.2096V58.1797Z" fill="black"/>
<path d="M41.2096 65.4492H38.7903V75.1497H41.2096V65.4492Z" fill="black"/>
<path d="M41.2096 77.5688H38.7903V79.9881H41.2096V77.5688Z" fill="black"/>
<path d="M43.629 2.41943H41.2097V4.83872H43.629V2.41943Z" fill="black"/>
<path d="M43.629 9.70068H41.2097V14.5509H43.629V9.70068Z" fill="black"/>
<path d="M43.629 16.9702H41.2097V24.2398H43.629V16.9702Z" fill="black"/>
<path d="M43.629 26.6704H41.2097V29.0897H43.629V26.6704Z" fill="black"/>
<path d="M43.629 33.9399H41.2097V36.3592H43.629V33.9399Z" fill="black"/>
<path d="M43.629 46.0601H41.2097V48.4793H43.629V46.0601Z" fill="black"/>
<path d="M43.629 58.1797H41.2097V60.599H43.629V58.1797Z" fill="black"/>
<path d="M43.629 63.0298H41.2097V70.2993H43.629V63.0298Z" fill="black"/>
<path d="M43.629 75.1499H41.2097V80.0002H43.629V75.1499Z" fill="black"/>
<path d="M46.0599 4.8501H43.6406V7.26938H46.0599V4.8501Z" fill="black"/>
<path d="M46.0599 7.26953H43.6406V16.97H46.0599V7.26953Z" fill="black"/>
<path d="M46.0599 21.8203H43.6406V26.6706H46.0599V21.8203Z" fill="black"/>
<path d="M46.0599 33.9399H43.6406V48.479H46.0599V33.9399Z" fill="black"/>
<path d="M46.0599 55.7485H43.6406V58.1678H46.0599V55.7485Z" fill="black"/>
<path d="M46.0599 63.0298H43.6406V70.2993H46.0599V63.0298Z" fill="black"/>
<path d="M46.0599 72.7188H43.6406V75.138H46.0599V72.7188Z" fill="black"/>
<path d="M46.0599 75.1499H43.6406V77.5692H46.0599V75.1499Z" fill="black"/>
<path d="M48.4791 0H46.0598V2.41928H48.4791V0Z" fill="black"/>
<path d="M48.4791 7.26953H46.0598V9.68882H48.4791V7.26953Z" fill="black"/>
<path d="M48.4791 16.9702H46.0598V19.3895H48.4791V16.9702Z" fill="black"/>
<path d="M48.4791 21.8203H46.0598V24.2396H48.4791V21.8203Z" fill="black"/>
<path d="M48.4791 33.9399H46.0598V36.3592H48.4791V33.9399Z" fill="black"/>
<path d="M48.4791 46.0601H46.0598V48.4793H48.4791V46.0601Z" fill="black"/>
<path d="M48.4791 53.3296H46.0598V55.7489H48.4791V53.3296Z" fill="black"/>
<path d="M48.4791 58.1797H46.0598V63.0299H48.4791V58.1797Z" fill="black"/>
<path d="M48.4791 63.0298H46.0598V67.88H48.4791V63.0298Z" fill="black"/>
<path d="M48.4791 70.2993H46.0598V72.7186H48.4791V70.2993Z" fill="black"/>
<path d="M48.4791 77.5688H46.0598V79.9881H48.4791V77.5688Z" fill="black"/>
<path d="M50.8985 0H48.4792V2.41928H50.8985V0Z" fill="black"/>
<path d="M50.8985 4.8501H48.4792V7.26938H50.8985V4.8501Z" fill="black"/>
<path d="M50.8985 14.5391H48.4792V16.9583H50.8985V14.5391Z" fill="black"/>
<path d="M50.8985 21.8203H48.4792V24.2396H50.8985V21.8203Z" fill="black"/>
<path d="M50.8985 26.6704H48.4792V36.3709H50.8985V26.6704Z" fill="black"/>
<path d="M50.8985 38.7905H48.4792V43.6408H50.8985V38.7905Z" fill="black"/>
<path d="M50.8985 50.9102H48.4792V53.3294H50.8985V50.9102Z" fill="black"/>
<path d="M50.8985 53.3296H48.4792V58.1798H50.8985V53.3296Z" fill="black"/>
<path d="M50.8985 60.5991H48.4792V63.0184H50.8985V60.5991Z" fill="black"/>
<path d="M50.8985 63.0298H48.4792V65.4491H50.8985V63.0298Z" fill="black"/>
<path d="M50.8985 72.7188H48.4792V75.138H50.8985V72.7188Z" fill="black"/>
<path d="M50.8985 75.1499H48.4792V77.5692H50.8985V75.1499Z" fill="black"/>
<path d="M53.3294 0H50.9102V2.41928H53.3294V0Z" fill="black"/>
<path d="M53.3294 4.8501H50.9102V7.26938H53.3294V4.8501Z" fill="black"/>
<path d="M53.3294 7.26953H50.9102V9.68882H53.3294V7.26953Z" fill="black"/>
<path d="M53.3294 19.3892H50.9102V21.8084H53.3294V19.3892Z" fill="black"/>
<path d="M53.3294 24.2397H50.9102V26.659H53.3294V24.2397Z" fill="black"/>
<path d="M53.3294 31.5093H50.9102V41.2098H53.3294V31.5093Z" fill="black"/>
<path d="M53.3294 43.6289H50.9102V46.0482H53.3294V43.6289Z" fill="black"/>
<path d="M53.3294 60.5991H50.9102V63.0184H53.3294V60.5991Z" fill="black"/>
<path d="M53.3294 63.0298H50.9102V65.4491H53.3294V63.0298Z" fill="black"/>
<path d="M53.3294 70.2993H50.9102V72.7186H53.3294V70.2993Z" fill="black"/>
<path d="M53.3294 77.5688H50.9102V79.9881H53.3294V77.5688Z" fill="black"/>
<path d="M55.7486 4.8501H53.3293V7.26938H55.7486V4.8501Z" fill="black"/>
<path d="M55.7486 7.26953H53.3293V9.68882H55.7486V7.26953Z" fill="black"/>
<path d="M55.7486 14.5391H53.3293V21.8086H55.7486V14.5391Z" fill="black"/>
<path d="M55.7486 26.6704H53.3293V29.0897H55.7486V26.6704Z" fill="black"/>
<path d="M55.7486 31.5093H53.3293V33.9286H55.7486V31.5093Z" fill="black"/>
<path d="M55.7486 38.7905H53.3293V43.6408H55.7486V38.7905Z" fill="black"/>
<path d="M55.7486 48.479H53.3293V50.8983H55.7486V48.479Z" fill="black"/>
<path d="M55.7486 53.3296H53.3293V55.7489H55.7486V53.3296Z" fill="black"/>
<path d="M55.7486 58.1797H53.3293V60.599H55.7486V58.1797Z" fill="black"/>
<path d="M55.7486 67.8804H53.3293V75.1499H55.7486V67.8804Z" fill="black"/>
<path d="M55.7486 75.1499H53.3293V77.5692H55.7486V75.1499Z" fill="black"/>
<path d="M58.1681 0H55.7488V7.26954H58.1681V0Z" fill="black"/>
<path d="M58.1681 9.70068H55.7488V12.12H58.1681V9.70068Z" fill="black"/>
<path d="M58.1681 16.9702H55.7488V19.3895H58.1681V16.9702Z" fill="black"/>
<path d="M58.1681 21.8203H55.7488V26.6706H58.1681V21.8203Z" fill="black"/>
<path d="M58.1681 31.5093H55.7488V33.9286H58.1681V31.5093Z" fill="black"/>
<path d="M58.1681 36.3594H55.7488V38.7787H58.1681V36.3594Z" fill="black"/>
<path d="M58.1681 41.2095H55.7488V43.6288H58.1681V41.2095Z" fill="black"/>
<path d="M58.1681 53.3296H55.7488V55.7489H58.1681V53.3296Z" fill="black"/>
<path d="M58.1681 58.1797H55.7488V63.0299H58.1681V58.1797Z" fill="black"/>
<path d="M58.1681 63.0298H55.7488V70.2993H58.1681V63.0298Z" fill="black"/>
<path d="M58.1681 72.7188H55.7488V75.138H58.1681V72.7188Z" fill="black"/>
<path d="M58.1681 75.1499H55.7488V80.0002H58.1681V75.1499Z" fill="black"/>
<path d="M60.599 2.41943H58.1797V7.26969H60.599V2.41943Z" fill="black"/>
<path d="M60.599 14.5391H58.1797V16.9583H60.599V14.5391Z" fill="black"/>
<path d="M60.599 24.2397H58.1797V26.659H60.599V24.2397Z" fill="black"/>
<path d="M60.599 33.9399H58.1797V36.3592H60.599V33.9399Z" fill="black"/>
<path d="M60.599 41.2095H58.1797V43.6288H60.599V41.2095Z" fill="black"/>
<path d="M60.599 46.0601H58.1797V50.9103H60.599V46.0601Z" fill="black"/>
<path d="M60.599 53.3296H58.1797V63.0301H60.599V53.3296Z" fill="black"/>
<path d="M60.599 63.0298H58.1797V72.7303H60.599V63.0298Z" fill="black"/>
<path d="M60.599 75.1499H58.1797V77.5692H60.599V75.1499Z" fill="black"/>
<path d="M63.0182 24.2397H60.5989V26.659H63.0182V24.2397Z" fill="black"/>
<path d="M63.0182 29.0898H60.5989V33.9401H63.0182V29.0898Z" fill="black"/>
<path d="M63.0182 36.3594H60.5989V43.6289H63.0182V36.3594Z" fill="black"/>
<path d="M63.0182 50.9102H60.5989V53.3294H63.0182V50.9102Z" fill="black"/>
<path d="M63.0182 53.3296H60.5989V55.7489H63.0182V53.3296Z" fill="black"/>
<path d="M63.0182 58.1797H60.5989V60.599H63.0182V58.1797Z" fill="black"/>
<path d="M63.0182 67.8804H60.5989V70.2997H63.0182V67.8804Z" fill="black"/>
<path d="M63.0182 75.1499H60.5989V77.5692H63.0182V75.1499Z" fill="black"/>
<path d="M65.4493 0H63.03V7.26954H65.4493V0Z" fill="black"/>
<path d="M65.4493 7.26953H63.03V16.97H65.4493V7.26953Z" fill="black"/>
<path d="M65.4493 19.3892H63.03V24.2394H65.4493V19.3892Z" fill="black"/>
<path d="M65.4493 26.6704H63.03V29.0897H65.4493V26.6704Z" fill="black"/>
<path d="M65.4493 33.9399H63.03V43.6405H65.4493V33.9399Z" fill="black"/>
<path d="M65.4493 50.9102H63.03V53.3294H65.4493V50.9102Z" fill="black"/>
<path d="M65.4493 53.3296H63.03V55.7489H65.4493V53.3296Z" fill="black"/>
<path d="M65.4493 58.1797H63.03V60.599H65.4493V58.1797Z" fill="black"/>
<path d="M65.4493 63.0298H63.03V65.4491H65.4493V63.0298Z" fill="black"/>
<path d="M65.4493 67.8804H63.03V70.2997H65.4493V67.8804Z" fill="black"/>
<path d="M65.4493 72.7188H63.03V75.138H65.4493V72.7188Z" fill="black"/>
<path d="M65.4493 75.1499H63.03V77.5692H65.4493V75.1499Z" fill="black"/>
<path d="M67.8685 0H65.4492V2.41928H67.8685V0Z" fill="black"/>
<path d="M67.8685 14.5391H65.4492V16.9583H67.8685V14.5391Z" fill="black"/>
<path d="M67.8685 21.8203H65.4492V33.9401H67.8685V21.8203Z" fill="black"/>
<path d="M67.8685 43.6289H65.4492V46.0482H67.8685V43.6289Z" fill="black"/>
<path d="M67.8685 55.7485H65.4492V60.5988H67.8685V55.7485Z" fill="black"/>
<path d="M67.8685 67.8804H65.4492V75.1499H67.8685V67.8804Z" fill="black"/>
<path d="M67.8685 75.1499H65.4492V77.5692H67.8685V75.1499Z" fill="black"/>
<path d="M70.2994 0H67.8801V2.41928H70.2994V0Z" fill="black"/>
<path d="M70.2994 4.8501H67.8801V7.26938H70.2994V4.8501Z" fill="black"/>
<path d="M70.2994 7.26953H67.8801V12.1198H70.2994V7.26953Z" fill="black"/>
<path d="M70.2994 14.5391H67.8801V16.9583H70.2994V14.5391Z" fill="black"/>
<path d="M70.2994 24.2397H67.8801V26.659H70.2994V24.2397Z" fill="black"/>
<path d="M70.2994 29.0898H67.8801V31.5091H70.2994V29.0898Z" fill="black"/>
<path d="M70.2994 38.7905H67.8801V48.491H70.2994V38.7905Z" fill="black"/>
<path d="M70.2994 53.3296H67.8801V55.7489H70.2994V53.3296Z" fill="black"/>
<path d="M70.2994 58.1797H67.8801V63.0299H70.2994V58.1797Z" fill="black"/>
<path d="M70.2994 63.0298H67.8801V70.2993H70.2994V63.0298Z" fill="black"/>
<path d="M70.2994 75.1499H67.8801V80.0002H70.2994V75.1499Z" fill="black"/>
<path d="M72.7188 0H70.2996V2.41928H72.7188V0Z" fill="black"/>
<path d="M72.7188 4.8501H70.2996V7.26938H72.7188V4.8501Z" fill="black"/>
<path d="M72.7188 7.26953H70.2996V12.1198H72.7188V7.26953Z" fill="black"/>
<path d="M72.7188 14.5391H70.2996V16.9583H72.7188V14.5391Z" fill="black"/>
<path d="M72.7188 19.3892H70.2996V31.509H72.7188V19.3892Z" fill="black"/>
<path d="M72.7188 36.3594H70.2996V43.6289H72.7188V36.3594Z" fill="black"/>
<path d="M72.7188 48.479H70.2996V50.8983H72.7188V48.479Z" fill="black"/>
<path d="M72.7188 55.7485H70.2996V58.1678H72.7188V55.7485Z" fill="black"/>
<path d="M72.7188 60.5991H70.2996V63.0184H72.7188V60.5991Z" fill="black"/>
<path d="M72.7188 65.4492H70.2996V67.8685H72.7188V65.4492Z" fill="black"/>
<path d="M72.7188 70.2993H70.2996V75.1496H72.7188V70.2993Z" fill="black"/>
<path d="M75.138 0H72.7188V2.41928H75.138V0Z" fill="black"/>
<path d="M75.138 4.8501H72.7188V7.26938H75.138V4.8501Z" fill="black"/>
<path d="M75.138 7.26953H72.7188V12.1198H75.138V7.26953Z" fill="black"/>
<path d="M75.138 14.5391H72.7188V16.9583H75.138V14.5391Z" fill="black"/>
<path d="M75.138 21.8203H72.7188V24.2396H75.138V21.8203Z" fill="black"/>
<path d="M75.138 36.3594H72.7188V41.2096H75.138V36.3594Z" fill="black"/>
<path d="M75.138 43.6289H72.7188V46.0482H75.138V43.6289Z" fill="black"/>
<path d="M75.138 48.479H72.7188V50.8983H75.138V48.479Z" fill="black"/>
<path d="M75.138 65.4492H72.7188V72.7188H75.138V65.4492Z" fill="black"/>
<path d="M75.138 77.5688H72.7188V79.9881H75.138V77.5688Z" fill="black"/>
<path d="M77.5689 0H75.1497V2.41928H77.5689V0Z" fill="black"/>
<path d="M77.5689 14.5391H75.1497V16.9583H77.5689V14.5391Z" fill="black"/>
<path d="M77.5689 19.3892H75.1497V26.6587H77.5689V19.3892Z" fill="black"/>
<path d="M77.5689 31.5093H75.1497V33.9286H77.5689V31.5093Z" fill="black"/>
<path d="M77.5689 41.2095H75.1497V46.0597H77.5689V41.2095Z" fill="black"/>
<path d="M77.5689 53.3296H75.1497V55.7489H77.5689V53.3296Z" fill="black"/>
<path d="M77.5689 65.4492H75.1497V67.8685H77.5689V65.4492Z" fill="black"/>
<path d="M77.5689 70.2993H75.1497V72.7186H77.5689V70.2993Z" fill="black"/>
<path d="M79.9884 0H77.5691V7.26954H79.9884V0Z" fill="black"/>
<path d="M79.9884 7.26953H77.5691V16.97H79.9884V7.26953Z" fill="black"/>
<path d="M79.9884 19.3892H77.5691V26.6587H79.9884V19.3892Z" fill="black"/>
<path d="M79.9884 41.2095H77.5691V43.6288H79.9884V41.2095Z" fill="black"/>
<path d="M79.9884 46.0601H77.5691V53.3296H79.9884V46.0601Z" fill="black"/>
<path d="M79.9884 53.3296H77.5691V60.5991H79.9884V53.3296Z" fill="black"/>
<path d="M79.9884 65.4492H77.5691V72.7188H79.9884V65.4492Z" fill="black"/>
<path d="M79.9884 75.1499H77.5691V77.5692H79.9884V75.1499Z" fill="black"/>
</g>
<defs>
<clipPath id="clip0_38_41">
<rect width="80" height="80" fill="white"/>
</clipPath>
</defs>
</svg>
