<svg width="79" height="79" viewBox="0 0 79 79" fill="none" xmlns="http://www.w3.org/2000/svg">
<g clip-path="url(#clip0_38_1069)">
<path d="M2.13514 0H0V14.9459H2.13514V0Z" fill="black"/>
<path d="M2.13514 17.0811H0V19.2162H2.13514V17.0811Z" fill="black"/>
<path d="M2.13514 21.3516H0V27.757H2.13514V21.3516Z" fill="black"/>
<path d="M2.13514 29.8921H0V42.7029H2.13514V29.8921Z" fill="black"/>
<path d="M2.13514 44.8379H0V46.973H2.13514V44.8379Z" fill="black"/>
<path d="M2.13514 51.2432H0V61.9188H2.13514V51.2432Z" fill="black"/>
<path d="M2.13514 64.0542H0V79.0001H2.13514V64.0542Z" fill="black"/>
<path d="M4.27039 0H2.13525V2.13514H4.27039V0Z" fill="black"/>
<path d="M4.27039 12.811H2.13525V14.9462H4.27039V12.811Z" fill="black"/>
<path d="M4.27039 19.2163H2.13525V23.4866H4.27039V19.2163Z" fill="black"/>
<path d="M4.27039 25.6216H2.13525V27.7567H4.27039V25.6216Z" fill="black"/>
<path d="M4.27039 29.8921H2.13525V32.0272H4.27039V29.8921Z" fill="black"/>
<path d="M4.27039 34.1621H2.13525V36.2972H4.27039V34.1621Z" fill="black"/>
<path d="M4.27039 40.5674H2.13525V42.7025H4.27039V40.5674Z" fill="black"/>
<path d="M4.27039 44.8379H2.13525V51.2433H4.27039V44.8379Z" fill="black"/>
<path d="M4.27039 55.5137H2.13525V57.6488H4.27039V55.5137Z" fill="black"/>
<path d="M4.27039 64.0542H2.13525V66.1893H4.27039V64.0542Z" fill="black"/>
<path d="M4.27039 76.8647H2.13525V78.9999H4.27039V76.8647Z" fill="black"/>
<path d="M6.40564 0H4.27051V2.13514H6.40564V0Z" fill="black"/>
<path d="M6.40564 4.27051H4.27051V10.6759H6.40564V4.27051Z" fill="black"/>
<path d="M6.40564 12.811H4.27051V14.9462H6.40564V12.811Z" fill="black"/>
<path d="M6.40564 19.2163H4.27051V25.6217H6.40564V19.2163Z" fill="black"/>
<path d="M6.40564 27.7568H4.27051V29.892H6.40564V27.7568Z" fill="black"/>
<path d="M6.40564 32.0269H4.27051V34.162H6.40564V32.0269Z" fill="black"/>
<path d="M6.40564 36.2974H4.27051V40.5676H6.40564V36.2974Z" fill="black"/>
<path d="M6.40564 49.1079H4.27051V51.243H6.40564V49.1079Z" fill="black"/>
<path d="M6.40564 53.3784H4.27051V55.5136H6.40564V53.3784Z" fill="black"/>
<path d="M6.40564 64.0542H4.27051V66.1893H6.40564V64.0542Z" fill="black"/>
<path d="M6.40564 68.3242H4.27051V74.7296H6.40564V68.3242Z" fill="black"/>
<path d="M6.40564 76.8647H4.27051V78.9999H6.40564V76.8647Z" fill="black"/>
<path d="M8.54041 0H6.40527V2.13514H8.54041V0Z" fill="black"/>
<path d="M8.54041 4.27051H6.40527V10.6759H8.54041V4.27051Z" fill="black"/>
<path d="M8.54041 12.811H6.40527V14.9462H8.54041V12.811Z" fill="black"/>
<path d="M8.54041 17.0811H6.40527V19.2162H8.54041V17.0811Z" fill="black"/>
<path d="M8.54041 23.4863H6.40527V25.6215H8.54041V23.4863Z" fill="black"/>
<path d="M8.54041 36.2974H6.40527V44.8379H8.54041V36.2974Z" fill="black"/>
<path d="M8.54041 51.2432H6.40527V55.5134H8.54041V51.2432Z" fill="black"/>
<path d="M8.54041 57.6484H6.40527V61.9187H8.54041V57.6484Z" fill="black"/>
<path d="M8.54041 64.0542H6.40527V66.1893H8.54041V64.0542Z" fill="black"/>
<path d="M8.54041 68.3242H6.40527V74.7296H8.54041V68.3242Z" fill="black"/>
<path d="M8.54041 76.8647H6.40527V78.9999H8.54041V76.8647Z" fill="black"/>
<path d="M10.6757 0H8.54053V2.13514H10.6757V0Z" fill="black"/>
<path d="M10.6757 4.27051H8.54053V10.6759H10.6757V4.27051Z" fill="black"/>
<path d="M10.6757 12.811H8.54053V14.9462H10.6757V12.811Z" fill="black"/>
<path d="M10.6757 17.0811H8.54053V19.2162H10.6757V17.0811Z" fill="black"/>
<path d="M10.6757 25.6216H8.54053V32.027H10.6757V25.6216Z" fill="black"/>
<path d="M10.6757 40.5674H8.54053V42.7025H10.6757V40.5674Z" fill="black"/>
<path d="M10.6757 44.8379H8.54053V49.1082H10.6757V44.8379Z" fill="black"/>
<path d="M10.6757 51.2432H8.54053V53.3783H10.6757V51.2432Z" fill="black"/>
<path d="M10.6757 55.5137H8.54053V59.7839H10.6757V55.5137Z" fill="black"/>
<path d="M10.6757 64.0542H8.54053V66.1893H10.6757V64.0542Z" fill="black"/>
<path d="M10.6757 68.3242H8.54053V74.7296H10.6757V68.3242Z" fill="black"/>
<path d="M10.6757 76.8647H8.54053V78.9999H10.6757V76.8647Z" fill="black"/>
<path d="M12.8109 0H10.6758V2.13514H12.8109V0Z" fill="black"/>
<path d="M12.8109 12.811H10.6758V14.9462H12.8109V12.811Z" fill="black"/>
<path d="M12.8109 17.0811H10.6758V21.3513H12.8109V17.0811Z" fill="black"/>
<path d="M12.8109 23.4863H10.6758V25.6215H12.8109V23.4863Z" fill="black"/>
<path d="M12.8109 29.8921H10.6758V38.4326H12.8109V29.8921Z" fill="black"/>
<path d="M12.8109 42.7026H10.6758V44.8378H12.8109V42.7026Z" fill="black"/>
<path d="M12.8109 46.9731H10.6758V51.2434H12.8109V46.9731Z" fill="black"/>
<path d="M12.8109 55.5137H10.6758V57.6488H12.8109V55.5137Z" fill="black"/>
<path d="M12.8109 64.0542H10.6758V66.1893H12.8109V64.0542Z" fill="black"/>
<path d="M12.8109 76.8647H10.6758V78.9999H12.8109V76.8647Z" fill="black"/>
<path d="M14.9462 0H12.811V14.9459H14.9462V0Z" fill="black"/>
<path d="M14.9462 17.0811H12.811V19.2162H14.9462V17.0811Z" fill="black"/>
<path d="M14.9462 21.3516H12.811V23.4867H14.9462V21.3516Z" fill="black"/>
<path d="M14.9462 25.6216H12.811V27.7567H14.9462V25.6216Z" fill="black"/>
<path d="M14.9462 29.8921H12.811V32.0272H14.9462V29.8921Z" fill="black"/>
<path d="M14.9462 34.1621H12.811V36.2972H14.9462V34.1621Z" fill="black"/>
<path d="M14.9462 38.4326H12.811V40.5678H14.9462V38.4326Z" fill="black"/>
<path d="M14.9462 42.7026H12.811V44.8378H14.9462V42.7026Z" fill="black"/>
<path d="M14.9462 46.9731H12.811V49.1083H14.9462V46.9731Z" fill="black"/>
<path d="M14.9462 51.2432H12.811V53.3783H14.9462V51.2432Z" fill="black"/>
<path d="M14.9462 55.5137H12.811V57.6488H14.9462V55.5137Z" fill="black"/>
<path d="M14.9462 59.7837H12.811V61.9188H14.9462V59.7837Z" fill="black"/>
<path d="M14.9462 64.0542H12.811V79.0001H14.9462V64.0542Z" fill="black"/>
<path d="M17.0809 17.0811H14.9458V21.3513H17.0809V17.0811Z" fill="black"/>
<path d="M17.0809 25.6216H14.9458V27.7567H17.0809V25.6216Z" fill="black"/>
<path d="M17.0809 32.0269H14.9458V36.2971H17.0809V32.0269Z" fill="black"/>
<path d="M17.0809 42.7026H14.9458V46.9729H17.0809V42.7026Z" fill="black"/>
<path d="M17.0809 49.1079H14.9458V55.5133H17.0809V49.1079Z" fill="black"/>
<path d="M19.2162 0H17.0811V6.40541H19.2162V0Z" fill="black"/>
<path d="M19.2162 8.54053H17.0811V10.6757H19.2162V8.54053Z" fill="black"/>
<path d="M19.2162 12.811H17.0811V14.9462H19.2162V12.811Z" fill="black"/>
<path d="M19.2162 17.0811H17.0811V21.3513H19.2162V17.0811Z" fill="black"/>
<path d="M19.2162 29.8921H17.0811V32.0272H19.2162V29.8921Z" fill="black"/>
<path d="M19.2162 38.4326H17.0811V40.5678H19.2162V38.4326Z" fill="black"/>
<path d="M19.2162 42.7026H17.0811V44.8378H19.2162V42.7026Z" fill="black"/>
<path d="M19.2162 49.1079H17.0811V55.5133H19.2162V49.1079Z" fill="black"/>
<path d="M19.2162 57.6484H17.0811V59.7836H19.2162V57.6484Z" fill="black"/>
<path d="M19.2162 61.9189H17.0811V72.5946H19.2162V61.9189Z" fill="black"/>
<path d="M19.2162 76.8647H17.0811V78.9999H19.2162V76.8647Z" fill="black"/>
<path d="M21.3514 0H19.2163V2.13514H21.3514V0Z" fill="black"/>
<path d="M21.3514 8.54053H19.2163V10.6757H21.3514V8.54053Z" fill="black"/>
<path d="M21.3514 14.9458H19.2163V32.0269H21.3514V14.9458Z" fill="black"/>
<path d="M21.3514 36.2974H19.2163V40.5676H21.3514V36.2974Z" fill="black"/>
<path d="M21.3514 44.8379H19.2163V51.2433H21.3514V44.8379Z" fill="black"/>
<path d="M21.3514 53.3784H19.2163V55.5136H21.3514V53.3784Z" fill="black"/>
<path d="M21.3514 64.0542H19.2163V66.1893H21.3514V64.0542Z" fill="black"/>
<path d="M21.3514 70.4595H19.2163V79H21.3514V70.4595Z" fill="black"/>
<path d="M23.4867 0H21.3516V2.13514H23.4867V0Z" fill="black"/>
<path d="M23.4867 8.54053H21.3516V10.6757H23.4867V8.54053Z" fill="black"/>
<path d="M23.4867 12.811H21.3516V14.9462H23.4867V12.811Z" fill="black"/>
<path d="M23.4867 19.2163H21.3516V21.3514H23.4867V19.2163Z" fill="black"/>
<path d="M23.4867 23.4863H21.3516V34.162H23.4867V23.4863Z" fill="black"/>
<path d="M23.4867 38.4326H21.3516V40.5678H23.4867V38.4326Z" fill="black"/>
<path d="M23.4867 42.7026H21.3516V44.8378H23.4867V42.7026Z" fill="black"/>
<path d="M23.4867 49.1079H21.3516V51.243H23.4867V49.1079Z" fill="black"/>
<path d="M23.4867 53.3784H21.3516V57.6487H23.4867V53.3784Z" fill="black"/>
<path d="M23.4867 61.9189H21.3516V64.0541H23.4867V61.9189Z" fill="black"/>
<path d="M23.4867 66.189H21.3516V68.3241H23.4867V66.189Z" fill="black"/>
<path d="M23.4867 76.8647H21.3516V78.9999H23.4867V76.8647Z" fill="black"/>
<path d="M25.6215 0H23.4863V6.40541H25.6215V0Z" fill="black"/>
<path d="M25.6215 8.54053H23.4863V10.6757H25.6215V8.54053Z" fill="black"/>
<path d="M25.6215 19.2163H23.4863V23.4866H25.6215V19.2163Z" fill="black"/>
<path d="M25.6215 32.0269H23.4863V36.2971H25.6215V32.0269Z" fill="black"/>
<path d="M25.6215 40.5674H23.4863V44.8377H25.6215V40.5674Z" fill="black"/>
<path d="M25.6215 46.9731H23.4863V51.2434H25.6215V46.9731Z" fill="black"/>
<path d="M25.6215 53.3784H23.4863V57.6487H25.6215V53.3784Z" fill="black"/>
<path d="M25.6215 59.7837H23.4863V61.9188H25.6215V59.7837Z" fill="black"/>
<path d="M25.6215 70.4595H23.4863V76.8649H25.6215V70.4595Z" fill="black"/>
<path d="M27.7567 0H25.6216V2.13514H27.7567V0Z" fill="black"/>
<path d="M27.7567 4.27051H25.6216V6.40564H27.7567V4.27051Z" fill="black"/>
<path d="M27.7567 8.54053H25.6216V10.6757H27.7567V8.54053Z" fill="black"/>
<path d="M27.7567 12.811H25.6216V17.0813H27.7567V12.811Z" fill="black"/>
<path d="M27.7567 23.4863H25.6216V38.4323H27.7567V23.4863Z" fill="black"/>
<path d="M27.7567 40.5674H25.6216V42.7025H27.7567V40.5674Z" fill="black"/>
<path d="M27.7567 44.8379H25.6216V46.973H27.7567V44.8379Z" fill="black"/>
<path d="M27.7567 49.1079H25.6216V57.6485H27.7567V49.1079Z" fill="black"/>
<path d="M27.7567 68.3242H25.6216V74.7296H27.7567V68.3242Z" fill="black"/>
<path d="M29.892 4.27051H27.7568V6.40564H29.892V4.27051Z" fill="black"/>
<path d="M29.892 8.54053H27.7568V10.6757H29.892V8.54053Z" fill="black"/>
<path d="M29.892 14.9458H27.7568V25.6215H29.892V14.9458Z" fill="black"/>
<path d="M29.892 29.8921H27.7568V32.0272H29.892V29.8921Z" fill="black"/>
<path d="M29.892 34.1621H27.7568V38.4324H29.892V34.1621Z" fill="black"/>
<path d="M29.892 46.9731H27.7568V55.5137H29.892V46.9731Z" fill="black"/>
<path d="M29.892 61.9189H27.7568V64.0541H29.892V61.9189Z" fill="black"/>
<path d="M29.892 70.4595H27.7568V72.5946H29.892V70.4595Z" fill="black"/>
<path d="M29.892 76.8647H27.7568V78.9999H29.892V76.8647Z" fill="black"/>
<path d="M32.0272 0H29.8921V6.40541H32.0272V0Z" fill="black"/>
<path d="M32.0272 8.54053H29.8921V10.6757H32.0272V8.54053Z" fill="black"/>
<path d="M32.0272 12.811H29.8921V17.0813H32.0272V12.811Z" fill="black"/>
<path d="M32.0272 19.2163H29.8921V21.3514H32.0272V19.2163Z" fill="black"/>
<path d="M32.0272 25.6216H29.8921V29.8919H32.0272V25.6216Z" fill="black"/>
<path d="M32.0272 32.0269H29.8921V36.2971H32.0272V32.0269Z" fill="black"/>
<path d="M32.0272 42.7026H29.8921V44.8378H32.0272V42.7026Z" fill="black"/>
<path d="M32.0272 49.1079H29.8921V53.3782H32.0272V49.1079Z" fill="black"/>
<path d="M32.0272 55.5137H29.8921V59.7839H32.0272V55.5137Z" fill="black"/>
<path d="M32.0272 61.9189H29.8921V64.0541H32.0272V61.9189Z" fill="black"/>
<path d="M32.0272 66.189H29.8921V68.3241H32.0272V66.189Z" fill="black"/>
<path d="M32.0272 74.7295H29.8921V78.9998H32.0272V74.7295Z" fill="black"/>
<path d="M34.162 0H32.0269V8.54054H34.162V0Z" fill="black"/>
<path d="M34.162 10.6758H32.0269V12.8109H34.162V10.6758Z" fill="black"/>
<path d="M34.162 23.4863H32.0269V25.6215H34.162V23.4863Z" fill="black"/>
<path d="M34.162 27.7568H32.0269V32.0271H34.162V27.7568Z" fill="black"/>
<path d="M34.162 38.4326H32.0269V40.5678H34.162V38.4326Z" fill="black"/>
<path d="M34.162 42.7026H32.0269V51.2432H34.162V42.7026Z" fill="black"/>
<path d="M34.162 57.6484H32.0269V59.7836H34.162V57.6484Z" fill="black"/>
<path d="M34.162 61.9189H32.0269V66.1892H34.162V61.9189Z" fill="black"/>
<path d="M34.162 68.3242H32.0269V70.4594H34.162V68.3242Z" fill="black"/>
<path d="M34.162 72.5947H32.0269V74.7299H34.162V72.5947Z" fill="black"/>
<path d="M34.162 76.8647H32.0269V78.9999H34.162V76.8647Z" fill="black"/>
<path d="M36.2972 0H34.1621V4.27027H36.2972V0Z" fill="black"/>
<path d="M36.2972 6.40527H34.1621V8.54041H36.2972V6.40527Z" fill="black"/>
<path d="M36.2972 10.6758H34.1621V14.9461H36.2972V10.6758Z" fill="black"/>
<path d="M36.2972 17.0811H34.1621V19.2162H36.2972V17.0811Z" fill="black"/>
<path d="M36.2972 25.6216H34.1621V29.8919H36.2972V25.6216Z" fill="black"/>
<path d="M36.2972 32.0269H34.1621V38.4323H36.2972V32.0269Z" fill="black"/>
<path d="M36.2972 42.7026H34.1621V44.8378H36.2972V42.7026Z" fill="black"/>
<path d="M36.2972 46.9731H34.1621V49.1083H36.2972V46.9731Z" fill="black"/>
<path d="M36.2972 51.2432H34.1621V57.6486H36.2972V51.2432Z" fill="black"/>
<path d="M36.2972 61.9189H34.1621V68.3244H36.2972V61.9189Z" fill="black"/>
<path d="M36.2972 70.4595H34.1621V79H36.2972V70.4595Z" fill="black"/>
<path d="M38.4325 6.40527H36.2974V12.8107H38.4325V6.40527Z" fill="black"/>
<path d="M38.4325 23.4863H36.2974V25.6215H38.4325V23.4863Z" fill="black"/>
<path d="M38.4325 27.7568H36.2974V36.2974H38.4325V27.7568Z" fill="black"/>
<path d="M38.4325 42.7026H36.2974V44.8378H38.4325V42.7026Z" fill="black"/>
<path d="M38.4325 46.9731H36.2974V53.3786H38.4325V46.9731Z" fill="black"/>
<path d="M38.4325 66.189H36.2974V68.3241H38.4325V66.189Z" fill="black"/>
<path d="M38.4325 74.7295H36.2974V76.8646H38.4325V74.7295Z" fill="black"/>
<path d="M40.5678 0H38.4326V6.40541H40.5678V0Z" fill="black"/>
<path d="M40.5678 8.54053H38.4326V14.9459H40.5678V8.54053Z" fill="black"/>
<path d="M40.5678 17.0811H38.4326V19.2162H40.5678V17.0811Z" fill="black"/>
<path d="M40.5678 21.3516H38.4326V25.6218H40.5678V21.3516Z" fill="black"/>
<path d="M40.5678 27.7568H38.4326V29.892H40.5678V27.7568Z" fill="black"/>
<path d="M40.5678 32.0269H38.4326V34.162H40.5678V32.0269Z" fill="black"/>
<path d="M40.5678 36.2974H38.4326V38.4325H40.5678V36.2974Z" fill="black"/>
<path d="M40.5678 44.8379H38.4326V49.1082H40.5678V44.8379Z" fill="black"/>
<path d="M40.5678 51.2432H38.4326V53.3783H40.5678V51.2432Z" fill="black"/>
<path d="M40.5678 55.5137H38.4326V57.6488H40.5678V55.5137Z" fill="black"/>
<path d="M40.5678 66.189H38.4326V68.3241H40.5678V66.189Z" fill="black"/>
<path d="M40.5678 70.4595H38.4326V76.8649H40.5678V70.4595Z" fill="black"/>
<path d="M42.7025 0H40.5674V2.13514H42.7025V0Z" fill="black"/>
<path d="M42.7025 6.40527H40.5674V10.6755H42.7025V6.40527Z" fill="black"/>
<path d="M42.7025 17.0811H40.5674V19.2162H42.7025V17.0811Z" fill="black"/>
<path d="M42.7025 25.6216H40.5674V27.7567H42.7025V25.6216Z" fill="black"/>
<path d="M42.7025 29.8921H40.5674V32.0272H42.7025V29.8921Z" fill="black"/>
<path d="M42.7025 44.8379H40.5674V46.973H42.7025V44.8379Z" fill="black"/>
<path d="M42.7025 51.2432H40.5674V57.6486H42.7025V51.2432Z" fill="black"/>
<path d="M42.7025 61.9189H40.5674V66.1892H42.7025V61.9189Z" fill="black"/>
<path d="M42.7025 72.5947H40.5674V76.865H42.7025V72.5947Z" fill="black"/>
<path d="M44.8378 2.13525H42.7026V8.54066H44.8378V2.13525Z" fill="black"/>
<path d="M44.8378 10.6758H42.7026V21.3515H44.8378V10.6758Z" fill="black"/>
<path d="M44.8378 29.8921H42.7026V40.5678H44.8378V29.8921Z" fill="black"/>
<path d="M44.8378 46.9731H42.7026V51.2434H44.8378V46.9731Z" fill="black"/>
<path d="M44.8378 53.3784H42.7026V64.0541H44.8378V53.3784Z" fill="black"/>
<path d="M44.8378 72.5947H42.7026V79.0001H44.8378V72.5947Z" fill="black"/>
<path d="M46.973 2.13525H44.8379V8.54066H46.973V2.13525Z" fill="black"/>
<path d="M46.973 10.6758H44.8379V12.8109H46.973V10.6758Z" fill="black"/>
<path d="M46.973 14.9458H44.8379V19.2161H46.973V14.9458Z" fill="black"/>
<path d="M46.973 21.3516H44.8379V23.4867H46.973V21.3516Z" fill="black"/>
<path d="M46.973 29.8921H44.8379V32.0272H46.973V29.8921Z" fill="black"/>
<path d="M46.973 34.1621H44.8379V36.2972H46.973V34.1621Z" fill="black"/>
<path d="M46.973 38.4326H44.8379V40.5678H46.973V38.4326Z" fill="black"/>
<path d="M46.973 44.8379H44.8379V46.973H46.973V44.8379Z" fill="black"/>
<path d="M46.973 49.1079H44.8379V53.3782H46.973V49.1079Z" fill="black"/>
<path d="M46.973 64.0542H44.8379V66.1893H46.973V64.0542Z" fill="black"/>
<path d="M46.973 68.3242H44.8379V70.4594H46.973V68.3242Z" fill="black"/>
<path d="M46.973 72.5947H44.8379V74.7299H46.973V72.5947Z" fill="black"/>
<path d="M49.1083 2.13525H46.9731V4.27039H49.1083V2.13525Z" fill="black"/>
<path d="M49.1083 8.54053H46.9731V10.6757H49.1083V8.54053Z" fill="black"/>
<path d="M49.1083 12.811H46.9731V14.9462H49.1083V12.811Z" fill="black"/>
<path d="M49.1083 19.2163H46.9731V25.6217H49.1083V19.2163Z" fill="black"/>
<path d="M49.1083 29.8921H46.9731V32.0272H49.1083V29.8921Z" fill="black"/>
<path d="M49.1083 38.4326H46.9731V42.7029H49.1083V38.4326Z" fill="black"/>
<path d="M49.1083 46.9731H46.9731V51.2434H49.1083V46.9731Z" fill="black"/>
<path d="M49.1083 55.5137H46.9731V70.4596H49.1083V55.5137Z" fill="black"/>
<path d="M49.1083 76.8647H46.9731V78.9999H49.1083V76.8647Z" fill="black"/>
<path d="M51.243 0H49.1079V2.13514H51.243V0Z" fill="black"/>
<path d="M51.243 10.6758H49.1079V12.8109H51.243V10.6758Z" fill="black"/>
<path d="M51.243 27.7568H49.1079V29.892H51.243V27.7568Z" fill="black"/>
<path d="M51.243 32.0269H49.1079V34.162H51.243V32.0269Z" fill="black"/>
<path d="M51.243 36.2974H49.1079V40.5676H51.243V36.2974Z" fill="black"/>
<path d="M51.243 44.8379H49.1079V53.3784H51.243V44.8379Z" fill="black"/>
<path d="M51.243 55.5137H49.1079V59.7839H51.243V55.5137Z" fill="black"/>
<path d="M51.243 64.0542H49.1079V68.3245H51.243V64.0542Z" fill="black"/>
<path d="M51.243 72.5947H49.1079V74.7299H51.243V72.5947Z" fill="black"/>
<path d="M51.243 76.8647H49.1079V78.9999H51.243V76.8647Z" fill="black"/>
<path d="M53.3783 0H51.2432V2.13514H53.3783V0Z" fill="black"/>
<path d="M53.3783 4.27051H51.2432V8.54078H53.3783V4.27051Z" fill="black"/>
<path d="M53.3783 10.6758H51.2432V14.9461H53.3783V10.6758Z" fill="black"/>
<path d="M53.3783 17.0811H51.2432V19.2162H53.3783V17.0811Z" fill="black"/>
<path d="M53.3783 21.3516H51.2432V23.4867H53.3783V21.3516Z" fill="black"/>
<path d="M53.3783 36.2974H51.2432V38.4325H53.3783V36.2974Z" fill="black"/>
<path d="M53.3783 40.5674H51.2432V46.9728H53.3783V40.5674Z" fill="black"/>
<path d="M53.3783 49.1079H51.2432V53.3782H53.3783V49.1079Z" fill="black"/>
<path d="M53.3783 55.5137H51.2432V57.6488H53.3783V55.5137Z" fill="black"/>
<path d="M53.3783 59.7837H51.2432V61.9188H53.3783V59.7837Z" fill="black"/>
<path d="M53.3783 66.189H51.2432V76.8646H53.3783V66.189Z" fill="black"/>
<path d="M55.5136 4.27051H53.3784V12.811H55.5136V4.27051Z" fill="black"/>
<path d="M55.5136 14.9458H53.3784V17.0809H55.5136V14.9458Z" fill="black"/>
<path d="M55.5136 21.3516H53.3784V23.4867H55.5136V21.3516Z" fill="black"/>
<path d="M55.5136 27.7568H53.3784V29.892H55.5136V27.7568Z" fill="black"/>
<path d="M55.5136 34.1621H53.3784V38.4324H55.5136V34.1621Z" fill="black"/>
<path d="M55.5136 40.5674H53.3784V42.7025H55.5136V40.5674Z" fill="black"/>
<path d="M55.5136 44.8379H53.3784V46.973H55.5136V44.8379Z" fill="black"/>
<path d="M55.5136 53.3784H53.3784V55.5136H55.5136V53.3784Z" fill="black"/>
<path d="M55.5136 59.7837H53.3784V61.9188H55.5136V59.7837Z" fill="black"/>
<path d="M55.5136 64.0542H53.3784V68.3245H55.5136V64.0542Z" fill="black"/>
<path d="M55.5136 70.4595H53.3784V74.7297H55.5136V70.4595Z" fill="black"/>
<path d="M57.6488 0H55.5137V2.13514H57.6488V0Z" fill="black"/>
<path d="M57.6488 8.54053H55.5137V21.3513H57.6488V8.54053Z" fill="black"/>
<path d="M57.6488 23.4863H55.5137V25.6215H57.6488V23.4863Z" fill="black"/>
<path d="M57.6488 27.7568H55.5137V32.0271H57.6488V27.7568Z" fill="black"/>
<path d="M57.6488 34.1621H55.5137V38.4324H57.6488V34.1621Z" fill="black"/>
<path d="M57.6488 42.7026H55.5137V44.8378H57.6488V42.7026Z" fill="black"/>
<path d="M57.6488 49.1079H55.5137V51.243H57.6488V49.1079Z" fill="black"/>
<path d="M57.6488 53.3784H55.5137V61.919H57.6488V53.3784Z" fill="black"/>
<path d="M57.6488 64.0542H55.5137V66.1893H57.6488V64.0542Z" fill="black"/>
<path d="M57.6488 68.3242H55.5137V70.4594H57.6488V68.3242Z" fill="black"/>
<path d="M59.7836 4.27051H57.6484V6.40564H59.7836V4.27051Z" fill="black"/>
<path d="M59.7836 14.9458H57.6484V23.4863H59.7836V14.9458Z" fill="black"/>
<path d="M59.7836 27.7568H57.6484V34.1622H59.7836V27.7568Z" fill="black"/>
<path d="M59.7836 36.2974H57.6484V49.1082H59.7836V36.2974Z" fill="black"/>
<path d="M59.7836 53.3784H57.6484V61.919H59.7836V53.3784Z" fill="black"/>
<path d="M59.7836 66.189H57.6484V70.4592H59.7836V66.189Z" fill="black"/>
<path d="M59.7836 74.7295H57.6484V78.9998H59.7836V74.7295Z" fill="black"/>
<path d="M61.9188 2.13525H59.7837V8.54066H61.9188V2.13525Z" fill="black"/>
<path d="M61.9188 12.811H59.7837V14.9462H61.9188V12.811Z" fill="black"/>
<path d="M61.9188 17.0811H59.7837V19.2162H61.9188V17.0811Z" fill="black"/>
<path d="M61.9188 25.6216H59.7837V29.8919H61.9188V25.6216Z" fill="black"/>
<path d="M61.9188 38.4326H59.7837V44.838H61.9188V38.4326Z" fill="black"/>
<path d="M61.9188 46.9731H59.7837V49.1083H61.9188V46.9731Z" fill="black"/>
<path d="M61.9188 51.2432H59.7837V53.3783H61.9188V51.2432Z" fill="black"/>
<path d="M61.9188 55.5137H59.7837V70.4596H61.9188V55.5137Z" fill="black"/>
<path d="M61.9188 72.5947H59.7837V74.7299H61.9188V72.5947Z" fill="black"/>
<path d="M61.9188 76.8647H59.7837V78.9999H61.9188V76.8647Z" fill="black"/>
<path d="M64.0541 17.0811H61.9189V19.2162H64.0541V17.0811Z" fill="black"/>
<path d="M64.0541 21.3516H61.9189V23.4867H64.0541V21.3516Z" fill="black"/>
<path d="M64.0541 29.8921H61.9189V32.0272H64.0541V29.8921Z" fill="black"/>
<path d="M64.0541 34.1621H61.9189V36.2972H64.0541V34.1621Z" fill="black"/>
<path d="M64.0541 42.7026H61.9189V44.8378H64.0541V42.7026Z" fill="black"/>
<path d="M64.0541 51.2432H61.9189V55.5134H64.0541V51.2432Z" fill="black"/>
<path d="M64.0541 59.7837H61.9189V61.9188H64.0541V59.7837Z" fill="black"/>
<path d="M64.0541 68.3242H61.9189V70.4594H64.0541V68.3242Z" fill="black"/>
<path d="M64.0541 72.5947H61.9189V76.865H64.0541V72.5947Z" fill="black"/>
<path d="M66.1893 0H64.0542V14.9459H66.1893V0Z" fill="black"/>
<path d="M66.1893 21.3516H64.0542V23.4867H66.1893V21.3516Z" fill="black"/>
<path d="M66.1893 25.6216H64.0542V27.7567H66.1893V25.6216Z" fill="black"/>
<path d="M66.1893 29.8921H64.0542V36.2975H66.1893V29.8921Z" fill="black"/>
<path d="M66.1893 40.5674H64.0542V44.8377H66.1893V40.5674Z" fill="black"/>
<path d="M66.1893 49.1079H64.0542V53.3782H66.1893V49.1079Z" fill="black"/>
<path d="M66.1893 57.6484H64.0542V61.9187H66.1893V57.6484Z" fill="black"/>
<path d="M66.1893 64.0542H64.0542V66.1893H66.1893V64.0542Z" fill="black"/>
<path d="M66.1893 68.3242H64.0542V72.5945H66.1893V68.3242Z" fill="black"/>
<path d="M66.1893 74.7295H64.0542V78.9998H66.1893V74.7295Z" fill="black"/>
<path d="M68.3241 0H66.189V2.13514H68.3241V0Z" fill="black"/>
<path d="M68.3241 12.811H66.189V14.9462H68.3241V12.811Z" fill="black"/>
<path d="M68.3241 19.2163H66.189V23.4866H68.3241V19.2163Z" fill="black"/>
<path d="M68.3241 25.6216H66.189V27.7567H68.3241V25.6216Z" fill="black"/>
<path d="M68.3241 32.0269H66.189V34.162H68.3241V32.0269Z" fill="black"/>
<path d="M68.3241 36.2974H66.189V38.4325H68.3241V36.2974Z" fill="black"/>
<path d="M68.3241 42.7026H66.189V44.8378H68.3241V42.7026Z" fill="black"/>
<path d="M68.3241 46.9731H66.189V51.2434H68.3241V46.9731Z" fill="black"/>
<path d="M68.3241 53.3784H66.189V57.6487H68.3241V53.3784Z" fill="black"/>
<path d="M68.3241 59.7837H66.189V61.9188H68.3241V59.7837Z" fill="black"/>
<path d="M68.3241 68.3242H66.189V70.4594H68.3241V68.3242Z" fill="black"/>
<path d="M68.3241 76.8647H66.189V78.9999H68.3241V76.8647Z" fill="black"/>
<path d="M70.4594 0H68.3242V2.13514H70.4594V0Z" fill="black"/>
<path d="M70.4594 4.27051H68.3242V10.6759H70.4594V4.27051Z" fill="black"/>
<path d="M70.4594 12.811H68.3242V14.9462H70.4594V12.811Z" fill="black"/>
<path d="M70.4594 17.0811H68.3242V25.6216H70.4594V17.0811Z" fill="black"/>
<path d="M70.4594 27.7568H68.3242V32.0271H70.4594V27.7568Z" fill="black"/>
<path d="M70.4594 42.7026H68.3242V46.9729H70.4594V42.7026Z" fill="black"/>
<path d="M70.4594 49.1079H68.3242V51.243H70.4594V49.1079Z" fill="black"/>
<path d="M70.4594 53.3784H68.3242V55.5136H70.4594V53.3784Z" fill="black"/>
<path d="M70.4594 57.6484H68.3242V70.4592H70.4594V57.6484Z" fill="black"/>
<path d="M70.4594 72.5947H68.3242V76.865H70.4594V72.5947Z" fill="black"/>
<path d="M72.5946 0H70.4595V2.13514H72.5946V0Z" fill="black"/>
<path d="M72.5946 4.27051H70.4595V10.6759H72.5946V4.27051Z" fill="black"/>
<path d="M72.5946 12.811H70.4595V14.9462H72.5946V12.811Z" fill="black"/>
<path d="M72.5946 21.3516H70.4595V23.4867H72.5946V21.3516Z" fill="black"/>
<path d="M72.5946 25.6216H70.4595V34.1621H72.5946V25.6216Z" fill="black"/>
<path d="M72.5946 36.2974H70.4595V42.7028H72.5946V36.2974Z" fill="black"/>
<path d="M72.5946 46.9731H70.4595V51.2434H72.5946V46.9731Z" fill="black"/>
<path d="M72.5946 55.5137H70.4595V61.9191H72.5946V55.5137Z" fill="black"/>
<path d="M72.5946 72.5947H70.4595V76.865H72.5946V72.5947Z" fill="black"/>
<path d="M74.7299 0H72.5947V2.13514H74.7299V0Z" fill="black"/>
<path d="M74.7299 4.27051H72.5947V10.6759H74.7299V4.27051Z" fill="black"/>
<path d="M74.7299 12.811H72.5947V14.9462H74.7299V12.811Z" fill="black"/>
<path d="M74.7299 17.0811H72.5947V19.2162H74.7299V17.0811Z" fill="black"/>
<path d="M74.7299 23.4863H72.5947V25.6215H74.7299V23.4863Z" fill="black"/>
<path d="M74.7299 29.8921H72.5947V36.2975H74.7299V29.8921Z" fill="black"/>
<path d="M74.7299 44.8379H72.5947V46.973H74.7299V44.8379Z" fill="black"/>
<path d="M74.7299 49.1079H72.5947V51.243H74.7299V49.1079Z" fill="black"/>
<path d="M74.7299 55.5137H72.5947V64.0542H74.7299V55.5137Z" fill="black"/>
<path d="M74.7299 74.7295H72.5947V76.8646H74.7299V74.7295Z" fill="black"/>
<path d="M76.8646 0H74.7295V2.13514H76.8646V0Z" fill="black"/>
<path d="M76.8646 12.811H74.7295V14.9462H76.8646V12.811Z" fill="black"/>
<path d="M76.8646 17.0811H74.7295V21.3513H76.8646V17.0811Z" fill="black"/>
<path d="M76.8646 23.4863H74.7295V25.6215H76.8646V23.4863Z" fill="black"/>
<path d="M76.8646 27.7568H74.7295V34.1622H76.8646V27.7568Z" fill="black"/>
<path d="M76.8646 49.1079H74.7295V51.243H76.8646V49.1079Z" fill="black"/>
<path d="M76.8646 55.5137H74.7295V59.7839H76.8646V55.5137Z" fill="black"/>
<path d="M76.8646 61.9189H74.7295V64.0541H76.8646V61.9189Z" fill="black"/>
<path d="M76.8646 68.3242H74.7295V76.8648H76.8646V68.3242Z" fill="black"/>
<path d="M78.9999 0H76.8647V14.9459H78.9999V0Z" fill="black"/>
<path d="M78.9999 17.0811H76.8647V19.2162H78.9999V17.0811Z" fill="black"/>
<path d="M78.9999 21.3516H76.8647V27.757H78.9999V21.3516Z" fill="black"/>
<path d="M78.9999 29.8921H76.8647V36.2975H78.9999V29.8921Z" fill="black"/>
<path d="M78.9999 38.4326H76.8647V42.7029H78.9999V38.4326Z" fill="black"/>
<path d="M78.9999 46.9731H76.8647V53.3786H78.9999V46.9731Z" fill="black"/>
<path d="M78.9999 55.5137H76.8647V57.6488H78.9999V55.5137Z" fill="black"/>
<path d="M78.9999 64.0542H76.8647V66.1893H78.9999V64.0542Z" fill="black"/>
<path d="M78.9999 72.5947H76.8647V79.0001H78.9999V72.5947Z" fill="black"/>
</g>
<defs>
<clipPath id="clip0_38_1069">
<rect width="79" height="79" fill="white"/>
</clipPath>
</defs>
</svg>
