<svg class="img-fluid" id="outputsvg" xmlns="http://www.w3.org/2000/svg" style="transform: none; transform-origin: 50% 50%; cursor: move; max-height: none;" width="268" height="210" viewBox="0 0 2680 2100"><g id="l5lhQ0cYiIyajichmO81fVK" fill="rgb(255,255,255)" style="transform: none;"><g><path id="phkRn2su2" d="M483 1855 c-39 -17 -51 -49 -27 -76 23 -25 40 -24 59 5 12 18 14 30 6 44 -7 13 -7 22 1 30 16 16 1 14 -39 -3z m25 -44 c4 -26 -13 -42 -35 -34 -14 5 -18 45 -6 57 14 14 38 0 41 -23z"></path><path id="pkiBKJEGf" d="M808 1848 c-3 -13 -9 -32 -13 -43 -7 -20 -6 -20 9 -1 16 20 16 20 31 0 14 -17 14 -14 0 20 -20 50 -21 52 -27 24z"></path><path id="p70cKQfO5" d="M620 1845 c-8 -10 -6 -17 10 -28 20 -14 21 -15 3 -20 -12 -3 -9 -5 10 -6 23 -1 27 3 27 28 0 32 -31 48 -50 26z"></path><path id="pDVYc8sNJ" d="M910 1845 c-19 -23 -8 -50 20 -50 18 0 26 6 28 22 4 29 -30 49 -48 28z m35 -25 c0 -8 -8 -16 -17 -18 -13 -2 -18 3 -18 18 0 15 5 20 18 18 9 -2 17 -10 17 -18z"></path><path id="pnyAQihZC" d="M1423 1853 c-21 -7 -15 -31 10 -39 21 -7 21 -7 2 -15 -18 -8 -17 -8 5 -6 19 1 26 9 28 28 3 27 -18 41 -45 32z m24 -29 c-9 -9 -28 6 -21 18 4 6 10 6 17 -1 6 -6 8 -13 4 -17z"></path><path id="p9WEmMDEw" d="M1496 1848 c-13 -40 -15 -68 -6 -73 5 -3 10 -3 11 2 0 4 1 25 3 46 3 37 -1 48 -8 25z"></path><path id="pAMKUwHdm" d="M1834 1845 c-3 -7 -4 -24 -1 -37 4 -21 4 -20 6 5 0 16 7 27 15 27 8 0 17 -12 19 -27 4 -27 4 -27 6 3 1 24 -4 33 -20 37 -12 3 -22 0 -25 -8z"></path><path id="pSg7A0zDK" d="M2075 1843 c-9 -8 -14 -22 -11 -30 3 -8 6 -17 6 -19 0 -2 5 -4 11 -4 5 0 7 5 4 10 -3 6 1 10 10 10 9 0 13 -4 10 -10 -3 -5 -1 -10 4 -10 6 0 11 7 11 15 0 8 -9 15 -20 15 -27 0 -25 18 3 22 19 3 19 4 5 10 -11 4 -24 1 -33 -9z"></path><path id="p151DUAQD1" d="M540 1820 c0 -16 5 -30 10 -30 6 0 10 11 10 25 0 14 5 25 10 25 6 0 10 -11 10 -25 0 -14 5 -25 10 -25 6 0 10 14 10 30 0 27 -3 30 -30 30 -27 0 -30 -3 -30 -30z"></path><path id="pnUo1iEoa" d="M693 1805 c0 -27 2 -38 4 -22 2 15 2 37 0 50 -2 12 -4 0 -4 -28z"></path><path id="pGWZqKbuD" d="M722 1820 c0 -19 2 -27 5 -17 2 9 2 25 0 35 -3 9 -5 1 -5 -18z"></path><path id="p3GpKfztp" d="M750 1809 c0 -36 2 -40 15 -29 12 10 13 15 4 21 -7 4 -9 16 -6 28 3 12 1 21 -4 21 -5 0 -9 -19 -9 -41z"></path><path id="pHHOzg2tc" d="M977 1818 c-3 -20 0 -38 8 -46 10 -11 11 -5 8 30 -6 54 -9 58 -16 16z"></path><path id="p4OsGkhEf" d="M1082 1818 c-1 -23 -8 -41 -19 -47 -14 -8 -10 -10 22 -10 22 1 32 3 23 6 -12 3 -18 17 -21 46 l-4 42 -1 -37z"></path><path id="p11RnO49MN" d="M1130 1820 c0 -25 4 -30 23 -29 12 0 16 3 10 6 -7 2 -13 16 -13 29 0 13 -4 24 -10 24 -5 0 -10 -13 -10 -30z"></path><path id="pfSlUePGa" d="M1180 1834 c0 -9 10 -19 23 -22 22 -6 22 -6 -3 -13 l-25 -7 28 -1 c24 -1 27 3 27 29 0 17 -4 30 -10 30 -5 0 -7 -7 -3 -16 4 -12 2 -15 -8 -12 -8 3 -13 11 -11 17 1 6 -2 11 -8 11 -5 0 -10 -7 -10 -16z"></path><path id="pMH3887Q" d="M1251 1822 c-1 -31 1 -33 27 -30 21 2 28 9 30 31 2 15 -1 27 -7 27 -6 0 -11 -11 -11 -25 0 -34 -28 -32 -33 3 -4 25 -4 24 -6 -6z"></path><path id="pFcLxk74C" d="M1340 1841 l25 -7 -22 -8 c-13 -4 -23 -14 -23 -22 0 -8 9 -14 23 -13 21 0 21 1 2 8 -19 8 -19 8 3 15 32 11 28 36 -5 35 l-28 -1 25 -7z"></path><path id="pOoFrXs9d" d="M1380 1811 c0 -22 5 -43 10 -46 6 -4 10 12 10 39 0 25 -4 46 -10 46 -5 0 -10 -18 -10 -39z"></path><path id="pF7OQnZoW" d="M1532 1820 c0 -19 2 -27 5 -17 2 9 2 25 0 35 -3 9 -5 1 -5 -18z"></path><path id="pohKU6l38" d="M1564 1836 c-10 -26 4 -48 28 -44 17 2 23 10 23 28 0 18 -6 26 -23 28 -13 2 -25 -3 -28 -12z m41 -16 c0 -8 -8 -16 -17 -18 -13 -2 -18 3 -18 18 0 15 5 20 18 18 9 -2 17 -10 17 -18z"></path><path id="pRZ8xl6Lv" d="M1641 1823 c-1 -29 2 -33 24 -33 22 0 25 4 24 33 -2 30 -2 30 -6 5 -2 -16 -10 -28 -18 -28 -8 0 -16 12 -18 28 -4 25 -4 25 -6 -5z"></path><path id="pTSB2MOSt" d="M1750 1806 c0 -38 3 -46 19 -46 26 0 39 19 37 55 -1 25 -6 31 -28 33 -27 3 -28 2 -28 -42z m41 19 c-1 -15 -24 -12 -29 3 -3 9 2 13 12 10 10 -1 17 -7 17 -13z m-3 -36 c-2 -6 -8 -10 -13 -10 -5 0 -11 4 -13 10 -2 6 4 11 13 11 9 0 15 -5 13 -11z"></path><path id="p1GoXyHSR5" d="M1915 1841 c18 -8 19 -9 3 -16 -26 -10 -22 -35 5 -34 21 0 21 1 2 8 -19 8 -19 8 3 15 29 10 23 30 -9 33 -22 2 -22 2 -4 -6z"></path><path id="pmMrEkDu5" d="M1962 1820 c0 -19 2 -27 5 -17 2 9 2 25 0 35 -3 9 -5 1 -5 -18z"></path><path id="ppqGwYMZf" d="M1990 1820 c0 -27 3 -30 30 -30 27 0 30 3 29 33 -2 30 -2 30 -6 5 -5 -35 -33 -37 -33 -3 0 14 -4 25 -10 25 -5 0 -10 -13 -10 -30z"></path><path id="pnXCKIShm" d="M2154 1841 c18 -7 18 -8 3 -14 -25 -10 -21 -37 6 -36 20 0 20 1 3 8 -18 7 -18 8 -3 14 25 10 21 37 -5 36 -21 0 -21 -1 -4 -8z"></path><path id="piJPU5mA9" d="M2209 1843 l23 -5 -21 -15 c-25 -17 -19 -33 12 -32 20 0 21 1 3 8 -18 7 -18 8 -3 14 28 11 21 37 -10 36 -26 -2 -26 -2 -4 -6z"></path><path id="p16XnzYr5W" d="M1537 1643 c-13 -12 -7 -44 9 -50 23 -9 48 25 33 44 -12 14 -32 17 -42 6z"></path><path id="pf8nnNY9c" d="M1690 1606 c0 -21 5 -26 25 -26 l25 0 0 -105 0 -105 30 0 30 0 0 70 0 70 38 0 c51 0 62 -14 62 -82 0 -58 0 -58 30 -58 30 0 30 0 30 60 0 50 3 61 21 70 11 6 30 10 42 8 21 -3 22 -8 27 -133 l5 -130 28 -3 27 -3 0 139 c0 121 -2 141 -18 155 -27 25 -74 31 -113 15 -28 -12 -39 -12 -64 -2 -16 7 -48 13 -70 14 -35 0 -42 4 -55 33 -13 28 -21 32 -57 35 -40 3 -43 1 -43 -22z"></path><path id="pRO8Fqrym" d="M630 1548 c-14 -6 -48 -10 -75 -9 -69 3 -100 -21 -100 -79 0 -34 6 -47 28 -66 24 -20 39 -24 97 -24 l69 0 3 68 3 67 285 0 284 0 11 -42 c5 -23 19 -55 31 -70 18 -24 28 -28 67 -28 58 0 97 33 100 86 4 53 12 59 82 59 84 0 95 -5 95 -46 0 -40 -25 -57 -78 -52 -31 3 -37 0 -40 -19 -7 -46 129 -38 163 10 17 24 20 89 5 117 -5 10 -24 23 -41 29 -44 15 -149 14 -179 -3 -21 -11 -30 -10 -54 2 -18 8 -40 11 -60 7 -17 -3 -40 -5 -51 -5 -11 1 -155 4 -320 5 -206 3 -308 1 -325 -7z m742 -63 c15 -32 -3 -75 -31 -75 -22 0 -51 35 -51 60 0 44 63 55 82 15z m-782 -35 c0 -34 -3 -40 -21 -40 -33 0 -59 19 -59 44 0 30 7 36 47 36 32 0 33 -1 33 -40z"></path><path id="pADSIirVD" d="M2170 1400 l0 -160 30 0 30 0 0 160 0 160 -30 0 -30 0 0 -160z"></path><path id="pnSDFPGhC" d="M497 1313 c-13 -12 -7 -41 10 -47 21 -8 48 17 40 38 -6 16 -38 22 -50 9z"></path><path id="pNhYLtsjJ" d="M566 1304 c-9 -22 17 -49 39 -40 10 3 15 15 13 28 -4 29 -42 37 -52 12z"></path><path id="pT0lB4mXR" d="M1864 1305 c-4 -9 0 -23 8 -31 20 -20 50 -7 46 20 -4 26 -45 35 -54 11z"></path><path id="p10cyd7gad" d="M1947 1313 c-13 -12 -7 -41 10 -47 21 -8 48 17 40 38 -6 16 -38 22 -50 9z"></path><path id="pVb4DvUnz" d="M478 1095 c-36 -20 -52 -72 -38 -124 11 -42 16 -46 45 -35 12 5 15 15 10 48 -8 53 10 79 55 79 54 0 60 -17 60 -190 l0 -153 31 0 31 0 -4 163 c-3 173 -9 195 -55 216 -33 15 -103 13 -135 -4z"></path><path id="p2VPwEppv" d="M758 1024 c-36 -19 -39 -36 -36 -179 l3 -120 28 -3 27 -3 0 120 c0 65 3 126 6 135 5 14 54 16 449 16 493 0 445 7 460 -66 12 -60 71 -93 130 -74 40 13 56 38 64 95 5 36 9 40 38 43 31 3 31 3 26 -36 -7 -52 17 -89 67 -102 48 -13 103 -3 96 17 -4 8 -6 18 -6 22 0 4 -15 5 -33 3 -40 -4 -67 17 -67 53 0 30 13 38 70 45 37 4 45 9 45 25 0 19 -8 20 -102 23 -75 2 -110 -1 -131 -12 -23 -12 -30 -12 -47 0 -23 17 -65 18 -100 2 -19 -9 -28 -9 -37 0 -9 9 -132 12 -468 12 -383 -1 -459 -3 -482 -16z m1060 -46 c17 -17 15 -63 -3 -78 -21 -18 -52 -3 -64 32 -8 22 -8 35 0 44 14 17 51 18 67 2z"></path><path id="p13pEbs9p6" d="M2170 880 l0 -160 30 0 30 0 0 160 0 160 -30 0 -30 0 0 -160z"></path><path id="pzfPuBwzd" d="M928 708 c-16 -12 -15 -19 13 -83 17 -38 34 -74 38 -78 11 -11 41 2 41 18 0 20 -57 149 -67 152 -5 2 -16 -2 -25 -9z"></path><path id="pnJ9iwQvW" d="M2150 680 c0 -5 4 -10 10 -10 5 0 7 -7 3 -15 -7 -20 24 -55 49 -55 10 0 18 7 18 15 0 9 -9 15 -21 15 -28 0 -21 34 9 38 40 6 23 22 -23 22 -25 0 -45 -4 -45 -10z"></path><path id="p7tCecVxH" d="M2097 564 c-12 -13 -8 -42 8 -48 25 -9 46 5 43 28 -3 21 -37 34 -51 20z"></path><path id="p1CcWPrxEq" d="M1000 522 c-48 -24 -82 -85 -77 -139 10 -100 119 -164 205 -119 51 27 75 62 80 118 l4 53 474 -5 c407 -4 476 -7 484 -20 27 -42 -6 -80 -67 -80 -29 0 -43 -5 -47 -16 -9 -25 -1 -28 64 -29 52 0 63 4 87 28 37 37 40 105 5 139 l-23 23 -489 3 c-445 2 -490 1 -490 -13 0 -11 -8 -7 -26 15 -51 60 -118 76 -184 42z m133 -42 c38 -30 52 -80 34 -123 -18 -43 -52 -67 -94 -67 -66 0 -113 43 -113 105 0 34 27 80 54 94 35 17 91 13 119 -9z"></path><path id="pQH0mHoy1" d="M490 468 c-39 -21 -55 -63 -41 -108 14 -48 40 -70 89 -77 33 -4 44 -1 71 23 72 64 44 161 -49 170 -27 3 -55 -1 -70 -8z m94 -60 c7 -11 7 -26 0 -45 -7 -22 -16 -28 -39 -28 -24 0 -31 5 -39 32 -6 24 -5 37 4 48 17 20 59 16 74 -7z"></path><path id="p13rVgfk6C" d="M688 474 c-5 -4 -8 -16 -8 -26 0 -15 8 -18 53 -18 58 0 77 -12 77 -46 0 -32 -26 -54 -66 -54 -27 0 -34 -4 -34 -19 0 -28 15 -34 65 -26 69 10 90 33 90 99 0 74 -14 87 -102 93 -37 3 -71 2 -75 -3z"></path><path id="p3PbO9fNU" d="M487 233 c-13 -12 -7 -41 10 -47 21 -8 48 17 40 38 -6 16 -38 22 -50 9z"></path><path id="pswPt3CY6" d="M564 226 c-9 -24 4 -48 23 -44 24 4 24 52 0 56 -9 2 -20 -4 -23 -12z"></path></g></g></svg>